STARTFONT 2.1
FONT -HP-Sung-Medium-R-Normal--18-180-75-75-C-160-HPROC16-
SIZE 18 75 75
FONTBOUNDINGBOX 16 18 0 -2

STARTPROPERTIES 23
FONTNAME_REGISTRY ""
FOUNDRY "HP"
FAMILY_NAME "Sung"
WEIGHT_NAME "Medium"
SLANT "R"
SETWIDTH_NAME "Normal"
ADD_STYLE_NAME ""
PIXEL_SIZE 18
POINT_SIZE 180
RESOLUTION_X 75
RESOLUTION_Y 75
SPACING "C"
AVERAGE_WIDTH 160
CHARSET_REGISTRY "HPROC16"
CHARSET_ENCODING ""
COPYRIGHT "Copyright (c) 1994 Hewlett-Packard Company."
_HP_ASXVERSION "@(#) ASX 3.00 $Revision: 13.9 $ sung18ch"
WEIGHT 10
X_HEIGHT 16
QUAD_WIDTH 16
DEFAULT_CHAR 41249
FONT_DESCENT 2
FONT_ASCENT 16
ENDPROPERTIES

CHARS 16390

STARTCHAR ccdc_A121
ENCODING 41249
SWIDTH 854 0
DWIDTH 16 0
BBX 16 18 0 -2
BITMAP
0000
4002
0000
0000
0000
0000
0000
0000
0000
0000
0000
0000
0000
0000
0000
0000
4002
0000
ENDCHAR

STARTCHAR cns2_2126
ENCODING 41250
SWIDTH 854 0
DWIDTH 16 0
BBX 16 18 0 -2
BITMAP
0000
0000
0000
7FFF
0100
0100
0100
01FC
0104
0104
0204
0204
0404
0404
0804
1008
2030
0000
ENDCHAR

STARTCHAR cns2_2127
ENCODING 41251
SWIDTH 854 0
DWIDTH 16 0
BBX 16 18 0 -2
BITMAP
0000
0000
7FFF
0210
0210
0210
0210
0210
0210
0410
0410
0410
0810
0810
1010
0010
0010
0000
ENDCHAR

STARTCHAR cns2_212D
ENCODING 41252
SWIDTH 854 0
DWIDTH 16 0
BBX 16 18 0 -2
BITMAP
0000
0000
7FFF
0080
0080
1080
10FE
1082
1082
1082
1FFA
1002
0002
0002
0002
0004
0038
0000
ENDCHAR

STARTCHAR cns2_212E
ENCODING 41253
SWIDTH 854 0
DWIDTH 16 0
BBX 16 18 0 -2
BITMAP
0000
0100
0100
7FFF
0200
0400
07F8
0C08
1408
2408
4408
0408
0408
0408
0408
0408
0418
0000
ENDCHAR

STARTCHAR cns2_212F
ENCODING 41254
SWIDTH 854 0
DWIDTH 16 0
BBX 16 18 0 -2
BITMAP
0000
0400
0400
07FC
0800
0800
0800
0FF8
1008
0008
0008
7FC8
0010
0010
0010
0020
01C0
0000
ENDCHAR

STARTCHAR cns1_4563
ENCODING 41255
SWIDTH 854 0
DWIDTH 16 0
BBX 16 18 0 -2
BITMAP
0000
0038
0FC0
0800
0800
0800
0800
0FFC
0810
0810
0810
0810
0810
0810
0810
0810
7FFF
0000
ENDCHAR

STARTCHAR ccdc_A128
ENCODING 41256
SWIDTH 854 0
DWIDTH 16 0
BBX 16 18 0 -2
BITMAP
0000
3FF0
0010
0410
0410
0410
3F90
0410
0410
7FD0
0410
0510
0891
11D1
7E51
0011
000F
0000
ENDCHAR

STARTCHAR cns2_2130
ENCODING 41257
SWIDTH 854 0
DWIDTH 16 0
BBX 16 18 0 -2
BITMAP
0000
0000
7FF0
0810
0810
0810
7F90
0810
0810
0810
7F90
0810
0810
0810
0811
080F
0800
0000
ENDCHAR

STARTCHAR cns2_2531
ENCODING 41258
SWIDTH 854 0
DWIDTH 16 0
BBX 16 18 0 -2
BITMAP
0000
0220
0220
1FFC
1224
1224
1FFC
0220
0220
3FFE
2222
2222
3FFE
0420
0420
0820
3020
0000
ENDCHAR

STARTCHAR cns1_443D
ENCODING 41259
SWIDTH 854 0
DWIDTH 16 0
BBX 16 18 0 -2
BITMAP
0000
0100
0100
0200
0200
0400
0420
0820
0840
1040
1080
2080
4108
0104
023E
0FC1
0000
0000
ENDCHAR

STARTCHAR cns3_212E
ENCODING 41260
SWIDTH 854 0
DWIDTH 16 0
BBX 16 18 0 -2
BITMAP
0000
0000
0004
0004
0904
0888
0888
0448
0450
0210
0220
0140
0080
0140
0620
1818
6006
0000
ENDCHAR

STARTCHAR cns1_4724
ENCODING 41261
SWIDTH 854 0
DWIDTH 16 0
BBX 16 18 0 -2
BITMAP
0000
0030
0FC0
0800
0800
0800
0FFC
0810
0810
0810
0810
7FFF
0000
0400
0800
1000
6000
0000
ENDCHAR

STARTCHAR cns1_4725
ENCODING 41262
SWIDTH 854 0
DWIDTH 16 0
BBX 16 18 0 -2
BITMAP
0000
0030
0FC0
0800
0800
0800
0FFC
0810
0810
0810
0810
7FFF
0000
0010
0008
0004
0003
0000
ENDCHAR

STARTCHAR cns3_2264
ENCODING 41263
SWIDTH 854 0
DWIDTH 16 0
BBX 16 18 0 -2
BITMAP
0000
0820
0820
1220
1120
2120
2EA0
70A0
0020
3F20
2120
2120
2120
2120
2121
3F21
201E
0000
ENDCHAR

STARTCHAR cns2_4157
ENCODING 41264
SWIDTH 854 0
DWIDTH 16 0
BBX 16 18 0 -2
BITMAP
0000
0410
3F90
0410
3F10
0010
7FD0
4050
5F50
0010
1F10
1110
1110
1F11
1111
0A11
7FCF
0000
ENDCHAR

STARTCHAR ccdc_A131
ENCODING 41265
SWIDTH 854 0
DWIDTH 16 0
BBX 16 18 0 -2
BITMAP
0000
0400
3FF0
0412
0812
708E
0080
1FFC
0080
0080
7F06
1078
3E08
22FF
3E08
2208
3E08
0000
ENDCHAR

STARTCHAR cns2_2129
ENCODING 41266
SWIDTH 854 0
DWIDTH 16 0
BBX 16 18 0 -2
BITMAP
0000
0000
0FF8
0000
0000
0000
7FFF
0080
0080
0080
0080
0080
0080
0080
0080
0080
0380
0000
ENDCHAR

STARTCHAR cns2_2131
ENCODING 41267
SWIDTH 854 0
DWIDTH 16 0
BBX 16 18 0 -2
BITMAP
0000
1FFC
0000
0000
0000
7FFF
0210
0210
0210
0210
0210
0410
0410
0410
0810
0010
0010
0000
ENDCHAR

STARTCHAR cns3_2266
ENCODING 41268
SWIDTH 854 0
DWIDTH 16 0
BBX 16 18 0 -2
BITMAP
0000
0000
7FFF
0000
1FFC
1004
1004
1004
1FFC
1004
1004
1004
1FFC
1004
0000
7FFF
0000
0000
ENDCHAR

STARTCHAR ccdc_A135
ENCODING 41269
SWIDTH 854 0
DWIDTH 16 0
BBX 16 18 0 -2
BITMAP
0000
0000
0100
0080
0080
7FFF
0000
0410
0410
0410
0410
0810
0810
1010
1010
2010
4010
0000
ENDCHAR

STARTCHAR ccdc_A136
ENCODING 41270
SWIDTH 854 0
DWIDTH 16 0
BBX 16 18 0 -2
BITMAP
0000
0100
0080
7FFF
0000
1FFC
1004
1FFC
0000
1FF0
0210
023E
0422
0402
0802
1012
600C
0000
ENDCHAR

STARTCHAR ccdc_A137
ENCODING 41271
SWIDTH 854 0
DWIDTH 16 0
BBX 16 18 0 -2
BITMAP
0000
0080
7FFF
0000
1FFC
1084
1FFC
1084
1FFC
1004
0000
0FF8
0808
0FF8
0808
0FF8
0800
0000
ENDCHAR

STARTCHAR ccdc_A138
ENCODING 41272
SWIDTH 854 0
DWIDTH 16 0
BBX 16 18 0 -2
BITMAP
0000
0810
0410
7F90
0010
3E7C
2214
3E14
0054
7F34
4114
3E2C
082C
0825
0845
2845
1887
0000
ENDCHAR

STARTCHAR cns3_3C37
ENCODING 41273
SWIDTH 854 0
DWIDTH 16 0
BBX 16 18 0 -2
BITMAP
0000
0000
0080
0080
7FFF
0408
0F7F
1148
6E48
05FF
7888
0088
7FFF
01B0
0E8C
7083
0080
0000
ENDCHAR

STARTCHAR ccdc_A13A
ENCODING 41274
SWIDTH 854 0
DWIDTH 16 0
BBX 16 18 0 -2
BITMAP
0000
0080
7FFF
1028
227F
64C8
197E
1048
247E
4E48
727F
0000
07F0
0510
0491
1891
600F
0000
ENDCHAR

STARTCHAR cns3_2132
ENCODING 41275
SWIDTH 854 0
DWIDTH 16 0
BBX 16 18 0 -2
BITMAP
0000
0000
0000
0080
0180
0240
0240
0420
0810
0810
1008
6006
0000
0000
0000
3FFE
0000
0000
ENDCHAR

STARTCHAR cns2_2134
ENCODING 41276
SWIDTH 854 0
DWIDTH 16 0
BBX 16 18 0 -2
BITMAP
0000
0820
0820
0810
1090
1090
2088
3088
5108
5104
1104
1204
1202
1202
1402
1001
1001
0000
ENDCHAR

STARTCHAR cns3_214C
ENCODING 41277
SWIDTH 854 0
DWIDTH 16 0
BBX 16 18 0 -2
BITMAP
0000
0000
0080
0080
0080
0140
0220
0410
0808
1084
6083
0080
0140
0220
0410
180C
6003
0000
ENDCHAR

STARTCHAR ccdc_A13E
ENCODING 41278
SWIDTH 854 0
DWIDTH 16 0
BBX 16 18 0 -2
BITMAP
0000
0040
0040
0080
0080
0140
0630
180C
6003
0040
0040
0080
0080
0140
0630
180C
6003
0000
ENDCHAR

STARTCHAR cns2_2146
ENCODING 41279
SWIDTH 854 0
DWIDTH 16 0
BBX 16 18 0 -2
BITMAP
0000
0800
0BFE
0820
1020
1020
2020
3020
5020
5020
1020
1020
1020
1020
1020
17FF
1000
0000
ENDCHAR

STARTCHAR cns2_2145
ENCODING 41280
SWIDTH 854 0
DWIDTH 16 0
BBX 16 18 0 -2
BITMAP
0000
0400
0400
0800
09FE
1000
2000
3000
5000
10FC
1000
1000
1000
1000
1000
13FF
1000
0000
ENDCHAR

STARTCHAR cns2_2147
ENCODING 41281
SWIDTH 854 0
DWIDTH 16 0
BBX 16 18 0 -2
BITMAP
0000
0800
0840
0840
1040
1040
2040
3040
507E
5040
1040
1040
1040
1040
1040
1040
17FF
0000
ENDCHAR

STARTCHAR cns3_2170
ENCODING 41282
SWIDTH 854 0
DWIDTH 16 0
BBX 16 18 0 -2
BITMAP
0000
0080
0080
0080
0080
00FE
0080
0080
0080
7FFF
0080
0080
0140
0220
0410
180C
6003
0000
ENDCHAR

STARTCHAR ccdc_A143
ENCODING 41283
SWIDTH 854 0
DWIDTH 16 0
BBX 16 18 0 -2
BITMAP
0000
0410
0410
0810
0810
1010
2010
3054
5052
1092
1111
1211
1010
1010
1010
1010
1070
0000
ENDCHAR

STARTCHAR ccdc_A144
ENCODING 41284
SWIDTH 854 0
DWIDTH 16 0
BBX 16 18 0 -2
BITMAP
0000
0180
0180
0660
1818
6007
0FF8
0080
0080
3FFE
0100
0200
07F8
0008
0008
0010
00E0
0000
ENDCHAR

STARTCHAR cns2_214A
ENCODING 41285
SWIDTH 854 0
DWIDTH 16 0
BBX 16 18 0 -2
BITMAP
0000
0040
0040
0080
0080
0140
0230
0C0C
7003
0080
0080
2082
2082
2082
2082
3FFE
2002
0000
ENDCHAR

STARTCHAR ccdc_A146
ENCODING 41286
SWIDTH 854 0
DWIDTH 16 0
BBX 16 18 0 -2
BITMAP
0000
0040
0080
0360
0C18
7007
0010
0FF8
0080
0082
7FFF
0080
0080
0080
0080
0280
0180
0000
ENDCHAR

STARTCHAR cns2_216E
ENCODING 41287
SWIDTH 854 0
DWIDTH 16 0
BBX 16 18 0 -2
BITMAP
0000
0800
0800
09FF
1101
1202
2000
3048
5048
1048
1048
1088
1088
1088
1109
1209
140F
0000
ENDCHAR

STARTCHAR cns2_2170
ENCODING 41288
SWIDTH 854 0
DWIDTH 16 0
BBX 16 18 0 -2
BITMAP
0000
0800
0838
0888
1088
1088
2104
3104
5202
5421
1020
1040
1084
1104
123E
17C2
1001
0000
ENDCHAR

STARTCHAR cns1_472F
ENCODING 41289
SWIDTH 854 0
DWIDTH 16 0
BBX 16 18 0 -2
BITMAP
0000
0420
0820
0820
13FE
1020
3020
3020
57FF
1020
1020
1050
1048
1088
1084
1102
1601
0000
ENDCHAR

STARTCHAR cns2_2172
ENCODING 41290
SWIDTH 854 0
DWIDTH 16 0
BBX 16 18 0 -2
BITMAP
0000
0840
0820
0810
1080
1080
2080
3280
5280
5282
1283
1281
1481
1481
1888
1088
10F8
0000
ENDCHAR

STARTCHAR cns2_216F
ENCODING 41291
SWIDTH 854 0
DWIDTH 16 0
BBX 16 18 0 -2
BITMAP
0000
0220
0230
0450
0488
0904
0A03
18FC
2800
4800
08FC
0804
0804
0808
0808
0810
0820
0000
ENDCHAR

STARTCHAR cns2_216B
ENCODING 41292
SWIDTH 854 0
DWIDTH 16 0
BBX 16 18 0 -2
BITMAP
0000
0210
0210
0414
0412
0810
09FF
1810
2820
4830
0850
0850
0850
0891
0891
0911
0A0E
0000
ENDCHAR

STARTCHAR cns2_216C
ENCODING 41293
SWIDTH 854 0
DWIDTH 16 0
BBX 16 18 0 -2
BITMAP
0000
0800
0800
09FE
1102
1102
2102
31FE
5120
5110
1110
1208
1208
1204
1404
1402
1801
0000
ENDCHAR

STARTCHAR cns3_2422
ENCODING 41294
SWIDTH 854 0
DWIDTH 16 0
BBX 16 18 0 -2
BITMAP
0000
0420
0420
0820
0820
1320
10E1
3022
5074
10A8
10A8
1124
1124
1222
1421
1020
11C0
0000
ENDCHAR

STARTCHAR ccdc_A14F
ENCODING 41295
SWIDTH 854 0
DWIDTH 16 0
BBX 16 18 0 -2
BITMAP
0000
0BFC
0A04
0A04
1284
1244
2224
3204
57FF
5204
1204
1204
1204
1204
1204
1404
140C
0000
ENDCHAR

STARTCHAR cns2_2177
ENCODING 41296
SWIDTH 854 0
DWIDTH 16 0
BBX 16 18 0 -2
BITMAP
0000
0800
0BFF
0810
1010
1020
2020
3040
5068
50A4
10A2
1121
1221
1420
1020
1020
1020
0000
ENDCHAR

STARTCHAR cns3_226D
ENCODING 41297
SWIDTH 854 0
DWIDTH 16 0
BBX 16 18 0 -2
BITMAP
0000
0400
05FE
0802
0844
1028
1010
37FF
3012
5012
1010
1010
1010
1010
1010
1010
1060
0000
ENDCHAR

STARTCHAR cns3_2276
ENCODING 41298
SWIDTH 854 0
DWIDTH 16 0
BBX 16 18 0 -2
BITMAP
0000
0080
0140
0220
0410
0808
1004
6003
07F0
0400
0400
0400
07F0
0400
0400
0400
07F0
0000
ENDCHAR

STARTCHAR ccdc_A153
ENCODING 41299
SWIDTH 854 0
DWIDTH 16 0
BBX 16 18 0 -2
BITMAP
0000
0800
09FC
0800
1000
1000
23FE
3050
5050
5050
1050
1090
1090
1090
1111
1111
161F
0000
ENDCHAR

STARTCHAR ccdc_A154
ENCODING 41300
SWIDTH 854 0
DWIDTH 16 0
BBX 16 18 0 -2
BITMAP
0000
0400
0400
04FE
0882
0882
1082
1882
28FE
4882
0882
0882
0882
0882
08FE
0882
0800
0000
ENDCHAR

STARTCHAR cns3_2267
ENCODING 41301
SWIDTH 854 0
DWIDTH 16 0
BBX 16 18 0 -2
BITMAP
0000
0420
0420
0426
0BF8
0820
1020
13FE
3020
5020
17FF
1020
1020
1020
1020
1020
1020
0000
ENDCHAR

STARTCHAR cns3_2270
ENCODING 41302
SWIDTH 854 0
DWIDTH 16 0
BBX 16 18 0 -2
BITMAP
0000
0000
0440
0440
0840
0FFF
1080
3080
50FE
1144
1144
1228
1210
1428
1844
1082
1301
0000
ENDCHAR

STARTCHAR ccdc_A157
ENCODING 41303
SWIDTH 854 0
DWIDTH 16 0
BBX 16 18 0 -2
BITMAP
0000
0820
0820
0820
17FF
1004
2104
3104
5088
5088
1050
1020
1020
1050
1088
1104
1603
0000
ENDCHAR

STARTCHAR cns2_2173
ENCODING 41304
SWIDTH 854 0
DWIDTH 16 0
BBX 16 18 0 -2
BITMAP
0000
0400
09FE
0800
1000
1000
3000
33FF
5020
5020
1040
1040
1080
1084
111E
17E1
1001
0000
ENDCHAR

STARTCHAR cns2_2179
ENCODING 41305
SWIDTH 854 0
DWIDTH 16 0
BBX 16 18 0 -2
BITMAP
0000
0200
0200
04FF
0481
0881
1081
18FF
2881
0881
0881
08FF
0881
0881
0901
0901
0903
0000
ENDCHAR

STARTCHAR ccdc_A15A
ENCODING 41306
SWIDTH 854 0
DWIDTH 16 0
BBX 16 18 0 -2
BITMAP
0000
0820
0820
0820
1020
1020
27FF
3020
5020
5050
1050
1048
1088
1084
1124
1212
1C01
0000
ENDCHAR

STARTCHAR cns3_226F
ENCODING 41307
SWIDTH 854 0
DWIDTH 16 0
BBX 16 18 0 -2
BITMAP
0000
0400
05FF
0900
0900
1100
19FE
2942
2942
4924
0924
0918
0A18
0A24
0A42
0C81
0800
0000
ENDCHAR

STARTCHAR cns3_2277
ENCODING 41308
SWIDTH 854 0
DWIDTH 16 0
BBX 16 18 0 -2
BITMAP
0000
0080
0080
0080
0080
0140
0220
0410
080C
1003
6810
0810
0810
0810
1428
2244
4183
0000
ENDCHAR

STARTCHAR ccdc_A15D
ENCODING 41309
SWIDTH 854 0
DWIDTH 16 0
BBX 16 18 0 -2
BITMAP
0000
0410
0410
08FE
0892
0892
1892
28FE
4892
0892
0892
09FF
0882
0882
0882
0882
0886
0000
ENDCHAR

STARTCHAR cns3_2449
ENCODING 41310
SWIDTH 854 0
DWIDTH 16 0
BBX 16 18 0 -2
BITMAP
0000
0400
07FF
0810
0810
1110
1110
2110
311F
5110
5110
1110
1110
1110
1110
17FF
1000
0000
ENDCHAR

STARTCHAR ccdc_A15F
ENCODING 41311
SWIDTH 854 0
DWIDTH 16 0
BBX 16 18 0 -2
BITMAP
0000
0800
0800
0808
3F08
0808
0808
0808
7F94
0814
1C22
1A22
2941
4880
0860
0818
0807
0000
ENDCHAR

STARTCHAR ccdc_A160
ENCODING 41312
SWIDTH 854 0
DWIDTH 16 0
BBX 16 18 0 -2
BITMAP
0000
0820
0820
0BFE
1222
1222
1222
3222
53FE
5022
1120
10A0
1040
1060
1090
110C
1603
0000
ENDCHAR

STARTCHAR cns2_2174
ENCODING 41313
SWIDTH 854 0
DWIDTH 16 0
BBX 16 18 0 -2
BITMAP
0000
0420
0410
05FF
0810
0810
0810
18FE
2892
4892
0892
0892
0896
0810
0810
0810
0810
0000
ENDCHAR

STARTCHAR cns2_2328
ENCODING 41314
SWIDTH 854 0
DWIDTH 16 0
BBX 16 18 0 -2
BITMAP
0000
0820
0810
0810
13FF
1010
2020
3042
5184
5068
1010
1020
1048
1084
111E
13E2
1100
0000
ENDCHAR

STARTCHAR ccdc_A163
ENCODING 41315
SWIDTH 854 0
DWIDTH 16 0
BBX 16 18 0 -2
BITMAP
0000
0800
0BFE
0A02
1202
1202
2202
3202
53FE
5252
1050
1090
1090
1110
1111
1211
1C1F
0000
ENDCHAR

STARTCHAR cns3_244B
ENCODING 41316
SWIDTH 854 0
DWIDTH 16 0
BBX 16 18 0 -2
BITMAP
0000
0484
0484
0884
0884
13FF
1084
3084
5084
1084
10FC
1084
1084
1084
1084
10FC
1084
0000
ENDCHAR

STARTCHAR ccdc_A165
ENCODING 41317
SWIDTH 854 0
DWIDTH 16 0
BBX 16 18 0 -2
BITMAP
0000
0800
0BFF
0820
1020
1040
2040
3040
5080
51FE
1282
1482
1082
1082
1082
10FE
1082
0000
ENDCHAR

STARTCHAR cns2_232A
ENCODING 41318
SWIDTH 854 0
DWIDTH 16 0
BBX 16 18 0 -2
BITMAP
0000
0800
0BFC
0A04
1204
1204
2204
3204
5204
5204
13FC
1204
1090
1108
1204
1402
1801
0000
ENDCHAR

STARTCHAR cns3_244C
ENCODING 41319
SWIDTH 854 0
DWIDTH 16 0
BBX 16 18 0 -2
BITMAP
0000
0000
05FF
0421
0821
0841
1041
1881
290E
2800
49FF
0901
0901
0901
0901
09FF
0901
0000
ENDCHAR

STARTCHAR cns2_2329
ENCODING 41320
SWIDTH 854 0
DWIDTH 16 0
BBX 16 18 0 -2
BITMAP
0000
0A24
0A24
0A24
1224
1224
2FFF
3224
5224
5224
1224
123C
1224
1200
1200
13FE
1200
0000
ENDCHAR

STARTCHAR ccdc_A169
ENCODING 41321
SWIDTH 854 0
DWIDTH 16 0
BBX 16 18 0 -2
BITMAP
0000
0840
0840
0880
1104
121E
27E9
3088
5088
5088
17FF
1088
1088
1088
1108
1108
1608
0000
ENDCHAR

STARTCHAR cns3_244F
ENCODING 41322
SWIDTH 854 0
DWIDTH 16 0
BBX 16 18 0 -2
BITMAP
0000
0000
0BFF
0A49
1249
1249
2249
3249
5249
1289
1287
1301
1201
1201
1201
13FF
1201
0000
ENDCHAR

STARTCHAR cns2_227A
ENCODING 41323
SWIDTH 854 0
DWIDTH 16 0
BBX 16 18 0 -2
BITMAP
0000
0800
0840
0820
1010
1002
2042
3044
5244
5248
1248
1252
1461
14C1
1145
1644
187C
0000
ENDCHAR

STARTCHAR cns2_227C
ENCODING 41324
SWIDTH 854 0
DWIDTH 16 0
BBX 16 18 0 -2
BITMAP
0000
0BFF
0A00
0A00
1200
1200
23FE
3202
5202
5202
13FE
1200
1200
1200
1200
13FF
1200
0000
ENDCHAR

STARTCHAR cns2_227D
ENCODING 41325
SWIDTH 854 0
DWIDTH 16 0
BBX 16 18 0 -2
BITMAP
0000
0820
0820
0820
13FE
1020
2020
3020
5020
57FF
1040
1040
1088
1084
113E
17C1
1001
0000
ENDCHAR

STARTCHAR cns2_227E
ENCODING 41326
SWIDTH 854 0
DWIDTH 16 0
BBX 16 18 0 -2
BITMAP
0000
0420
0820
0820
1020
17FF
3020
3060
5070
10A8
1124
1222
1421
11FC
1020
1020
1020
0000
ENDCHAR

STARTCHAR cns2_2321
ENCODING 41327
SWIDTH 854 0
DWIDTH 16 0
BBX 16 18 0 -2
BITMAP
0000
0800
0BFF
0880
1080
1080
20FC
3084
5084
50A4
1114
1114
1104
1104
113C
11C5
1607
0000
ENDCHAR

STARTCHAR cns2_232B
ENCODING 41328
SWIDTH 854 0
DWIDTH 16 0
BBX 16 18 0 -2
BITMAP
0000
0420
0460
0850
08D0
1088
2188
3104
5302
1201
1420
1020
1222
1222
1222
13FE
1202
0000
ENDCHAR

STARTCHAR cns2_2323
ENCODING 41329
SWIDTH 854 0
DWIDTH 16 0
BBX 16 18 0 -2
BITMAP
0000
0840
0840
0840
107C
1040
2040
37FF
5040
5040
1060
1050
1048
1044
1040
1040
1040
0000
ENDCHAR

STARTCHAR cns2_2324
ENCODING 41330
SWIDTH 854 0
DWIDTH 16 0
BBX 16 18 0 -2
BITMAP
0000
0820
0820
0820
13FE
1222
2222
3222
5222
57FF
1040
1040
10A0
1090
1108
1204
1C03
0000
ENDCHAR

STARTCHAR cns2_2326
ENCODING 41331
SWIDTH 854 0
DWIDTH 16 0
BBX 16 18 0 -2
BITMAP
0000
0820
0840
0840
1084
1082
211E
37E1
5001
5000
13FE
1202
1202
1202
1202
13FE
1202
0000
ENDCHAR

STARTCHAR cns1_486F
ENCODING 41332
SWIDTH 854 0
DWIDTH 16 0
BBX 16 18 0 -2
BITMAP
0000
0820
0820
0820
13FF
1201
2201
3000
53FF
5010
1010
1010
1010
1010
1010
1010
1070
0000
ENDCHAR

STARTCHAR cns1_4928
ENCODING 41333
SWIDTH 854 0
DWIDTH 16 0
BBX 16 18 0 -2
BITMAP
0000
0880
0880
0900
11FE
1202
2402
31F2
5112
5112
1112
11F2
1112
1002
1002
1004
1018
0000
ENDCHAR

STARTCHAR cns2_2322
ENCODING 41334
SWIDTH 854 0
DWIDTH 16 0
BBX 16 18 0 -2
BITMAP
0000
0000
0400
0BFF
0810
1010
2020
3040
5060
10A8
1128
1224
1422
1020
1020
17FF
1000
0000
ENDCHAR

STARTCHAR cns1_4921
ENCODING 41335
SWIDTH 854 0
DWIDTH 16 0
BBX 16 18 0 -2
BITMAP
0000
05FF
0911
0911
1111
11FF
3111
3111
5111
11FF
1111
1111
1111
1111
1111
1211
1217
0000
ENDCHAR

STARTCHAR cns2_2534
ENCODING 41336
SWIDTH 854 0
DWIDTH 16 0
BBX 16 18 0 -2
BITMAP
0000
0820
0820
0820
13FF
1040
2288
3108
5090
5052
1024
1048
1090
1328
1044
1182
1602
0000
ENDCHAR

STARTCHAR cns2_2536
ENCODING 41337
SWIDTH 854 0
DWIDTH 16 0
BBX 16 18 0 -2
BITMAP
0000
0801
0BF1
0921
1121
1125
2125
3125
57F5
5125
1125
1125
1125
1125
1121
1221
1426
0000
ENDCHAR

STARTCHAR cns2_2539
ENCODING 41338
SWIDTH 854 0
DWIDTH 16 0
BBX 16 18 0 -2
BITMAP
0000
0800
0BFF
0904
1104
1104
21FC
3104
5104
5104
11FC
1104
1104
113F
13C4
1004
1004
0000
ENDCHAR

STARTCHAR cns2_253B
ENCODING 41339
SWIDTH 854 0
DWIDTH 16 0
BBX 16 18 0 -2
BITMAP
0000
0800
0BFE
0820
1020
1044
209E
33E2
5120
5020
1020
13FE
1020
1020
1020
17FF
1000
0000
ENDCHAR

STARTCHAR cns2_253C
ENCODING 41340
SWIDTH 854 0
DWIDTH 16 0
BBX 16 18 0 -2
BITMAP
0000
0800
0BFC
0A04
1204
13FC
2204
3204
53FC
5220
1223
122C
1210
1208
12C4
1302
1C01
0000
ENDCHAR

STARTCHAR cns2_253D
ENCODING 41341
SWIDTH 854 0
DWIDTH 16 0
BBX 16 18 0 -2
BITMAP
0000
0800
0888
0888
1088
1288
2288
328A
52EF
5288
1288
1288
1288
1288
1289
12E9
170F
0000
ENDCHAR

STARTCHAR cns2_2540
ENCODING 41342
SWIDTH 854 0
DWIDTH 16 0
BBX 16 18 0 -2
BITMAP
0000
0880
0880
0900
11FF
1201
2401
31F9
5109
5109
11F9
1109
1109
11F9
1001
1001
100E
0000
ENDCHAR

STARTCHAR ccdc_A1A1
ENCODING 41377
SWIDTH 854 0
DWIDTH 16 0
BBX 16 18 0 -2
BITMAP
0000
0000
0000
0000
0000
0000
0000
0000
0000
0000
0000
0000
0000
0000
0000
0000
0000
0000
ENDCHAR

STARTCHAR cns1_4421
ENCODING 41378
SWIDTH 854 0
DWIDTH 16 0
BBX 16 18 0 -2
BITMAP
0000
0000
0000
0000
0000
0000
0000
0000
7FFF
0000
0000
0000
0000
0000
0000
0000
0000
0000
ENDCHAR

STARTCHAR cns1_4423
ENCODING 41379
SWIDTH 854 0
DWIDTH 16 0
BBX 16 18 0 -2
BITMAP
0000
0000
7FFF
0040
0040
0040
0040
0040
0040
0040
0040
0040
0040
0040
0040
0040
0380
0000
ENDCHAR

STARTCHAR cns1_4424
ENCODING 41380
SWIDTH 854 0
DWIDTH 16 0
BBX 16 18 0 -2
BITMAP
0000
0400
0400
0400
0400
0400
7FFF
0400
0400
0400
0400
0400
0400
0402
0402
03FE
0000
0000
ENDCHAR

STARTCHAR cns1_4437
ENCODING 41381
SWIDTH 854 0
DWIDTH 16 0
BBX 16 18 0 -2
BITMAP
0000
0040
0040
0040
7FFF
0040
0040
0840
0840
0440
0480
0280
0100
0280
0460
1818
6007
0000
ENDCHAR

STARTCHAR cns1_4435
ENCODING 41382
SWIDTH 854 0
DWIDTH 16 0
BBX 16 18 0 -2
BITMAP
0000
0000
0000
1FFC
0000
0000
0000
0000
0FF8
0000
0000
0000
0000
0000
7FFF
0000
0000
0000
ENDCHAR

STARTCHAR cns1_4438
ENCODING 41383
SWIDTH 854 0
DWIDTH 16 0
BBX 16 18 0 -2
BITMAP
0000
0100
0100
0100
0100
0100
0100
01FC
0100
0100
0100
0100
0100
0100
0100
7FFF
0000
0000
ENDCHAR

STARTCHAR cns1_4436
ENCODING 41384
SWIDTH 854 0
DWIDTH 16 0
BBX 16 18 0 -2
BITMAP
0000
0000
7FFF
0080
0080
0080
0080
00E0
0090
0088
0084
0080
0080
0080
0080
0080
0080
0000
ENDCHAR

STARTCHAR cns1_4462
ENCODING 41385
SWIDTH 854 0
DWIDTH 16 0
BBX 16 18 0 -2
BITMAP
0000
0000
7FFF
0040
0080
0180
0180
0290
0488
0884
3082
4082
0080
0080
0080
0080
0080
0000
ENDCHAR

STARTCHAR cns1_4461
ENCODING 41386
SWIDTH 854 0
DWIDTH 16 0
BBX 16 18 0 -2
BITMAP
0000
0000
7FFF
0080
0080
1080
10FC
1080
1080
1080
1FFE
1002
1002
0002
0002
0004
0018
0000
ENDCHAR

STARTCHAR cns1_4460
ENCODING 41387
SWIDTH 854 0
DWIDTH 16 0
BBX 16 18 0 -2
BITMAP
0000
0000
3FF8
0108
0108
0208
0208
0208
7FFF
0208
0208
0210
0410
0410
0410
7FFE
0000
0000
ENDCHAR

STARTCHAR cns1_4562
ENCODING 41388
SWIDTH 854 0
DWIDTH 16 0
BBX 16 18 0 -2
BITMAP
0000
0000
0FF8
0808
0808
0808
0FF8
0808
0808
0808
0FF8
0808
0808
0808
0808
7FFF
0000
0000
ENDCHAR

STARTCHAR cns1_4561
ENCODING 41389
SWIDTH 854 0
DWIDTH 16 0
BBX 16 18 0 -2
BITMAP
0000
0000
7FFF
0020
0040
0080
0120
0190
0288
0484
0882
3082
0080
0080
0080
0000
7FFF
0000
ENDCHAR

STARTCHAR cns1_4560
ENCODING 41390
SWIDTH 854 0
DWIDTH 16 0
BBX 16 18 0 -2
BITMAP
0000
1084
1084
1084
1084
7FFF
1084
1084
1084
1084
1084
10FC
1000
1000
1000
0FFF
0000
0000
ENDCHAR

STARTCHAR cns1_455F
ENCODING 41391
SWIDTH 854 0
DWIDTH 16 0
BBX 16 18 0 -2
BITMAP
0000
0000
7FFF
0080
0080
3FFE
2082
2082
2142
2222
2212
240A
280A
3002
2002
2002
2006
0000
ENDCHAR

STARTCHAR cns1_4722
ENCODING 41392
SWIDTH 854 0
DWIDTH 16 0
BBX 16 18 0 -2
BITMAP
0000
0000
1FFC
0008
0010
00A0
7EC2
02A4
04A8
0490
0888
1084
6083
0380
0000
0000
3FFE
0000
ENDCHAR

STARTCHAR cns1_4723
ENCODING 41393
SWIDTH 854 0
DWIDTH 16 0
BBX 16 18 0 -2
BITMAP
0000
0038
0FC0
0080
0080
0080
1FFC
0080
0080
0080
7FFF
0100
0200
0200
0404
083E
3FC1
0000
ENDCHAR

STARTCHAR cns1_4B64
ENCODING 41394
SWIDTH 854 0
DWIDTH 16 0
BBX 16 18 0 -2
BITMAP
0000
1004
0808
0410
3FFE
0220
0220
0220
0222
2222
1224
1224
0A28
0A28
0220
0220
7FFF
0000
ENDCHAR

STARTCHAR cns1_2722
ENCODING 41396
SWIDTH 854 0
DWIDTH 16 0
BBX 16 18 0 -2
BITMAP
0000
0100
0100
0100
0100
0100
0100
0100
0100
0100
0100
0100
0100
0100
0100
0100
0100
0000
ENDCHAR

STARTCHAR cns3_212C
ENCODING 41397
SWIDTH 854 0
DWIDTH 16 0
BBX 16 18 0 -2
BITMAP
0000
0000
0080
0080
0140
0220
0410
0888
3086
0080
0080
0080
0080
0080
0080
0080
0080
0000
ENDCHAR

STARTCHAR cns1_4439
ENCODING 41398
SWIDTH 854 0
DWIDTH 16 0
BBX 16 18 0 -2
BITMAP
0000
1001
0802
0404
0208
0110
00A0
0040
0040
0040
0040
0040
0040
0040
0040
0040
0040
0000
ENDCHAR

STARTCHAR cns1_4463
ENCODING 41399
SWIDTH 854 0
DWIDTH 16 0
BBX 16 18 0 -2
BITMAP
0000
0080
0080
0080
3FFE
2082
2082
2082
2082
2082
2082
3FFE
2082
0080
0080
0080
0080
0000
ENDCHAR

STARTCHAR cns1_4464
ENCODING 41400
SWIDTH 854 0
DWIDTH 16 0
BBX 16 18 0 -2
BITMAP
0000
0080
00FC
0F80
0080
0080
0080
3FFE
0080
0080
0080
7FFF
0080
0080
0080
0080
0080
0000
ENDCHAR

STARTCHAR cns2_2143
ENCODING 41401
SWIDTH 854 0
DWIDTH 16 0
BBX 16 18 0 -2
BITMAP
0000
0220
0220
0220
2222
2222
2222
2222
2222
2222
3E3E
2222
0422
0420
0820
1020
2020
0000
ENDCHAR

STARTCHAR cns1_486B
ENCODING 41402
SWIDTH 854 0
DWIDTH 16 0
BBX 16 18 0 -2
BITMAP
0000
0080
0080
3FFE
2082
2082
3FFE
0080
0080
7FFF
4081
4081
4081
7FFF
0080
0080
0080
0000
ENDCHAR

STARTCHAR cns1_2723
ENCODING 41404
SWIDTH 854 0
DWIDTH 16 0
BBX 16 18 0 -2
BITMAP
0000
0000
0000
0000
0000
0000
0200
0300
0180
00C0
00C0
0040
0000
0000
0000
0000
0000
0000
ENDCHAR

STARTCHAR cns1_443A
ENCODING 41406
SWIDTH 854 0
DWIDTH 16 0
BBX 16 18 0 -2
BITMAP
0000
0200
0200
0200
7FF0
0210
0210
1210
0A10
0410
0410
0610
0911
0891
1011
2011
400F
0000
ENDCHAR

STARTCHAR cns1_4465
ENCODING 41407
SWIDTH 854 0
DWIDTH 16 0
BBX 16 18 0 -2
BITMAP
0000
0000
0FF8
0808
0908
0888
0848
0848
0808
7FFF
0808
0808
0808
1008
1008
2008
4018
0000
ENDCHAR

STARTCHAR cns1_4564
ENCODING 41408
SWIDTH 854 0
DWIDTH 16 0
BBX 16 18 0 -2
BITMAP
0000
0100
0080
0040
0040
3FFE
0080
0080
0080
0080
1FFC
0080
0080
0080
0080
7FFF
0000
0000
ENDCHAR

STARTCHAR cns1_2724
ENCODING 41410
SWIDTH 854 0
DWIDTH 16 0
BBX 16 18 0 -2
BITMAP
0000
0080
0080
0080
0080
0080
0080
0080
0100
0100
0100
0100
0100
0100
0200
0200
0400
0000
ENDCHAR

STARTCHAR cns2_2121
ENCODING 41411
SWIDTH 854 0
DWIDTH 16 0
BBX 16 18 0 -2
BITMAP
0000
0004
0004
0804
0408
0208
0110
00A0
0040
00A0
0110
0208
0404
0803
1000
2000
0000
0000
ENDCHAR

STARTCHAR cns1_4425
ENCODING 41412
SWIDTH 854 0
DWIDTH 16 0
BBX 16 18 0 -2
BITMAP
0000
0000
3FF8
0210
0210
0220
0220
023E
0242
0402
0402
0402
0802
0804
1004
2008
4070
0000
ENDCHAR

STARTCHAR cns1_443C
ENCODING 41413
SWIDTH 854 0
DWIDTH 16 0
BBX 16 18 0 -2
BITMAP
0000
0100
0100
0100
03F8
0208
0408
0810
1010
2020
0020
0060
0090
0108
0604
1802
6001
0000
ENDCHAR

STARTCHAR cns1_4466
ENCODING 41414
SWIDTH 854 0
DWIDTH 16 0
BBX 16 18 0 -2
BITMAP
0000
0080
0080
0080
3FFC
0008
0008
0010
0020
0040
0080
0100
0A00
0C00
1200
2180
407F
0000
ENDCHAR

STARTCHAR cns1_4565
ENCODING 41415
SWIDTH 854 0
DWIDTH 16 0
BBX 16 18 0 -2
BITMAP
0000
0400
0400
0800
0FFF
1080
2080
4080
00FC
0080
0080
0080
00FE
0080
0080
0080
0080
0000
ENDCHAR

STARTCHAR cns1_4567
ENCODING 41416
SWIDTH 854 0
DWIDTH 16 0
BBX 16 18 0 -2
BITMAP
0000
001C
3FE0
0080
0080
1088
0890
04A0
0080
7FFF
0080
0080
0080
0080
0080
0080
0700
0000
ENDCHAR

STARTCHAR cns1_4566
ENCODING 41417
SWIDTH 854 0
DWIDTH 16 0
BBX 16 18 0 -2
BITMAP
0000
000C
3FF0
0080
0080
0080
1FFC
0008
0010
0020
0040
0080
1100
1A00
1400
2200
41FF
0000
ENDCHAR

STARTCHAR cns1_4B65
ENCODING 41418
SWIDTH 854 0
DWIDTH 16 0
BBX 16 18 0 -2
BITMAP
0000
007C
7F80
0080
0080
7FFF
0080
0490
0494
3C9E
0490
0490
0491
1C91
649F
0080
0080
0000
ENDCHAR

STARTCHAR cns1_537D
ENCODING 41419
SWIDTH 854 0
DWIDTH 16 0
BBX 16 18 0 -2
BITMAP
0000
007C
3F80
0080
7FFF
0080
0490
3C9E
0490
0C91
359F
01C0
02A0
0490
188C
6083
0080
0000
ENDCHAR

STARTCHAR cns1_4422
ENCODING 41421
SWIDTH 854 0
DWIDTH 16 0
BBX 16 18 0 -2
BITMAP
0000
0000
3FFC
0008
0008
0010
0060
0080
0300
0400
0800
1000
2000
2002
1002
0FFE
0000
0000
ENDCHAR

STARTCHAR cns2_2122
ENCODING 41422
SWIDTH 854 0
DWIDTH 16 0
BBX 16 18 0 -2
BITMAP
0000
0800
0800
0800
0800
081E
0BE2
7C02
0802
0802
0802
080C
0800
0800
0800
0801
0FFF
0000
ENDCHAR

STARTCHAR cns1_4426
ENCODING 41423
SWIDTH 854 0
DWIDTH 16 0
BBX 16 18 0 -2
BITMAP
0000
0200
0200
0200
0200
7FF0
0210
0210
0210
0210
0210
0410
0410
0810
0811
1011
601F
0000
ENDCHAR

STARTCHAR cns1_443F
ENCODING 41424
SWIDTH 854 0
DWIDTH 16 0
BBX 16 18 0 -2
BITMAP
0000
0400
0800
0800
1FFE
2000
4000
1FF0
0020
00C0
0300
0C00
1000
2001
1001
0FFE
0000
0000
ENDCHAR

STARTCHAR cns1_443E
ENCODING 41425
SWIDTH 854 0
DWIDTH 16 0
BBX 16 18 0 -2
BITMAP
0000
0040
0840
0840
0840
0840
085E
0BE2
7C42
0842
0842
0842
084C
0840
0800
0801
07FF
0000
ENDCHAR

STARTCHAR cns1_4726
ENCODING 41426
SWIDTH 854 0
DWIDTH 16 0
BBX 16 18 0 -2
BITMAP
0000
0820
0820
0820
0F20
0820
0820
0820
7F20
4120
4120
4120
4120
4120
4121
7F21
411F
0000
ENDCHAR

STARTCHAR cns1_4B66
ENCODING 41427
SWIDTH 854 0
DWIDTH 16 0
BBX 16 18 0 -2
BITMAP
0000
01A0
3E20
0020
24A0
14A0
1520
0020
3FA0
0120
0220
0420
7FA0
0421
0421
0421
0C3F
0000
ENDCHAR

STARTCHAR cns1_5871
ENCODING 41428
SWIDTH 854 0
DWIDTH 16 0
BBX 16 18 0 -2
BITMAP
0000
0810
0810
7F20
083F
3F40
2100
213E
3F02
2104
2108
3F10
0820
7F40
0841
0841
083F
0000
ENDCHAR

STARTCHAR cns1_632A
ENCODING 41429
SWIDTH 854 0
DWIDTH 16 0
BBX 16 18 0 -2
BITMAP
0000
0700
3C90
6910
2510
7F10
1210
0C10
7F90
4890
5E90
4090
5E90
4A90
4491
5A91
418F
0000
ENDCHAR

STARTCHAR ccdc_A1D6
ENCODING 41430
SWIDTH 854 0
DWIDTH 16 0
BBX 16 18 0 -2
BITMAP
0000
0010
7F10
0210
0211
0412
05D4
0858
0854
1094
1092
2112
2211
4050
4031
2001
1FFF
0000
ENDCHAR

STARTCHAR cns1_2726
ENCODING 41431
SWIDTH 854 0
DWIDTH 16 0
BBX 16 18 0 -2
BITMAP
0000
0080
0080
0080
0080
0080
0080
0080
0080
0080
0080
0080
0080
0080
0080
0880
0700
0000
ENDCHAR

STARTCHAR cns1_4427
ENCODING 41432
SWIDTH 854 0
DWIDTH 16 0
BBX 16 18 0 -2
BITMAP
0000
0000
3FFE
0004
0008
0010
0020
00C0
0040
0040
0040
0040
0040
0040
0040
0240
01C0
0000
ENDCHAR

STARTCHAR cns1_4468
ENCODING 41433
SWIDTH 854 0
DWIDTH 16 0
BBX 16 18 0 -2
BITMAP
0000
0000
1FFC
0008
0610
0120
00C0
0020
7FFF
0041
0042
0044
0040
0040
0040
0040
01C0
0000
ENDCHAR

STARTCHAR cns1_4B67
ENCODING 41434
SWIDTH 854 0
DWIDTH 16 0
BBX 16 18 0 -2
BITMAP
0000
0080
0080
7FFF
0080
1FFC
1084
1FFC
0080
3FFE
0082
7FFF
0082
3FFE
0080
0080
0180
0000
ENDCHAR

STARTCHAR cns1_4428
ENCODING 41436
SWIDTH 854 0
DWIDTH 16 0
BBX 16 18 0 -2
BITMAP
0000
0000
0000
0000
1FFC
0000
0000
0000
0000
0000
0000
0000
0000
7FFF
0000
0000
0000
0000
ENDCHAR

STARTCHAR cns1_4440
ENCODING 41437
SWIDTH 854 0
DWIDTH 16 0
BBX 16 18 0 -2
BITMAP
0000
0000
3FFE
0080
0080
0080
0080
7FFF
0080
0080
0080
0080
0080
0080
0080
0080
0380
0000
ENDCHAR

STARTCHAR cns1_4469
ENCODING 41438
SWIDTH 854 0
DWIDTH 16 0
BBX 16 18 0 -2
BITMAP
0000
0000
1FFC
0000
0000
0000
0000
7FFF
0100
0100
0210
0208
0404
047C
3F82
0002
0000
0000
ENDCHAR

STARTCHAR cns1_446B
ENCODING 41439
SWIDTH 854 0
DWIDTH 16 0
BBX 16 18 0 -2
BITMAP
0000
0000
3FFE
0200
0200
0200
03F8
0208
0408
0408
0408
07F8
0410
0010
0010
0010
7FFF
0000
ENDCHAR

STARTCHAR cns1_446C
ENCODING 41440
SWIDTH 854 0
DWIDTH 16 0
BBX 16 18 0 -2
BITMAP
0000
0000
0000
3FFE
0080
0080
0080
0080
1FFC
0104
0104
0104
0104
0204
0204
7FFF
0000
0000
ENDCHAR

STARTCHAR cns1_446A
ENCODING 41441
SWIDTH 854 0
DWIDTH 16 0
BBX 16 18 0 -2
BITMAP
0000
0410
0410
0410
0410
3FFE
0410
0410
0410
0410
7FFF
0410
0410
0810
0810
1010
2010
0000
ENDCHAR

STARTCHAR cns1_4727
ENCODING 41442
SWIDTH 854 0
DWIDTH 16 0
BBX 16 18 0 -2
BITMAP
0000
0000
3FFE
0200
0200
03F8
0408
0408
0588
0448
0808
0B10
08D0
0010
0010
7FFF
0000
0000
ENDCHAR

STARTCHAR cns3_2441
ENCODING 41443
SWIDTH 854 0
DWIDTH 16 0
BBX 16 18 0 -2
BITMAP
0000
0000
01FC
0104
0104
7D04
0104
01FC
0154
7C50
0050
0090
0090
0110
0111
0211
040E
0000
ENDCHAR

STARTCHAR cns1_4B68
ENCODING 41444
SWIDTH 854 0
DWIDTH 16 0
BBX 16 18 0 -2
BITMAP
0000
0420
0420
2424
27BE
2420
2420
2420
27A1
783F
0000
0000
0FF8
0000
0000
0000
7FFF
0000
ENDCHAR

STARTCHAR cns1_4B69
ENCODING 41445
SWIDTH 854 0
DWIDTH 16 0
BBX 16 18 0 -2
BITMAP
0000
0000
3FFE
0220
0220
0220
3E3E
2222
2002
2002
2002
3E3E
2222
0220
0220
0220
7FFF
0000
ENDCHAR

STARTCHAR cns1_4F67
ENCODING 41446
SWIDTH 854 0
DWIDTH 16 0
BBX 16 18 0 -2
BITMAP
0000
0000
3FFE
0200
0200
0400
07C0
005F
3C42
244A
2444
2444
3C4A
2451
01C0
0000
7FFF
0000
ENDCHAR

STARTCHAR cns1_2728
ENCODING 41448
SWIDTH 854 0
DWIDTH 16 0
BBX 16 18 0 -2
BITMAP
0000
0000
0000
0080
0080
0080
7FFF
0000
0000
0000
0000
0000
0000
0000
0000
0000
0000
0000
ENDCHAR

STARTCHAR cns1_4441
ENCODING 41449
SWIDTH 854 0
DWIDTH 16 0
BBX 16 18 0 -2
BITMAP
0000
0080
0080
0080
7FFF
1000
1000
1000
1000
1000
1000
1000
1000
1000
1000
1000
0FFE
0000
ENDCHAR

STARTCHAR cns1_446D
ENCODING 41450
SWIDTH 854 0
DWIDTH 16 0
BBX 16 18 0 -2
BITMAP
0000
0080
0080
7FFF
0000
0000
07E0
0420
0420
0420
0420
0420
0820
0820
1021
2021
403F
0000
ENDCHAR

STARTCHAR cns1_4728
ENCODING 41451
SWIDTH 854 0
DWIDTH 16 0
BBX 16 18 0 -2
BITMAP
0000
0080
0080
7FFF
0000
0410
0808
1004
2412
4222
0140
0080
0140
0220
0410
180C
6003
0000
ENDCHAR

STARTCHAR cns1_472A
ENCODING 41452
SWIDTH 854 0
DWIDTH 16 0
BBX 16 18 0 -2
BITMAP
0000
0080
0080
7FFF
0000
0100
1210
0C20
0244
0188
0210
0C20
3040
00A0
0318
0C04
7002
0000
ENDCHAR

STARTCHAR cns1_4729
ENCODING 41453
SWIDTH 854 0
DWIDTH 16 0
BBX 16 18 0 -2
BITMAP
0000
0080
0080
0080
7FFF
0020
0220
1228
1224
1224
2222
2222
4421
0421
0820
1020
60E0
0000
ENDCHAR

STARTCHAR cns1_486C
ENCODING 41454
SWIDTH 854 0
DWIDTH 16 0
BBX 16 18 0 -2
BITMAP
0000
0080
7FFF
0000
1FF8
1008
1008
1FF8
0000
3FFC
0008
0130
00C0
0080
0080
0080
0380
0000
ENDCHAR

STARTCHAR cns1_4B6A
ENCODING 41455
SWIDTH 854 0
DWIDTH 16 0
BBX 16 18 0 -2
BITMAP
0000
0080
7FFF
0000
1FF8
1008
1008
1FF8
0000
3FFC
0018
0060
0080
7FFF
0080
0080
0380
0000
ENDCHAR

STARTCHAR cns1_4B6B
ENCODING 41456
SWIDTH 854 0
DWIDTH 16 0
BBX 16 18 0 -2
BITMAP
0000
0080
0080
7FFF
0000
0000
0FF8
0808
0808
0808
0FF8
0080
0490
0888
1084
6082
0180
0000
ENDCHAR

STARTCHAR cns1_4F68
ENCODING 41457
SWIDTH 854 0
DWIDTH 16 0
BBX 16 18 0 -2
BITMAP
0000
0080
7FFF
0000
1FFC
1004
1004
1FFC
0000
7FFF
4001
5FFD
4081
0080
0080
0080
0180
0000
ENDCHAR

STARTCHAR cns1_4F69
ENCODING 41458
SWIDTH 854 0
DWIDTH 16 0
BBX 16 18 0 -2
BITMAP
0000
0080
0080
7FFF
0000
1FFC
1004
1FFC
0000
7FFF
4241
4242
0240
0440
0440
0841
303F
0000
ENDCHAR

STARTCHAR cns1_537E
ENCODING 41459
SWIDTH 854 0
DWIDTH 16 0
BBX 16 18 0 -2
BITMAP
0000
0080
3FFE
0000
0FF8
0808
0FF8
0000
3FFE
2002
2FF2
0100
0100
7FFE
0100
0101
01FF
0000
ENDCHAR

STARTCHAR cns2_4158
ENCODING 41460
SWIDTH 854 0
DWIDTH 16 0
BBX 16 18 0 -2
BITMAP
0000
0080
7FFF
0000
1FFC
1224
13E4
1004
1FFC
0000
0FF8
0808
0FF8
0808
0FF8
0000
7FFF
0000
ENDCHAR

STARTCHAR cns2_6D44
ENCODING 41461
SWIDTH 854 0
DWIDTH 16 0
BBX 16 18 0 -2
BITMAP
0000
0080
7FFF
0400
3BEE
2222
2AEA
2AAA
22A2
7FFF
4001
07F0
0410
0790
04F0
0410
1FFC
0000
ENDCHAR

STARTCHAR cns1_4429
ENCODING 41463
SWIDTH 854 0
DWIDTH 16 0
BBX 16 18 0 -2
BITMAP
0000
0000
0040
0040
0040
0080
0080
0080
0140
0140
0220
0220
0410
0808
1004
2002
4001
0000
ENDCHAR

STARTCHAR cns1_446F
ENCODING 41464
SWIDTH 854 0
DWIDTH 16 0
BBX 16 18 0 -2
BITMAP
0000
0810
0810
0810
1010
1010
1810
2BFF
2810
4810
4810
0810
0810
0810
0810
0810
0810
0000
ENDCHAR

STARTCHAR cns1_446E
ENCODING 41465
SWIDTH 854 0
DWIDTH 16 0
BBX 16 18 0 -2
BITMAP
0000
0200
0400
0400
09FE
0800
1800
1800
2800
4800
0800
0800
0800
0800
0BFF
0800
0800
0000
ENDCHAR

STARTCHAR cns1_4470
ENCODING 41466
SWIDTH 854 0
DWIDTH 16 0
BBX 16 18 0 -2
BITMAP
0000
0400
0BFF
0810
1010
1010
3010
3010
5010
1010
1010
1010
1010
1010
1010
1010
1070
0000
ENDCHAR

STARTCHAR cns1_4476
ENCODING 41467
SWIDTH 854 0
DWIDTH 16 0
BBX 16 18 0 -2
BITMAP
0000
0000
3FFF
2000
2040
2040
2040
2040
20A0
20A0
20A0
2110
2110
2208
2404
4802
5001
0000
ENDCHAR

STARTCHAR cns1_4471
ENCODING 41468
SWIDTH 854 0
DWIDTH 16 0
BBX 16 18 0 -2
BITMAP
0000
0420
0420
0820
0820
1020
1830
2828
2824
4822
0821
0820
0820
0820
0820
0820
0820
0000
ENDCHAR

STARTCHAR cns1_4472
ENCODING 41469
SWIDTH 854 0
DWIDTH 16 0
BBX 16 18 0 -2
BITMAP
0000
0240
0440
0440
0840
0BFC
1844
1844
2844
2844
4844
0884
0884
0884
0904
0905
0A07
0000
ENDCHAR

STARTCHAR cns1_4474
ENCODING 41470
SWIDTH 854 0
DWIDTH 16 0
BBX 16 18 0 -2
BITMAP
0000
0080
0140
0220
0410
0808
1004
67F3
0000
0000
3FFC
0004
0008
0008
0010
0020
01C0
0000
ENDCHAR

STARTCHAR cns2_2541
ENCODING 41505
SWIDTH 854 0
DWIDTH 16 0
BBX 16 18 0 -2
BITMAP
0000
0840
087C
0884
1108
13FF
2200
3200
52FE
5282
1282
1282
128E
1280
1480
1481
10FF
0000
ENDCHAR

STARTCHAR cns2_2542
ENCODING 41506
SWIDTH 854 0
DWIDTH 16 0
BBX 16 18 0 -2
BITMAP
0000
0820
0A20
0A20
13FE
1420
2020
3020
57FF
5050
1050
1050
1090
1090
1110
1211
141F
0000
ENDCHAR

STARTCHAR cns2_2544
ENCODING 41507
SWIDTH 854 0
DWIDTH 16 0
BBX 16 18 0 -2
BITMAP
0000
0820
0820
0840
1040
13FC
2294
3294
5294
5294
1294
1294
1294
1294
1294
1FFF
1000
0000
ENDCHAR

STARTCHAR cns2_2547
ENCODING 41508
SWIDTH 854 0
DWIDTH 16 0
BBX 16 18 0 -2
BITMAP
0000
0900
0900
0900
111F
17D1
2251
3251
5251
5451
1451
1351
1091
1151
1151
121F
1C11
0000
ENDCHAR

STARTCHAR cns2_2537
ENCODING 41509
SWIDTH 854 0
DWIDTH 16 0
BBX 16 18 0 -2
BITMAP
0000
0840
0840
17FE
1040
17FC
2044
37FC
5444
5440
17FE
1442
10A2
1096
1108
1204
1C03
0000
ENDCHAR

STARTCHAR cns2_2548
ENCODING 41510
SWIDTH 854 0
DWIDTH 16 0
BBX 16 18 0 -2
BITMAP
0000
0820
0820
0820
13FE
1202
2222
3020
5040
57FF
1088
1088
1148
1030
1018
1064
1382
0000
ENDCHAR

STARTCHAR cns2_254A
ENCODING 41511
SWIDTH 854 0
DWIDTH 16 0
BBX 16 18 0 -2
BITMAP
0000
0800
0BFF
0820
1020
1040
27FE
3492
5492
5492
1492
1492
1492
1492
1492
1492
1402
0000
ENDCHAR

STARTCHAR cns3_2744
ENCODING 41512
SWIDTH 854 0
DWIDTH 16 0
BBX 16 18 0 -2
BITMAP
0000
0000
0420
0422
0522
0924
08A4
1020
1BFF
2850
4850
0850
0850
0850
0891
0891
0B0F
0000
ENDCHAR

STARTCHAR cns2_254B
ENCODING 41513
SWIDTH 854 0
DWIDTH 16 0
BBX 16 18 0 -2
BITMAP
0000
0840
0840
08FE
1184
1288
2450
3020
5050
508C
1103
17FC
1104
1104
1104
11FC
1104
0000
ENDCHAR

STARTCHAR cns1_4B71
ENCODING 41514
SWIDTH 854 0
DWIDTH 16 0
BBX 16 18 0 -2
BITMAP
0000
0840
0842
0BFA
1044
1048
2050
37FF
5020
5040
1084
11FE
1280
1480
1080
1081
107F
0000
ENDCHAR

STARTCHAR cns2_2532
ENCODING 41515
SWIDTH 854 0
DWIDTH 16 0
BBX 16 18 0 -2
BITMAP
0000
0820
0820
1020
17FF
1401
2038
33C0
5040
5040
105F
17E0
1040
1040
1040
1041
103F
0000
ENDCHAR

STARTCHAR cns2_2533
ENCODING 41516
SWIDTH 854 0
DWIDTH 16 0
BBX 16 18 0 -2
BITMAP
0000
0820
0820
0820
13FF
1000
2088
3104
5202
5488
1088
1050
1020
1050
1088
1104
1603
0000
ENDCHAR

STARTCHAR cns2_253A
ENCODING 41517
SWIDTH 854 0
DWIDTH 16 0
BBX 16 18 0 -2
BITMAP
0000
0820
0820
0BFF
1048
1084
2082
317D
5000
51FF
1020
1040
10FE
1102
1002
1002
101C
0000
ENDCHAR

STARTCHAR cns1_4B76
ENCODING 41518
SWIDTH 854 0
DWIDTH 16 0
BBX 16 18 0 -2
BITMAP
0000
0800
0BFF
0810
1010
1020
21FE
3102
5102
5102
11FE
1102
1102
1102
1102
11FE
1102
0000
ENDCHAR

STARTCHAR cns2_2545
ENCODING 41519
SWIDTH 854 0
DWIDTH 16 0
BBX 16 18 0 -2
BITMAP
0000
0820
0840
08FC
1084
10A4
2094
3094
5084
57FF
1084
10A4
1094
1094
1084
1104
1218
0000
ENDCHAR

STARTCHAR cns3_274A
ENCODING 41520
SWIDTH 854 0
DWIDTH 16 0
BBX 16 18 0 -2
BITMAP
0000
0000
0800
0BFE
1020
11FE
2122
2122
51FE
5122
1122
17FF
1102
1102
1102
1102
110C
0000
ENDCHAR

STARTCHAR ccdc_A231
ENCODING 41521
SWIDTH 854 0
DWIDTH 16 0
BBX 16 18 0 -2
BITMAP
0000
0480
0480
05FF
0910
0A10
1010
10FE
3090
5090
1090
13FF
1010
1010
1010
1010
1010
0000
ENDCHAR

STARTCHAR cns3_274F
ENCODING 41522
SWIDTH 854 0
DWIDTH 16 0
BBX 16 18 0 -2
BITMAP
0000
0000
0210
0210
043F
0442
0882
13C4
1838
2830
48C0
09FF
0A81
0881
0881
08FF
0881
0000
ENDCHAR

STARTCHAR ccdc_A233
ENCODING 41523
SWIDTH 854 0
DWIDTH 16 0
BBX 16 18 0 -2
BITMAP
0000
0880
08FE
0902
1344
1428
2010
306C
5383
5010
13FE
1110
1110
1110
17FF
1010
1010
0000
ENDCHAR

STARTCHAR cns3_2A49
ENCODING 41524
SWIDTH 854 0
DWIDTH 16 0
BBX 16 18 0 -2
BITMAP
0000
0000
0080
01C0
0630
188C
6083
0888
0888
0490
7FFF
02A0
0490
088C
1083
6080
0080
0000
ENDCHAR

STARTCHAR cns3_274C
ENCODING 41525
SWIDTH 854 0
DWIDTH 16 0
BBX 16 18 0 -2
BITMAP
0000
0000
0420
0420
07FF
0820
0840
107E
1882
2914
4A88
0CFF
0888
0888
0888
0888
08B0
0000
ENDCHAR

STARTCHAR ccdc_A236
ENCODING 41526
SWIDTH 854 0
DWIDTH 16 0
BBX 16 18 0 -2
BITMAP
0000
0A00
091F
0884
1004
13C4
1044
309F
5104
1384
1084
1084
1084
110C
1300
14C0
103F
0000
ENDCHAR

STARTCHAR cns3_2B33
ENCODING 41527
SWIDTH 854 0
DWIDTH 16 0
BBX 16 18 0 -2
BITMAP
0000
0000
0820
0824
0822
17FF
1020
23FE
3222
53FE
5222
1222
13FE
1222
1222
1222
1226
0000
ENDCHAR

STARTCHAR cns3_2B34
ENCODING 41528
SWIDTH 854 0
DWIDTH 16 0
BBX 16 18 0 -2
BITMAP
0000
0000
0820
0820
0FFF
1020
13FE
2222
33FE
5222
5222
13FE
1020
17FF
1020
1020
1020
0000
ENDCHAR

STARTCHAR cns3_2B36
ENCODING 41529
SWIDTH 854 0
DWIDTH 16 0
BBX 16 18 0 -2
BITMAP
0000
0000
0F80
0140
0220
0410
1BEC
6003
1F12
0512
0912
0912
3FD2
0A12
1212
1202
7FCC
0000
ENDCHAR

STARTCHAR ccdc_A23A
ENCODING 41530
SWIDTH 854 0
DWIDTH 16 0
BBX 16 18 0 -2
BITMAP
0000
0904
0888
0850
13FE
1022
2022
33FE
5220
5420
17FF
14A1
1121
1221
1426
1020
1020
0000
ENDCHAR

STARTCHAR cns2_2931
ENCODING 41531
SWIDTH 854 0
DWIDTH 16 0
BBX 16 18 0 -2
BITMAP
0000
0800
08C4
1704
1104
1104
2104
37C8
5108
5108
1388
1548
1550
1112
1112
1117
1139
0000
ENDCHAR

STARTCHAR ccdc_A23C
ENCODING 41532
SWIDTH 854 0
DWIDTH 16 0
BBX 16 18 0 -2
BITMAP
0000
0400
047E
0442
0842
087E
1800
28FE
4882
08F2
089E
0882
089E
08F2
0882
088A
0906
0000
ENDCHAR

STARTCHAR cns2_292E
ENCODING 41533
SWIDTH 854 0
DWIDTH 16 0
BBX 16 18 0 -2
BITMAP
0000
0820
0A22
0A22
13FE
1222
1050
308C
5103
16FC
1000
1000
13FE
1004
1004
1008
1030
0000
ENDCHAR

STARTCHAR ccdc_A23E
ENCODING 41534
SWIDTH 854 0
DWIDTH 16 0
BBX 16 18 0 -2
BITMAP
0000
0400
0800
09DF
1004
1004
33E4
3084
5084
12A4
1294
1484
1084
1084
1084
1184
100C
0000
ENDCHAR

STARTCHAR ccdc_A23F
ENCODING 41535
SWIDTH 854 0
DWIDTH 16 0
BBX 16 18 0 -2
BITMAP
0000
0420
0820
0820
13FE
1020
3020
3020
51FC
1000
1040
1024
10A4
1282
1281
1284
147C
0000
ENDCHAR

STARTCHAR cns3_2B2D
ENCODING 41536
SWIDTH 854 0
DWIDTH 16 0
BBX 16 18 0 -2
BITMAP
0000
0000
0800
0BFE
0842
1042
17FF
2842
2BFE
4840
4880
08FE
0942
0A42
0C42
087E
0842
0000
ENDCHAR

STARTCHAR ccdc_A241
ENCODING 41537
SWIDTH 854 0
DWIDTH 16 0
BBX 16 18 0 -2
BITMAP
0000
081E
08F0
0820
0BFF
1070
10AC
3323
5000
11FC
1044
1044
104F
1081
1082
1102
120C
0000
ENDCHAR

STARTCHAR cns2_2928
ENCODING 41538
SWIDTH 854 0
DWIDTH 16 0
BBX 16 18 0 -2
BITMAP
0000
0984
0848
0830
104C
1182
2000
37FF
50A0
5120
13FE
1622
1A22
1222
1222
1226
1020
0000
ENDCHAR

STARTCHAR cns2_287D
ENCODING 41539
SWIDTH 854 0
DWIDTH 16 0
BBX 16 18 0 -2
BITMAP
0000
0880
0840
0BFC
1204
1204
23FC
3204
5204
53FC
1223
122C
1210
1208
12C4
1302
1C01
0000
ENDCHAR

STARTCHAR cns2_2921
ENCODING 41540
SWIDTH 854 0
DWIDTH 16 0
BBX 16 18 0 -2
BITMAP
0000
0800
0FFF
0800
1092
1124
2248
3124
5092
5092
1000
13FE
1020
1020
1020
1020
17FF
0000
ENDCHAR

STARTCHAR cns2_2922
ENCODING 41541
SWIDTH 854 0
DWIDTH 16 0
BBX 16 18 0 -2
BITMAP
0000
0800
0BFE
0A00
1200
12FC
2200
3200
53FE
5240
1250
1251
124A
1244
1254
1462
1581
0000
ENDCHAR

STARTCHAR cns2_2923
ENCODING 41542
SWIDTH 854 0
DWIDTH 16 0
BBX 16 18 0 -2
BITMAP
0000
0800
0BFE
0820
1020
11FC
2044
3044
5084
57FF
1000
11FC
1104
1104
1104
11FC
1104
0000
ENDCHAR

STARTCHAR cns2_2924
ENCODING 41543
SWIDTH 854 0
DWIDTH 16 0
BBX 16 18 0 -2
BITMAP
0000
0400
05FC
0904
0904
11FC
1800
2800
2BFE
4A22
0A22
0A22
0BFE
0A00
0A01
0A01
0BFF
0000
ENDCHAR

STARTCHAR cns2_2925
ENCODING 41544
SWIDTH 854 0
DWIDTH 16 0
BBX 16 18 0 -2
BITMAP
0000
0400
047C
0844
0844
1144
197C
2900
2900
49FE
0812
0812
0BFF
0820
0850
0888
0B07
0000
ENDCHAR

STARTCHAR cns2_2927
ENCODING 41545
SWIDTH 854 0
DWIDTH 16 0
BBX 16 18 0 -2
BITMAP
0000
0820
0820
0BFE
1222
13FE
2222
33FE
5000
57FF
1080
1100
13FE
1002
1002
1002
101C
0000
ENDCHAR

STARTCHAR cns2_2929
ENCODING 41546
SWIDTH 854 0
DWIDTH 16 0
BBX 16 18 0 -2
BITMAP
0000
0810
0888
0888
1104
1603
21FC
3104
5104
5104
11FC
1050
1050
1050
1092
1111
161E
0000
ENDCHAR

STARTCHAR cns2_292A
ENCODING 41547
SWIDTH 854 0
DWIDTH 16 0
BBX 16 18 0 -2
BITMAP
0000
0820
0820
0924
1124
1124
2124
32AA
526A
5431
1020
13FE
1020
1020
1020
1020
17FF
0000
ENDCHAR

STARTCHAR cns2_292C
ENCODING 41548
SWIDTH 854 0
DWIDTH 16 0
BBX 16 18 0 -2
BITMAP
0000
0000
0920
095F
1084
1084
3144
3244
505F
10C4
1144
1244
1044
1044
1084
109F
0000
0000
ENDCHAR

STARTCHAR cns3_2B2B
ENCODING 41549
SWIDTH 854 0
DWIDTH 16 0
BBX 16 18 0 -2
BITMAP
0000
0000
0820
0822
0BFC
1024
1028
2BFF
2820
487C
4988
0E10
0820
0BFE
0820
0820
08E0
0000
ENDCHAR

STARTCHAR cns2_292D
ENCODING 41550
SWIDTH 854 0
DWIDTH 16 0
BBX 16 18 0 -2
BITMAP
0000
0800
0BFF
0810
1060
10A8
2128
3124
5224
5422
1020
11FC
1104
1104
1104
11FC
1104
0000
ENDCHAR

STARTCHAR cns2_2930
ENCODING 41551
SWIDTH 854 0
DWIDTH 16 0
BBX 16 18 0 -2
BITMAP
0000
0800
0807
0BB8
1088
1108
2108
327F
5208
5788
1088
1108
1208
163E
1500
14E0
181F
0000
ENDCHAR

STARTCHAR ccdc_A250
ENCODING 41552
SWIDTH 854 0
DWIDTH 16 0
BBX 16 18 0 -2
BITMAP
0000
0807
0BF8
0800
1122
1124
2084
3008
5020
5020
17FF
1020
1070
10A8
1124
1222
1421
0000
ENDCHAR

STARTCHAR ccdc_A251
ENCODING 41553
SWIDTH 854 0
DWIDTH 16 0
BBX 16 18 0 -2
BITMAP
0000
0888
0BFF
0888
1000
13FE
2108
3108
5108
57FF
1028
1028
1048
1048
1088
1108
1218
0000
ENDCHAR

STARTCHAR ccdc_A252
ENCODING 41554
SWIDTH 854 0
DWIDTH 16 0
BBX 16 18 0 -2
BITMAP
0000
0880
0880
0900
11FF
1201
2551
3151
5041
53F9
1041
10E1
1151
1249
1441
1042
100C
0000
ENDCHAR

STARTCHAR cns2_2D6C
ENCODING 41555
SWIDTH 854 0
DWIDTH 16 0
BBX 16 18 0 -2
BITMAP
0000
0820
0922
0922
1124
1050
2088
3306
5020
5022
1124
1128
1120
1050
1088
1104
1603
0000
ENDCHAR

STARTCHAR cns2_2D6D
ENCODING 41556
SWIDTH 854 0
DWIDTH 16 0
BBX 16 18 0 -2
BITMAP
0000
0820
0820
0BFF
1020
1020
21FE
3022
53FF
5022
11FE
1020
1120
113E
12A0
12A0
147F
0000
ENDCHAR

STARTCHAR cns2_2D69
ENCODING 41557
SWIDTH 854 0
DWIDTH 16 0
BBX 16 18 0 -2
BITMAP
0000
0820
0820
0820
17FF
1000
2000
31FC
5104
5104
1104
11FC
1020
1124
1222
1421
1060
0000
ENDCHAR

STARTCHAR cns2_2D6B
ENCODING 41558
SWIDTH 854 0
DWIDTH 16 0
BBX 16 18 0 -2
BITMAP
0000
0820
0820
0BFE
1202
1202
2100
31DE
5152
5252
1252
1592
1096
1090
1110
1211
141F
0000
ENDCHAR

STARTCHAR cns2_2D6E
ENCODING 41559
SWIDTH 854 0
DWIDTH 16 0
BBX 16 18 0 -2
BITMAP
0000
0820
0BFE
0820
1020
17FF
2090
3111
521F
5440
1080
11FC
1288
1C50
1020
10D8
1707
0000
ENDCHAR

STARTCHAR cns2_2D6F
ENCODING 41560
SWIDTH 854 0
DWIDTH 16 0
BBX 16 18 0 -2
BITMAP
0000
0888
0888
0BFE
1088
1088
20F8
3088
5088
50F8
1088
1088
17FF
1000
1088
1104
1202
0000
ENDCHAR

STARTCHAR cns2_2D71
ENCODING 41561
SWIDTH 854 0
DWIDTH 16 0
BBX 16 18 0 -2
BITMAP
0000
0450
0448
09FE
0840
1028
1030
28D9
2B07
4848
09FE
0840
0848
0830
08E1
0B19
0807
0000
ENDCHAR

STARTCHAR cns2_2D72
ENCODING 41562
SWIDTH 854 0
DWIDTH 16 0
BBX 16 18 0 -2
BITMAP
0000
0820
0820
17FF
1020
11FC
2124
31FC
5020
53FE
1022
17FF
1022
13FE
1020
1020
1060
0000
ENDCHAR

STARTCHAR cns2_2D73
ENCODING 41563
SWIDTH 854 0
DWIDTH 16 0
BBX 16 18 0 -2
BITMAP
0000
0820
0820
17FF
1050
1088
2104
3202
55FD
5000
1000
13FE
1020
1124
1222
1421
1060
0000
ENDCHAR

STARTCHAR cns2_2D76
ENCODING 41564
SWIDTH 854 0
DWIDTH 16 0
BBX 16 18 0 -2
BITMAP
0000
1000
17DF
1455
1455
17D5
2455
3455
5455
57DF
1450
1450
1450
1450
1451
1851
18DF
0000
ENDCHAR

STARTCHAR cns2_2D77
ENCODING 41565
SWIDTH 854 0
DWIDTH 16 0
BBX 16 18 0 -2
BITMAP
0000
1000
17DF
1451
1451
1451
27DF
3451
5451
5451
17DF
1451
1451
1451
1451
18E3
1000
0000
ENDCHAR

STARTCHAR cns2_2D79
ENCODING 41566
SWIDTH 854 0
DWIDTH 16 0
BBX 16 18 0 -2
BITMAP
0000
0888
0888
0910
11FF
1310
2310
3510
51FE
5110
1110
11FE
1110
1110
1110
11FF
1100
0000
ENDCHAR

STARTCHAR cns2_2D7A
ENCODING 41567
SWIDTH 854 0
DWIDTH 16 0
BBX 16 18 0 -2
BITMAP
0000
0820
0820
0820
17FF
1401
2000
31FC
5000
5000
17FF
1020
10A4
1122
1221
1421
1060
0000
ENDCHAR

STARTCHAR cns2_2D7B
ENCODING 41568
SWIDTH 854 0
DWIDTH 16 0
BBX 16 18 0 -2
BITMAP
0000
0808
0BCC
080A
1008
17FF
2088
3088
5088
52F8
1288
1288
1288
1288
1288
12E5
1703
0000
ENDCHAR

STARTCHAR cns2_2D7C
ENCODING 41569
SWIDTH 854 0
DWIDTH 16 0
BBX 16 18 0 -2
BITMAP
0000
0900
091C
0904
1114
17E2
2122
3141
5308
5388
1550
1510
1914
1122
112E
1171
1100
0000
ENDCHAR

STARTCHAR cns2_2D7D
ENCODING 41570
SWIDTH 854 0
DWIDTH 16 0
BBX 16 18 0 -2
BITMAP
0000
0800
0FFE
1402
1402
17FE
2402
3402
57FE
5210
1210
1213
13DC
1210
1210
13D1
1E1F
0000
ENDCHAR

STARTCHAR cns3_2F48
ENCODING 41571
SWIDTH 854 0
DWIDTH 16 0
BBX 16 18 0 -2
BITMAP
0000
0000
0430
05C0
088F
0889
1089
17E9
2089
3189
52C9
12A9
1489
1489
108F
1089
1080
0000
ENDCHAR

STARTCHAR cns1_5432
ENCODING 41572
SWIDTH 854 0
DWIDTH 16 0
BBX 16 18 0 -2
BITMAP
0000
0800
0BFE
0A02
1202
13FE
1200
2210
3292
5292
52FE
1410
1511
1511
1511
15FF
1101
0000
ENDCHAR

STARTCHAR cns3_2F56
ENCODING 41573
SWIDTH 854 0
DWIDTH 16 0
BBX 16 18 0 -2
BITMAP
0000
0000
04C8
0708
0A10
0A1F
13F1
1295
22A6
32A4
5284
1284
128A
128A
1491
1491
18A0
0000
ENDCHAR

STARTCHAR ccdc_A266
ENCODING 41574
SWIDTH 854 0
DWIDTH 16 0
BBX 16 18 0 -2
BITMAP
0000
080E
09F0
0924
1112
1200
21FC
3024
5024
57FF
1024
1024
11FC
1020
1020
1020
1060
0000
ENDCHAR

STARTCHAR ccdc_A267
ENCODING 41575
SWIDTH 854 0
DWIDTH 16 0
BBX 16 18 0 -2
BITMAP
0000
0820
0820
0BFE
1222
1222
2222
33FE
5020
5020
1000
1252
1249
1249
1240
1442
143E
0000
ENDCHAR

STARTCHAR ccdc_A268
ENCODING 41576
SWIDTH 854 0
DWIDTH 16 0
BBX 16 18 0 -2
BITMAP
0000
0820
0820
17FF
1000
13FE
2202
33FE
5000
53FE
1004
1018
1020
17FF
1020
1020
1060
0000
ENDCHAR

STARTCHAR ccdc_A269
ENCODING 41577
SWIDTH 854 0
DWIDTH 16 0
BBX 16 18 0 -2
BITMAP
0000
0080
0140
0630
1BCC
6003
07F8
0408
07F8
0000
0740
1C47
6478
0440
0440
0441
043F
0000
ENDCHAR

STARTCHAR ccdc_A26A
ENCODING 41578
SWIDTH 854 0
DWIDTH 16 0
BBX 16 18 0 -2
BITMAP
0000
0820
0810
0BFF
0884
1084
1048
33FF
3040
5044
53FF
1088
1108
13D0
102C
10C2
1302
0000
ENDCHAR

STARTCHAR cns3_2F51
ENCODING 41579
SWIDTH 854 0
DWIDTH 16 0
BBX 16 18 0 -2
BITMAP
0000
0000
04FE
0492
0892
08FE
1092
1092
20FE
3010
53FF
1030
1058
1094
1112
1611
1010
0000
ENDCHAR

STARTCHAR ccdc_A26C
ENCODING 41580
SWIDTH 854 0
DWIDTH 16 0
BBX 16 18 0 -2
BITMAP
0000
0484
0484
0BDF
0884
1084
1050
3048
5084
1102
16FF
1044
1044
1084
1084
1104
121C
0000
ENDCHAR

STARTCHAR cns2_2D7E
ENCODING 41581
SWIDTH 854 0
DWIDTH 16 0
BBX 16 18 0 -2
BITMAP
0000
0850
0850
0850
13FE
1252
2252
3252
53FE
5252
1252
1252
17FF
1000
1098
1106
1601
0000
ENDCHAR

STARTCHAR cns3_2F57
ENCODING 41582
SWIDTH 854 0
DWIDTH 16 0
BBX 16 18 0 -2
BITMAP
0000
0000
0420
0421
09FA
0822
1024
17FF
2018
3060
50FE
1142
1642
107E
1042
107E
1042
0000
ENDCHAR

STARTCHAR cns1_5925
ENCODING 41583
SWIDTH 854 0
DWIDTH 16 0
BBX 16 18 0 -2
BITMAP
0000
0820
0820
17FF
1000
19FC
2904
2904
4904
49FC
0820
0852
0894
0988
0A84
08C2
0901
0000
ENDCHAR

STARTCHAR cns1_5872
ENCODING 41584
SWIDTH 854 0
DWIDTH 16 0
BBX 16 18 0 -2
BITMAP
0000
0904
09F4
0A14
142A
1A52
21A1
3180
527F
5400
11FC
1104
1104
11FC
1104
1104
11FC
0000
ENDCHAR

STARTCHAR cns2_3364
ENCODING 41585
SWIDTH 854 0
DWIDTH 16 0
BBX 16 18 0 -2
BITMAP
0000
0904
0884
0848
17FF
1050
2050
33FE
5252
5252
129E
1302
1202
13FE
1202
13FE
1202
0000
ENDCHAR

STARTCHAR cns2_334F
ENCODING 41586
SWIDTH 854 0
DWIDTH 16 0
BBX 16 18 0 -2
BITMAP
0000
0900
091F
17C9
1109
13C9
2109
31C9
5711
5126
1020
17FF
1050
1088
1104
1202
1401
0000
ENDCHAR

STARTCHAR cns2_3365
ENCODING 41587
SWIDTH 854 0
DWIDTH 16 0
BBX 16 18 0 -2
BITMAP
0000
0820
0820
17FE
1020
13FC
2040
37FF
5088
5104
13FE
1505
1904
11FC
1104
1104
11FC
0000
ENDCHAR

STARTCHAR cns2_3351
ENCODING 41588
SWIDTH 854 0
DWIDTH 16 0
BBX 16 18 0 -2
BITMAP
0000
0444
0444
05FF
0844
087C
0844
187C
2844
4844
0BFF
0928
0928
094F
0900
09FF
0900
0000
ENDCHAR

STARTCHAR cns2_3352
ENCODING 41589
SWIDTH 854 0
DWIDTH 16 0
BBX 16 18 0 -2
BITMAP
0000
0924
0924
17FF
1124
1124
213C
3100
51FF
5020
17FF
1020
10A8
1124
1222
1421
1020
0000
ENDCHAR

STARTCHAR cns2_3353
ENCODING 41590
SWIDTH 854 0
DWIDTH 16 0
BBX 16 18 0 -2
BITMAP
0000
0800
0BFE
1050
1050
13FE
2252
3252
53FE
5020
1040
17FF
1084
1188
1070
10C4
1702
0000
ENDCHAR

STARTCHAR cns2_3355
ENCODING 41591
SWIDTH 854 0
DWIDTH 16 0
BBX 16 18 0 -2
BITMAP
0000
0800
0BFE
0A02
1202
13FE
2284
3248
53FE
5248
1248
13FF
1248
1288
1488
1508
1A08
0000
ENDCHAR

STARTCHAR cns2_3359
ENCODING 41592
SWIDTH 854 0
DWIDTH 16 0
BBX 16 18 0 -2
BITMAP
0000
0800
0BFE
0A02
13FE
1202
23FE
3000
57FF
5020
1020
1120
113E
12A0
12A0
12A0
147F
0000
ENDCHAR

STARTCHAR cns2_335B
ENCODING 41593
SWIDTH 854 0
DWIDTH 16 0
BBX 16 18 0 -2
BITMAP
0000
081E
09E0
0820
0820
17FF
1020
1020
30A0
5326
1222
1222
13AE
1222
1222
13FE
1202
0000
ENDCHAR

STARTCHAR cns2_335C
ENCODING 41594
SWIDTH 854 0
DWIDTH 16 0
BBX 16 18 0 -2
BITMAP
0000
081E
0BE0
0820
13FE
1222
2222
33FE
5020
5020
17FF
1421
1429
143D
15C3
1401
1407
0000
ENDCHAR

STARTCHAR cns2_3356
ENCODING 41595
SWIDTH 854 0
DWIDTH 16 0
BBX 16 18 0 -2
BITMAP
0000
0850
0854
13DE
1051
11D1
225F
3000
50FC
5084
10FC
1084
10FC
1084
1084
1084
110C
0000
ENDCHAR

STARTCHAR cns2_335D
ENCODING 41596
SWIDTH 854 0
DWIDTH 16 0
BBX 16 18 0 -2
BITMAP
0000
08C8
0F08
0908
1108
1129
27EA
312A
532A
5388
1554
1514
1914
1122
1122
1141
1141
0000
ENDCHAR

STARTCHAR cns2_335E
ENCODING 41597
SWIDTH 854 0
DWIDTH 16 0
BBX 16 18 0 -2
BITMAP
0000
081E
09E0
0820
1020
17FF
2124
3124
57FF
5124
1124
13FE
1020
1020
1020
17FF
1000
0000
ENDCHAR

STARTCHAR cns3_343D
ENCODING 41598
SWIDTH 854 0
DWIDTH 16 0
BBX 16 18 0 -2
BITMAP
0000
0000
0410
0810
0BFF
1084
1048
27FF
5421
1421
13FE
1322
1222
1222
1222
1226
1020
0000
ENDCHAR

STARTCHAR cns1_4475
ENCODING 41633
SWIDTH 854 0
DWIDTH 16 0
BBX 16 18 0 -2
BITMAP
0000
0080
0140
0220
0410
0808
1004
2412
4411
0410
0410
0410
0810
0810
0810
1010
2010
0000
ENDCHAR

STARTCHAR cns1_4473
ENCODING 41634
SWIDTH 854 0
DWIDTH 16 0
BBX 16 18 0 -2
BITMAP
0000
0800
0BF8
0888
1088
1090
2090
309E
5092
5082
1102
1102
1104
1104
1204
1404
1018
0000
ENDCHAR

STARTCHAR cns2_2132
ENCODING 41635
SWIDTH 854 0
DWIDTH 16 0
BBX 16 18 0 -2
BITMAP
0000
0420
0420
0820
0820
1020
1BFE
2822
2822
4842
0842
0842
0882
0882
0902
0A04
0818
0000
ENDCHAR

STARTCHAR cns2_2133
ENCODING 41636
SWIDTH 854 0
DWIDTH 16 0
BBX 16 18 0 -2
BITMAP
0000
0800
09F8
0908
1108
1108
2108
3108
5108
5108
1108
1108
1108
1208
1209
1409
180F
0000
ENDCHAR

STARTCHAR cns1_456A
ENCODING 41637
SWIDTH 854 0
DWIDTH 16 0
BBX 16 18 0 -2
BITMAP
0000
0800
09FE
0802
1004
1008
1010
2010
3010
53FF
1010
1010
1010
1010
1010
1010
1070
0000
ENDCHAR

STARTCHAR cns1_456B
ENCODING 41638
SWIDTH 854 0
DWIDTH 16 0
BBX 16 18 0 -2
BITMAP
0000
0420
0420
0820
0820
1020
17FF
3020
3020
5020
1020
1020
1020
1020
1020
13FE
1000
0000
ENDCHAR

STARTCHAR cns1_456C
ENCODING 41639
SWIDTH 854 0
DWIDTH 16 0
BBX 16 18 0 -2
BITMAP
0000
0410
0890
0890
1090
1097
30F9
3791
5091
1091
1091
1093
1090
1080
1081
1081
10FF
0000
ENDCHAR

STARTCHAR cns1_456D
ENCODING 41640
SWIDTH 854 0
DWIDTH 16 0
BBX 16 18 0 -2
BITMAP
0000
0810
0810
0810
1010
17FF
2010
3110
5110
50A0
10A0
1040
1040
10A0
1110
120C
1403
0000
ENDCHAR

STARTCHAR cns1_4569
ENCODING 41641
SWIDTH 854 0
DWIDTH 16 0
BBX 16 18 0 -2
BITMAP
0000
0404
0804
0804
1004
13FF
3004
3004
5104
5084
1044
1044
1004
1004
1004
1004
101C
0000
ENDCHAR

STARTCHAR cns1_4570
ENCODING 41642
SWIDTH 854 0
DWIDTH 16 0
BBX 16 18 0 -2
BITMAP
0000
0410
0810
0810
1010
1010
3111
3111
5111
1111
1111
1111
1111
1111
1111
11FF
1101
0000
ENDCHAR

STARTCHAR cns2_2149
ENCODING 41643
SWIDTH 854 0
DWIDTH 16 0
BBX 16 18 0 -2
BITMAP
0000
0080
0140
0220
0410
0808
1004
2002
5FFD
0080
0080
0080
0080
0080
0080
0080
7FFF
0000
ENDCHAR

STARTCHAR cns1_4571
ENCODING 41644
SWIDTH 854 0
DWIDTH 16 0
BBX 16 18 0 -2
BITMAP
0000
0800
09FE
0822
1022
1022
1022
30A2
5062
1022
1032
1022
1042
1042
1082
1102
100C
0000
ENDCHAR

STARTCHAR cns2_2148
ENCODING 41645
SWIDTH 854 0
DWIDTH 16 0
BBX 16 18 0 -2
BITMAP
0000
0900
0900
1200
13FF
1400
2400
3000
53F8
5010
1020
1040
1080
1101
1201
1201
11FE
0000
ENDCHAR

STARTCHAR cns1_4623
ENCODING 41646
SWIDTH 854 0
DWIDTH 16 0
BBX 16 18 0 -2
BITMAP
0000
000C
0870
0BA0
0820
1020
1020
2020
37FF
5020
5020
1020
1020
1020
1020
1020
1020
0000
ENDCHAR

STARTCHAR cns1_456E
ENCODING 41647
SWIDTH 854 0
DWIDTH 16 0
BBX 16 18 0 -2
BITMAP
0000
0440
084C
0842
1040
1040
37FF
3040
5040
1020
1020
1020
1010
1010
1009
1005
1003
0000
ENDCHAR

STARTCHAR cns1_456F
ENCODING 41648
SWIDTH 854 0
DWIDTH 16 0
BBX 16 18 0 -2
BITMAP
0000
0080
0140
0220
0410
0808
1004
2FFA
4001
0000
1FFC
0008
0010
0220
0140
0080
0040
0000
ENDCHAR

STARTCHAR cns1_4568
ENCODING 41649
SWIDTH 854 0
DWIDTH 16 0
BBX 16 18 0 -2
BITMAP
0000
1004
1204
1104
1084
1044
1044
1004
1004
1008
1008
1088
1118
1614
1822
6041
0181
0000
ENDCHAR

STARTCHAR cns1_4737
ENCODING 41650
SWIDTH 854 0
DWIDTH 16 0
BBX 16 18 0 -2
BITMAP
0000
0800
08DF
1311
1211
3211
3211
5211
1211
1211
1211
1251
1391
1616
1010
1010
1010
0000
ENDCHAR

STARTCHAR cns1_4734
ENCODING 41651
SWIDTH 854 0
DWIDTH 16 0
BBX 16 18 0 -2
BITMAP
0000
0420
0820
0820
1020
13FF
3221
3221
5221
1221
1221
13FF
1220
1020
1020
1020
1020
0000
ENDCHAR

STARTCHAR cns1_4738
ENCODING 41652
SWIDTH 854 0
DWIDTH 16 0
BBX 16 18 0 -2
BITMAP
0000
0410
0910
0910
1110
1110
3110
3114
51DE
1110
1110
1110
1110
1130
11D1
1311
141F
0000
ENDCHAR

STARTCHAR cns2_216D
ENCODING 41653
SWIDTH 854 0
DWIDTH 16 0
BBX 16 18 0 -2
BITMAP
0000
0840
0880
0900
13FE
1220
2420
3020
5020
57FF
1020
1020
1020
1020
1020
1020
1020
0000
ENDCHAR

STARTCHAR cns1_4735
ENCODING 41654
SWIDTH 854 0
DWIDTH 16 0
BBX 16 18 0 -2
BITMAP
0000
0410
0490
0890
0910
11FE
1210
3410
3010
5010
57FF
1010
1010
1010
1010
1010
1010
0000
ENDCHAR

STARTCHAR cns2_2171
ENCODING 41655
SWIDTH 854 0
DWIDTH 16 0
BBX 16 18 0 -2
BITMAP
0000
0820
0850
0890
1088
1104
2202
3289
5488
5088
1088
1088
1088
1108
1108
1208
1408
0000
ENDCHAR

STARTCHAR cns1_4736
ENCODING 41656
SWIDTH 854 0
DWIDTH 16 0
BBX 16 18 0 -2
BITMAP
0000
0400
0806
0BF8
1020
1020
3020
3020
5020
17FF
1020
1020
1020
1020
1020
1020
13FE
0000
ENDCHAR

STARTCHAR cns1_4739
ENCODING 41657
SWIDTH 854 0
DWIDTH 16 0
BBX 16 18 0 -2
BITMAP
0000
0400
0838
0888
1088
1084
3104
3102
5201
11FC
1044
1044
1084
1084
1104
1208
1430
0000
ENDCHAR

STARTCHAR cns1_472B
ENCODING 41658
SWIDTH 854 0
DWIDTH 16 0
BBX 16 18 0 -2
BITMAP
0000
0420
0820
0820
13FF
1040
3040
3040
507E
1042
1042
1042
1042
1042
1082
1082
110C
0000
ENDCHAR

STARTCHAR cns1_473A
ENCODING 41659
SWIDTH 854 0
DWIDTH 16 0
BBX 16 18 0 -2
BITMAP
0000
0080
0140
0220
0410
0808
1084
6083
0080
0880
08FC
0880
0880
0880
0880
7FFF
0000
0000
ENDCHAR

STARTCHAR cns1_472C
ENCODING 41660
SWIDTH 854 0
DWIDTH 16 0
BBX 16 18 0 -2
BITMAP
0000
0820
0820
1020
17FF
1000
2000
30F8
5088
5088
1088
1088
1088
1108
1109
1209
140F
0000
ENDCHAR

STARTCHAR cns1_472E
ENCODING 41661
SWIDTH 854 0
DWIDTH 16 0
BBX 16 18 0 -2
BITMAP
0000
0400
09FE
0822
1022
1022
33FF
3022
5022
5022
13FE
1022
1020
1040
1040
1080
1100
0000
ENDCHAR

STARTCHAR cns1_473B
ENCODING 41662
SWIDTH 854 0
DWIDTH 16 0
BBX 16 18 0 -2
BITMAP
0000
0800
0BFC
0904
1104
1108
2108
31FE
5142
5142
1144
1124
1228
1210
1428
1444
1983
0000
ENDCHAR

STARTCHAR cns1_4730
ENCODING 41663
SWIDTH 854 0
DWIDTH 16 0
BBX 16 18 0 -2
BITMAP
0000
0800
0BFE
0840
1040
1040
2040
33FC
5084
5084
1084
1084
1084
1084
1084
17FF
1000
0000
ENDCHAR

STARTCHAR cns2_216A
ENCODING 41664
SWIDTH 854 0
DWIDTH 16 0
BBX 16 18 0 -2
BITMAP
0000
0210
0210
0410
05FF
0810
1810
1810
29FE
4802
0882
0844
0828
0810
0828
08C4
0B03
0000
ENDCHAR

STARTCHAR cns1_4733
ENCODING 41665
SWIDTH 854 0
DWIDTH 16 0
BBX 16 18 0 -2
BITMAP
0000
0420
0824
0822
1022
1020
37FF
3020
5020
1040
1050
1088
1088
1104
1202
1401
1000
0000
ENDCHAR

STARTCHAR cns1_4731
ENCODING 41666
SWIDTH 854 0
DWIDTH 16 0
BBX 16 18 0 -2
BITMAP
0000
0420
0824
0822
1020
103F
37E0
3020
5022
1022
1014
1018
1010
1028
1048
1085
1303
0000
ENDCHAR

STARTCHAR cns1_4732
ENCODING 41667
SWIDTH 854 0
DWIDTH 16 0
BBX 16 18 0 -2
BITMAP
0000
0420
0820
0820
1020
17FF
3020
3060
5070
10B0
10A8
1124
1222
1421
1020
1020
1020
0000
ENDCHAR

STARTCHAR cns1_472D
ENCODING 41668
SWIDTH 854 0
DWIDTH 16 0
BBX 16 18 0 -2
BITMAP
0000
0420
0820
0820
1020
1122
3124
3128
5220
1050
1050
1050
1088
1088
1104
1202
1401
0000
ENDCHAR

STARTCHAR cns1_4924
ENCODING 41669
SWIDTH 854 0
DWIDTH 16 0
BBX 16 18 0 -2
BITMAP
0000
0420
0840
09FF
1101
1101
3101
3101
5101
11FF
1101
1101
1101
1101
1101
11FF
1101
0000
ENDCHAR

STARTCHAR cns1_4875
ENCODING 41670
SWIDTH 854 0
DWIDTH 16 0
BBX 16 18 0 -2
BITMAP
0000
0820
0820
0820
1020
17FF
2020
3020
5020
5020
13FE
1202
1202
1202
1202
13FE
1202
0000
ENDCHAR

STARTCHAR cns1_4923
ENCODING 41671
SWIDTH 854 0
DWIDTH 16 0
BBX 16 18 0 -2
BITMAP
0000
0480
0880
0880
10FF
1111
3212
3012
5010
1054
1054
1092
1092
1111
1211
1010
1030
0000
ENDCHAR

STARTCHAR cns1_4872
ENCODING 41672
SWIDTH 854 0
DWIDTH 16 0
BBX 16 18 0 -2
BITMAP
0000
0420
0924
0924
10A8
10A8
3020
33FE
5020
5020
1020
17FF
1020
1020
1020
1020
1020
0000
ENDCHAR

STARTCHAR cns1_4926
ENCODING 41673
SWIDTH 854 0
DWIDTH 16 0
BBX 16 18 0 -2
BITMAP
0200
0420
0450
0888
0904
1202
15FD
3000
5000
53FE
1004
1088
1050
1020
1010
1008
1000
0000
ENDCHAR

STARTCHAR cns1_487A
ENCODING 41674
SWIDTH 854 0
DWIDTH 16 0
BBX 16 18 0 -2
BITMAP
0000
0210
0410
0410
09FF
0911
1911
1911
29FF
4911
0911
0911
09FF
0810
0810
0810
0810
0000
ENDCHAR

STARTCHAR cns1_4879
ENCODING 41675
SWIDTH 854 0
DWIDTH 16 0
BBX 16 18 0 -2
BITMAP
0000
0800
0BFF
0801
1001
13F9
3001
3001
51F1
1111
1111
1111
1111
11F1
1111
1001
1003
0000
ENDCHAR

STARTCHAR cns2_227B
ENCODING 41676
SWIDTH 854 0
DWIDTH 16 0
BBX 16 18 0 -2
BITMAP
0000
0000
0BFE
0820
1222
1124
21AC
30A8
5020
5020
17FF
1020
1020
1020
1020
1020
1020
0000
ENDCHAR

STARTCHAR cns1_487D
ENCODING 41677
SWIDTH 854 0
DWIDTH 16 0
BBX 16 18 0 -2
BITMAP
0000
0400
0902
0902
1122
1122
3112
3112
5112
5102
1102
1124
1144
1188
1318
1424
1043
0000
ENDCHAR

STARTCHAR cns1_4878
ENCODING 41678
SWIDTH 854 0
DWIDTH 16 0
BBX 16 18 0 -2
BITMAP
0000
0880
0880
0880
1080
17EF
3129
3129
5129
5129
1129
1129
1229
1229
1229
122F
14C9
0000
ENDCHAR

STARTCHAR cns1_487B
ENCODING 41679
SWIDTH 854 0
DWIDTH 16 0
BBX 16 18 0 -2
BITMAP
0000
0800
0BFE
0A22
1222
1222
2222
3222
53FE
5222
5222
1222
1222
1222
13FE
1202
1202
0000
ENDCHAR

STARTCHAR cns1_487E
ENCODING 41680
SWIDTH 854 0
DWIDTH 16 0
BBX 16 18 0 -2
BITMAP
0000
0400
09FC
0904
1104
1104
3104
31FC
5104
1104
1104
1104
11FC
1000
1000
17FF
1000
0000
ENDCHAR

STARTCHAR cns1_4929
ENCODING 41681
SWIDTH 854 0
DWIDTH 16 0
BBX 16 18 0 -2
BITMAP
0000
0420
0820
0840
13FF
1090
3110
33FF
5D11
1111
1111
1111
1111
1113
1010
1010
1010
0000
ENDCHAR

STARTCHAR cns1_486D
ENCODING 41682
SWIDTH 854 0
DWIDTH 16 0
BBX 16 18 0 -2
BITMAP
0000
0420
0820
0820
1020
13FE
3004
3104
5104
5104
1084
1084
1088
1088
1088
17FF
1000
0000
ENDCHAR

STARTCHAR cns1_4925
ENCODING 41683
SWIDTH 854 0
DWIDTH 16 0
BBX 16 18 0 -2
BITMAP
0000
0406
09F8
0910
1110
1110
31FF
3110
5110
5108
1108
1108
1164
1185
1003
1000
13FE
0000
ENDCHAR

STARTCHAR cns1_486E
ENCODING 41684
SWIDTH 854 0
DWIDTH 16 0
BBX 16 18 0 -2
BITMAP
0000
0440
0820
0810
1000
17FF
3020
3020
5020
1020
13FE
1020
1020
1020
1020
1020
17FF
0000
ENDCHAR

STARTCHAR cns1_4876
ENCODING 41685
SWIDTH 854 0
DWIDTH 16 0
BBX 16 18 0 -2
BITMAP
0000
0420
0820
0820
1040
17FF
3040
3080
5080
5100
12FE
1410
1010
1010
1010
1010
13FF
0000
ENDCHAR

STARTCHAR cns1_4877
ENCODING 41686
SWIDTH 854 0
DWIDTH 16 0
BBX 16 18 0 -2
BITMAP
0000
0820
0820
0840
1040
17FF
2080
3080
5100
5100
52FE
1282
1482
1082
1082
10FE
1082
0000
ENDCHAR

STARTCHAR cns1_487C
ENCODING 41687
SWIDTH 854 0
DWIDTH 16 0
BBX 16 18 0 -2
BITMAP
0000
0420
0820
0820
1020
103F
3020
3020
5020
1020
13FE
1202
1202
1202
1202
13FE
1202
0000
ENDCHAR

STARTCHAR cns1_4874
ENCODING 41688
SWIDTH 854 0
DWIDTH 16 0
BBX 16 18 0 -2
BITMAP
0000
0400
0800
0BFF
1004
1004
3004
33E4
5224
5224
1224
1224
13E4
1224
1004
1004
101C
0000
ENDCHAR

STARTCHAR cns1_4870
ENCODING 41689
SWIDTH 854 0
DWIDTH 16 0
BBX 16 18 0 -2
BITMAP
0000
0820
0820
0820
13FF
1201
2281
3080
5084
5098
10E0
1080
1080
1080
1080
1081
107F
0000
ENDCHAR

STARTCHAR cns1_4927
ENCODING 41690
SWIDTH 854 0
DWIDTH 16 0
BBX 16 18 0 -2
BITMAP
0000
0080
0140
0220
0410
0808
1004
27F2
4081
0080
0080
1FFC
0080
0490
0888
1084
0180
0000
ENDCHAR

STARTCHAR cns2_2327
ENCODING 41691
SWIDTH 854 0
DWIDTH 16 0
BBX 16 18 0 -2
BITMAP
0000
0180
0240
0420
0810
1008
2004
47F3
0000
0000
0000
1FFC
0080
0490
0888
1084
6183
0000
ENDCHAR

STARTCHAR cns1_492A
ENCODING 41692
SWIDTH 854 0
DWIDTH 16 0
BBX 16 18 0 -2
BITMAP
0000
0820
0920
0920
13FE
1220
2420
3020
57FF
5020
1050
1050
1088
1088
1104
1202
1401
0000
ENDCHAR

STARTCHAR cns1_4873
ENCODING 41693
SWIDTH 854 0
DWIDTH 16 0
BBX 16 18 0 -2
BITMAP
0000
0890
0890
0BFE
1092
1092
27FE
3492
5490
57FF
1491
1091
1091
1116
1110
1210
1410
0000
ENDCHAR

STARTCHAR cns1_4922
ENCODING 41694
SWIDTH 854 0
DWIDTH 16 0
BBX 16 18 0 -2
BITMAP
0000
0440
0840
0840
1080
10FF
3120
3220
5420
103F
1020
1020
1020
103F
1020
1020
1020
0000
ENDCHAR

STARTCHAR cns1_4871
ENCODING 41695
SWIDTH 854 0
DWIDTH 16 0
BBX 16 18 0 -2
BITMAP
0000
0400
0BFC
0800
1000
17FF
2000
3040
5040
57FF
1084
1088
1168
1010
102C
10C2
1701
0000
ENDCHAR

STARTCHAR cns2_2325
ENCODING 41696
SWIDTH 854 0
DWIDTH 16 0
BBX 16 18 0 -2
BITMAP
0000
0840
0840
08FE
1082
1144
2228
3410
5010
5028
1044
1083
1720
1018
1000
1060
101C
0000
ENDCHAR

STARTCHAR cns1_4C21
ENCODING 41697
SWIDTH 854 0
DWIDTH 16 0
BBX 16 18 0 -2
BITMAP
0000
0820
0850
0850
1088
1104
2202
35FD
5020
5020
1020
13FE
1020
1020
1020
1020
17FF
0000
ENDCHAR

STARTCHAR cns2_2535
ENCODING 41698
SWIDTH 854 0
DWIDTH 16 0
BBX 16 18 0 -2
BITMAP
0000
0820
0840
087F
1049
1489
220A
3108
5010
5018
1018
1124
1624
1044
1042
1082
1301
0000
ENDCHAR

STARTCHAR cns1_4B79
ENCODING 41699
SWIDTH 854 0
DWIDTH 16 0
BBX 16 18 0 -2
BITMAP
0000
0800
0BFE
0A02
1202
12FA
2222
3222
52FA
52AA
12AA
12AA
12AA
14AA
14A9
1421
1821
0000
ENDCHAR

STARTCHAR cns2_253F
ENCODING 41700
SWIDTH 854 0
DWIDTH 16 0
BBX 16 18 0 -2
BITMAP
0000
0800
0BFF
0A01
1201
1201
22FD
3285
5285
5285
1285
12FD
1201
1201
1201
13FF
1201
0000
ENDCHAR

STARTCHAR cns1_4B6C
ENCODING 41701
SWIDTH 854 0
DWIDTH 16 0
BBX 16 18 0 -2
BITMAP
0000
0904
0888
0810
13FE
1020
2020
31FC
5020
5020
1020
17FF
1020
1020
1020
1020
1020
0000
ENDCHAR

STARTCHAR cns1_4B6F
ENCODING 41702
SWIDTH 854 0
DWIDTH 16 0
BBX 16 18 0 -2
BITMAP
0000
0420
0820
0BFE
1020
1020
3020
37FF
5000
1020
1020
13FE
1020
1020
1020
1020
17FF
0000
ENDCHAR

STARTCHAR cns1_4B77
ENCODING 41703
SWIDTH 854 0
DWIDTH 16 0
BBX 16 18 0 -2
BITMAP
0000
0484
0848
0810
13FE
1088
3088
3088
5088
17FF
1088
1088
1088
1108
1108
1208
1408
0000
ENDCHAR

STARTCHAR cns2_2538
ENCODING 41704
SWIDTH 854 0
DWIDTH 16 0
BBX 16 18 0 -2
BITMAP
0000
0820
0820
1020
17FF
1020
2020
3020
53FE
5000
1000
11FC
1104
1104
1104
11FC
1104
0000
ENDCHAR

STARTCHAR cns2_2543
ENCODING 41705
SWIDTH 854 0
DWIDTH 16 0
BBX 16 18 0 -2
BITMAP
0000
0806
0BF8
0820
1020
1020
27FF
3020
5020
5020
13FE
1202
1202
1202
1202
13FE
1202
0000
ENDCHAR

STARTCHAR cns1_4B7A
ENCODING 41706
SWIDTH 854 0
DWIDTH 16 0
BBX 16 18 0 -2
BITMAP
0000
0890
0890
0890
1092
1494
2298
3290
5290
50D8
1194
1692
1090
1110
1110
1211
141F
0000
ENDCHAR

STARTCHAR cns1_4B7C
ENCODING 41707
SWIDTH 854 0
DWIDTH 16 0
BBX 16 18 0 -2
BITMAP
0000
0400
0838
0888
1104
1202
35FD
3104
5104
11E4
111C
1104
111C
1164
1184
1104
110C
0000
ENDCHAR

STARTCHAR cns1_4B70
ENCODING 41708
SWIDTH 854 0
DWIDTH 16 0
BBX 16 18 0 -2
BITMAP
0000
0820
0820
17FF
1020
3020
33FE
5222
1222
1222
13FE
1020
11C0
1060
1090
110C
1603
0000
ENDCHAR

STARTCHAR cns1_4B75
ENCODING 41709
SWIDTH 854 0
DWIDTH 16 0
BBX 16 18 0 -2
BITMAP
0000
0800
0BFE
0A02
1202
1202
3202
33FE
5000
5124
1124
1124
1124
1124
1224
1225
1407
0000
ENDCHAR

STARTCHAR cns1_4B74
ENCODING 41710
SWIDTH 854 0
DWIDTH 16 0
BBX 16 18 0 -2
BITMAP
0000
0080
0080
7FFF
0080
0888
0888
1494
1494
22A2
01C0
02A0
0490
0888
1086
6081
0080
0000
ENDCHAR

STARTCHAR cns1_4B78
ENCODING 41711
SWIDTH 854 0
DWIDTH 16 0
BBX 16 18 0 -2
BITMAP
0000
0840
08FC
0904
1288
1450
2020
3040
51A0
567E
1082
1144
1228
1010
1020
10C0
1700
0000
ENDCHAR

STARTCHAR cns1_4B73
ENCODING 41712
SWIDTH 854 0
DWIDTH 16 0
BBX 16 18 0 -2
BITMAP
0000
0801
0BF1
1101
1109
31E9
3129
5229
5329
12A9
14A9
1049
1049
1049
1081
1101
1603
0000
ENDCHAR

STARTCHAR cns1_4B6E
ENCODING 41713
SWIDTH 854 0
DWIDTH 16 0
BBX 16 18 0 -2
BITMAP
0000
0820
0820
17FF
1020
1020
23FE
3004
5004
5004
57FF
1004
1084
1044
1044
1004
101C
0000
ENDCHAR

STARTCHAR cns1_4B7D
ENCODING 41714
SWIDTH 854 0
DWIDTH 16 0
BBX 16 18 0 -2
BITMAP
0000
0820
0920
0920
13FE
1220
2420
3020
57FF
5020
1070
10A8
1124
1222
1421
1020
1020
0000
ENDCHAR

STARTCHAR cns1_4B7E
ENCODING 41715
SWIDTH 854 0
DWIDTH 16 0
BBX 16 18 0 -2
BITMAP
0000
0820
0820
0BFF
1040
1080
20FE
3182
5282
54FE
1082
1082
10FE
1082
1082
1082
1086
0000
ENDCHAR

STARTCHAR cns2_2546
ENCODING 41716
SWIDTH 854 0
DWIDTH 16 0
BBX 16 18 0 -2
BITMAP
0000
0880
0904
0902
123F
17C1
2020
3220
53FE
5420
1020
1020
17FF
1020
1020
1020
1020
0000
ENDCHAR

STARTCHAR cns1_4B7B
ENCODING 41717
SWIDTH 854 0
DWIDTH 16 0
BBX 16 18 0 -2
BITMAP
0000
0080
0140
0220
0410
0808
17F4
2003
4000
1FFC
1224
1224
1FFC
1224
1224
1224
122C
0000
ENDCHAR

STARTCHAR cns2_253E
ENCODING 41718
SWIDTH 854 0
DWIDTH 16 0
BBX 16 18 0 -2
BITMAP
0000
0800
0BFF
0A01
1201
12FD
2201
3201
52FD
5285
1285
1285
1285
12FD
1201
1201
1207
0000
ENDCHAR

STARTCHAR cns1_4B72
ENCODING 41719
SWIDTH 854 0
DWIDTH 16 0
BBX 16 18 0 -2
BITMAP
0000
0400
0888
0888
1088
17FF
3088
3088
5088
1088
1088
17FF
1000
1088
1104
1202
1401
0000
ENDCHAR

STARTCHAR cns1_4B6D
ENCODING 41720
SWIDTH 854 0
DWIDTH 16 0
BBX 16 18 0 -2
BITMAP
0000
0820
0820
1020
17FF
3040
3080
50A2
5124
1328
1510
1110
1108
1108
1164
1184
1603
0000
ENDCHAR

STARTCHAR cns1_5021
ENCODING 41721
SWIDTH 854 0
DWIDTH 16 0
BBX 16 18 0 -2
BITMAP
0000
0800
0BFE
0A02
1202
13FE
3200
3200
53FF
5201
12F9
1289
1289
12F9
1401
1402
1004
0000
ENDCHAR

STARTCHAR cns2_2926
ENCODING 41722
SWIDTH 854 0
DWIDTH 16 0
BBX 16 18 0 -2
BITMAP
0000
0800
09FC
0904
1104
11FC
2104
3104
51FC
5104
1104
11FC
1050
1050
1090
1111
161F
0000
ENDCHAR

STARTCHAR cns2_287E
ENCODING 41723
SWIDTH 854 0
DWIDTH 16 0
BBX 16 18 0 -2
BITMAP
0000
082C
0822
0820
17FF
1020
2021
3632
5134
5028
1028
10A4
1124
1222
1421
1020
1060
0000
ENDCHAR

STARTCHAR cns1_4F78
ENCODING 41724
SWIDTH 854 0
DWIDTH 16 0
BBX 16 18 0 -2
BITMAP
0000
0480
0900
09FE
1200
1400
31FC
3144
5124
1104
17FE
1244
1224
1224
13FE
1004
101C
0000
ENDCHAR

STARTCHAR cns1_4F6C
ENCODING 41725
SWIDTH 854 0
DWIDTH 16 0
BBX 16 18 0 -2
BITMAP
0000
0800
09FC
1004
1004
37FF
3080
5100
51FE
1220
1020
17FF
1020
1050
1088
1104
1603
0000
ENDCHAR

STARTCHAR cns1_4F6B
ENCODING 41726
SWIDTH 854 0
DWIDTH 16 0
BBX 16 18 0 -2
BITMAP
0000
0800
0BFE
1002
13FE
3002
33FE
5000
57FF
1401
15FD
1405
1088
1050
1020
10D8
1707
0000
ENDCHAR

STARTCHAR cns1_5926
ENCODING 41761
SWIDTH 854 0
DWIDTH 16 0
BBX 16 18 0 -2
BITMAP
0000
1000
17FF
1020
1040
1080
27FF
3489
5489
54F9
1489
1489
14F9
1489
1489
17FF
1000
0000
ENDCHAR

STARTCHAR cns2_3354
ENCODING 41762
SWIDTH 854 0
DWIDTH 16 0
BBX 16 18 0 -2
BITMAP
0000
0800
0BFF
0A01
1201
13FF
2200
32FE
5210
5220
1242
12FE
1211
12FE
1410
1410
19FF
0000
ENDCHAR

STARTCHAR cns3_3446
ENCODING 41763
SWIDTH 854 0
DWIDTH 16 0
BBX 16 18 0 -2
BITMAP
0000
0420
043E
0820
0BFE
1002
1002
23FF
5002
1002
13FE
1120
1120
113E
12A0
1460
101F
0000
ENDCHAR

STARTCHAR cns2_3366
ENCODING 41764
SWIDTH 854 0
DWIDTH 16 0
BBX 16 18 0 -2
BITMAP
0000
0888
0888
17FF
1088
10A8
2020
33FE
5222
5222
1222
17FF
1050
1050
1088
1104
1603
0000
ENDCHAR

STARTCHAR cns3_3442
ENCODING 41765
SWIDTH 854 0
DWIDTH 16 0
BBX 16 18 0 -2
BITMAP
0000
0000
0400
0BDE
0A52
13DE
1000
2000
53FE
1000
17FF
1080
10FE
1102
1002
1002
103C
0000
ENDCHAR

STARTCHAR ccdc_A326
ENCODING 41766
SWIDTH 854 0
DWIDTH 16 0
BBX 16 18 0 -2
BITMAP
0000
0880
0880
1100
11FE
124A
2492
3152
5222
5052
1182
160C
1020
1292
1281
1485
10FC
0000
ENDCHAR

STARTCHAR cns3_3975
ENCODING 41767
SWIDTH 854 0
DWIDTH 16 0
BBX 16 18 0 -2
BITMAP
0000
0000
0420
08A0
0B2E
1222
13AE
2222
53AE
1020
13FE
1104
1088
1050
1020
10D8
1707
0000
ENDCHAR

STARTCHAR cns3_3447
ENCODING 41768
SWIDTH 854 0
DWIDTH 16 0
BBX 16 18 0 -2
BITMAP
0000
0000
05FC
0904
0904
1104
1104
21FC
5104
1000
17DF
1451
1451
1451
1451
17DF
1451
0000
ENDCHAR

STARTCHAR cns2_3363
ENCODING 41769
SWIDTH 854 0
DWIDTH 16 0
BBX 16 18 0 -2
BITMAP
0000
0820
0820
0BFE
1088
1088
2050
37FF
5000
51FC
1104
1104
11FC
1104
1104
11FC
1104
0000
ENDCHAR

STARTCHAR ccdc_A32A
ENCODING 41770
SWIDTH 854 0
DWIDTH 16 0
BBX 16 18 0 -2
BITMAP
0000
0800
0BFE
0804
10C8
1030
23FE
3222
53FE
5222
13FE
1222
17FF
1041
1081
1101
1606
0000
ENDCHAR

STARTCHAR ccdc_A32B
ENCODING 41771
SWIDTH 854 0
DWIDTH 16 0
BBX 16 18 0 -2
BITMAP
0000
0820
0A22
0A22
13FE
1202
2000
33FF
5200
5210
1292
1254
1210
1228
1428
1444
1583
0000
ENDCHAR

STARTCHAR cns3_3444
ENCODING 41772
SWIDTH 854 0
DWIDTH 16 0
BBX 16 18 0 -2
BITMAP
0000
0000
0410
0BFE
0884
1048
1030
20CC
53FF
1204
1218
12E2
120C
1431
14C2
140C
18F0
0000
ENDCHAR

STARTCHAR cns2_3367
ENCODING 41773
SWIDTH 854 0
DWIDTH 16 0
BBX 16 18 0 -2
BITMAP
0000
09FC
0904
0904
11FC
1000
27FF
3204
5204
53FC
1204
13FC
1204
123F
17C4
1004
1004
0000
ENDCHAR

STARTCHAR ccdc_A32E
ENCODING 41774
SWIDTH 854 0
DWIDTH 16 0
BBX 16 18 0 -2
BITMAP
0000
0080
0140
0220
05D0
0808
17F4
2413
47F0
0000
1FFC
1224
1224
1FFC
1224
1224
122C
0000
ENDCHAR

STARTCHAR cns2_3368
ENCODING 41775
SWIDTH 854 0
DWIDTH 16 0
BBX 16 18 0 -2
BITMAP
0000
0820
0A22
0A22
1222
13FE
2202
37FF
5020
5040
17FF
1491
1491
1491
1491
1491
1403
0000
ENDCHAR

STARTCHAR ccdc_A330
ENCODING 41776
SWIDTH 854 0
DWIDTH 16 0
BBX 16 18 0 -2
BITMAP
0000
0904
0888
0BFE
1020
11FC
2020
37FF
5020
5040
17FF
1044
10C4
1038
1014
10E2
1701
0000
ENDCHAR

STARTCHAR cns2_335F
ENCODING 41777
SWIDTH 854 0
DWIDTH 16 0
BBX 16 18 0 -2
BITMAP
0000
081C
0BE0
0820
17FF
1020
23FE
3222
5222
53FE
1222
1222
13FE
1020
13FE
1020
17FF
0000
ENDCHAR

STARTCHAR cns2_3360
ENCODING 41778
SWIDTH 854 0
DWIDTH 16 0
BBX 16 18 0 -2
BITMAP
0000
0840
0880
09FC
1104
11FC
2104
31FC
5104
5000
13FE
1020
1020
11FE
1020
1020
17FF
0000
ENDCHAR

STARTCHAR cns2_3361
ENCODING 41779
SWIDTH 854 0
DWIDTH 16 0
BBX 16 18 0 -2
BITMAP
0000
09FC
0908
1210
17FE
1202
2202
33FE
5202
5202
13FE
1202
1202
13FE
1088
1104
1603
0000
ENDCHAR

STARTCHAR cns1_5877
ENCODING 41780
SWIDTH 854 0
DWIDTH 16 0
BBX 16 18 0 -2
BITMAP
0000
0488
0888
0FFF
1088
1098
3020
37FF
5040
1080
1100
12FE
1482
1082
1082
10FE
1082
0000
ENDCHAR

STARTCHAR cns1_5922
ENCODING 41781
SWIDTH 854 0
DWIDTH 16 0
BBX 16 18 0 -2
BITMAP
0000
0860
0850
0888
1104
12FB
2400
33C2
5252
5252
13D2
1252
1252
13D2
1252
1242
14C6
0000
ENDCHAR

STARTCHAR ccdc_A336
ENCODING 41782
SWIDTH 854 0
DWIDTH 16 0
BBX 16 18 0 -2
BITMAP
0000
0482
0442
0824
0808
11FF
1048
2848
2844
4884
4902
0AFF
08AA
08AA
08AA
08AA
09FF
0000
ENDCHAR

STARTCHAR cns2_3A3A
ENCODING 41783
SWIDTH 854 0
DWIDTH 16 0
BBX 16 18 0 -2
BITMAP
0000
0820
0820
17FF
1020
13FE
2040
37FF
5088
5124
1222
1525
10A8
1020
10A8
1124
1262
0000
ENDCHAR

STARTCHAR cns2_3A39
ENCODING 41784
SWIDTH 854 0
DWIDTH 16 0
BBX 16 18 0 -2
BITMAP
0000
0888
0888
17FF
1088
13FE
2088
37FF
5020
53FE
1222
13FE
1222
17FF
1202
1202
1206
0000
ENDCHAR

STARTCHAR cns2_3A42
ENCODING 41785
SWIDTH 854 0
DWIDTH 16 0
BBX 16 18 0 -2
BITMAP
0000
081E
0BE0
0A10
121E
1210
22FF
3291
52BC
5292
129E
1280
12A8
14A8
14A8
1529
154F
0000
ENDCHAR

STARTCHAR cns3_3970
ENCODING 41786
SWIDTH 854 0
DWIDTH 16 0
BBX 16 18 0 -2
BITMAP
0000
0000
0410
0810
0BFF
1044
1188
2074
5022
13FF
1001
11FE
1112
11FE
1112
11FE
1102
0000
ENDCHAR

STARTCHAR cns2_3A3C
ENCODING 41787
SWIDTH 854 0
DWIDTH 16 0
BBX 16 18 0 -2
BITMAP
0000
0800
09FF
0910
1110
11FE
2110
3110
51FE
5110
1110
11FF
1001
1015
1155
1141
1206
0000
ENDCHAR

STARTCHAR cns1_5E29
ENCODING 41788
SWIDTH 854 0
DWIDTH 16 0
BBX 16 18 0 -2
BITMAP
0000
0820
0820
13FE
1202
32FA
3020
5041
13A2
1034
1058
1394
1034
1054
1392
1012
1061
0000
ENDCHAR

STARTCHAR cns2_3A35
ENCODING 41789
SWIDTH 854 0
DWIDTH 16 0
BBX 16 18 0 -2
BITMAP
0000
0820
0820
17FF
1401
1108
2224
3452
5088
5104
1202
15FD
1104
1104
1104
11FC
1104
0000
ENDCHAR

STARTCHAR cns2_3A3B
ENCODING 41790
SWIDTH 854 0
DWIDTH 16 0
BBX 16 18 0 -2
BITMAP
0000
0820
0820
0BFF
1020
11FE
2020
37FF
5040
5288
1112
10A7
17F9
1020
11AC
1222
1421
0000
ENDCHAR

STARTCHAR cns2_3A36
ENCODING 41791
SWIDTH 854 0
DWIDTH 16 0
BBX 16 18 0 -2
BITMAP
0000
0820
0820
17FF
1401
14A1
2090
31FE
5310
5510
19FE
1110
1110
11FE
1110
1110
11FE
0000
ENDCHAR

STARTCHAR cns2_3A3E
ENCODING 41792
SWIDTH 854 0
DWIDTH 16 0
BBX 16 18 0 -2
BITMAP
0000
0000
09FE
1902
11FE
1102
21FE
3000
5000
57DF
1249
1145
10C3
1145
1249
1451
10C3
0000
ENDCHAR

STARTCHAR cns2_3A3F
ENCODING 41793
SWIDTH 854 0
DWIDTH 16 0
BBX 16 18 0 -2
BITMAP
0000
0800
0888
088A
12EF
1288
2288
32E9
570F
5020
1020
17FF
1070
10A8
1124
1222
1421
0000
ENDCHAR

STARTCHAR cns2_3A40
ENCODING 41794
SWIDTH 854 0
DWIDTH 16 0
BBX 16 18 0 -2
BITMAP
0000
0420
0840
08FE
1104
1248
3130
30E0
5300
11FC
1220
1020
17FF
1020
1222
13FE
1202
0000
ENDCHAR

STARTCHAR ccdc_A343
ENCODING 41795
SWIDTH 854 0
DWIDTH 16 0
BBX 16 18 0 -2
BITMAP
0000
1000
17EF
1129
1129
17FA
212A
312C
57EC
510A
1209
17E9
1A29
1229
122E
13E8
1228
0000
ENDCHAR

STARTCHAR cns2_3A43
ENCODING 41796
SWIDTH 854 0
DWIDTH 16 0
BBX 16 18 0 -2
BITMAP
0000
0884
0BFF
0884
1000
13FF
2104
3104
51FC
5104
11FC
1104
113F
13C4
1004
1004
1004
0000
ENDCHAR

STARTCHAR ccdc_A345
ENCODING 41797
SWIDTH 854 0
DWIDTH 16 0
BBX 16 18 0 -2
BITMAP
0000
09FC
0924
0924
1154
118C
27FF
3401
55FD
5505
1104
11FC
1104
11FC
1104
1104
110C
0000
ENDCHAR

STARTCHAR ccdc_A346
ENCODING 41798
SWIDTH 854 0
DWIDTH 16 0
BBX 16 18 0 -2
BITMAP
0000
0820
0820
17FF
1020
13FE
2040
37FF
5088
5104
12FA
1421
11FC
1020
10A8
1124
1262
0000
ENDCHAR

STARTCHAR ccdc_A347
ENCODING 41799
SWIDTH 854 0
DWIDTH 16 0
BBX 16 18 0 -2
BITMAP
0000
0820
0A22
0A22
13FE
1222
2050
3088
5104
52FA
1C01
13FE
1252
13FE
1252
1252
1252
0000
ENDCHAR

STARTCHAR cns3_403E
ENCODING 41800
SWIDTH 854 0
DWIDTH 16 0
BBX 16 18 0 -2
BITMAP
0000
0000
0464
0B84
0884
13E4
109F
27F5
5495
17F5
1495
17F5
1085
17E9
1089
17F1
1026
0000
ENDCHAR

STARTCHAR ccdc_A349
ENCODING 41801
SWIDTH 854 0
DWIDTH 16 0
BBX 16 18 0 -2
BITMAP
0000
0A08
0FDF
0924
1082
17FE
2022
3022
57FE
5420
1420
17FF
1061
10A1
1121
1226
1420
0000
ENDCHAR

STARTCHAR cns3_4036
ENCODING 41802
SWIDTH 854 0
DWIDTH 16 0
BBX 16 18 0 -2
BITMAP
0000
0000
0508
0BE8
0908
1108
17DF
2552
57D2
1552
156A
17CA
1104
17E4
110C
1132
1101
0000
ENDCHAR

STARTCHAR ccdc_A34B
ENCODING 41803
SWIDTH 854 0
DWIDTH 16 0
BBX 16 18 0 -2
BITMAP
0000
0908
0908
17D0
111F
17E9
2549
3548
57C8
5548
1554
17D4
1114
17D2
1122
1121
1141
0000
ENDCHAR

STARTCHAR cns2_4169
ENCODING 41804
SWIDTH 854 0
DWIDTH 16 0
BBX 16 18 0 -2
BITMAP
0000
0820
0820
1020
17FF
1020
22AA
3124
52AA
5421
12AA
1154
12DA
1450
1088
1104
1603
0000
ENDCHAR

STARTCHAR ccdc_A34D
ENCODING 41805
SWIDTH 854 0
DWIDTH 16 0
BBX 16 18 0 -2
BITMAP
0000
0884
0884
0884
17E8
1088
23EF
32BA
52AA
53EA
108A
11C4
11A4
1284
128A
1492
10A1
0000
ENDCHAR

STARTCHAR cns2_4159
ENCODING 41806
SWIDTH 854 0
DWIDTH 16 0
BBX 16 18 0 -2
BITMAP
0000
0820
0BFE
0888
1088
17FF
2000
33FE
5202
53FE
1202
13FE
1020
17FF
1020
1020
1020
0000
ENDCHAR

STARTCHAR cns1_6333
ENCODING 41807
SWIDTH 854 0
DWIDTH 16 0
BBX 16 18 0 -2
BITMAP
0000
0900
0BFE
0A8A
0A52
0A22
1252
13FE
3098
510F
1280
14FC
1184
1648
1030
10CC
1303
0000
ENDCHAR

STARTCHAR cns2_4164
ENCODING 41808
SWIDTH 854 0
DWIDTH 16 0
BBX 16 18 0 -2
BITMAP
0000
0880
08EF
0922
12B4
1448
2284
3102
52FD
5400
1000
13FF
1020
10A8
1124
1622
1020
0000
ENDCHAR

STARTCHAR cns2_4160
ENCODING 41809
SWIDTH 854 0
DWIDTH 16 0
BBX 16 18 0 -2
BITMAP
0000
0400
05FE
0902
09FE
1102
19FE
2800
2BFF
4A45
0BFF
0800
0BFF
0884
0848
0830
0FCE
0000
ENDCHAR

STARTCHAR cns3_4037
ENCODING 41810
SWIDTH 854 0
DWIDTH 16 0
BBX 16 18 0 -2
BITMAP
0000
0000
0484
0BFF
0884
10FC
1020
21FE
5122
11FE
1020
17FF
1020
17FF
1050
1088
1106
0000
ENDCHAR

STARTCHAR cns2_415A
ENCODING 41811
SWIDTH 854 0
DWIDTH 16 0
BBX 16 18 0 -2
BITMAP
0000
0800
0BFE
0820
113C
1120
2120
37FE
5080
50FC
1100
11FF
1001
1029
12A9
1281
1406
0000
ENDCHAR

STARTCHAR cns2_415B
ENCODING 41812
SWIDTH 854 0
DWIDTH 16 0
BBX 16 18 0 -2
BITMAP
0000
0810
0A10
0AFE
1110
107C
2F54
317C
5254
577C
1154
1110
12FE
1210
1510
1880
107F
0000
ENDCHAR

STARTCHAR cns2_415C
ENCODING 41813
SWIDTH 854 0
DWIDTH 16 0
BBX 16 18 0 -2
BITMAP
0000
0848
0848
13FF
1048
13FF
2249
33FF
5249
53FF
5000
1000
11FE
1102
11FE
1102
11FE
0000
ENDCHAR

STARTCHAR cns2_415D
ENCODING 41814
SWIDTH 854 0
DWIDTH 16 0
BBX 16 18 0 -2
BITMAP
0000
0BFE
0848
0BFE
124A
124A
23FE
3000
53FE
5000
17FF
1020
1128
1224
1422
10A1
1060
0000
ENDCHAR

STARTCHAR cns1_6334
ENCODING 41815
SWIDTH 854 0
DWIDTH 16 0
BBX 16 18 0 -2
BITMAP
0000
0820
0840
09FE
0912
1152
1122
1156
311A
5166
11FE
1010
100A
1149
1140
1244
143C
0000
ENDCHAR

STARTCHAR cns2_4162
ENCODING 41816
SWIDTH 854 0
DWIDTH 16 0
BBX 16 18 0 -2
BITMAP
0000
1020
1421
1421
17FF
1000
27DF
3451
5451
57DF
1451
1451
17DF
1451
1451
1451
14D3
0000
ENDCHAR

STARTCHAR cns2_4163
ENCODING 41817
SWIDTH 854 0
DWIDTH 16 0
BBX 16 18 0 -2
BITMAP
0000
081E
0BE0
0924
10A8
17FF
2070
30A8
50A8
5124
1623
1000
10A2
1291
1281
1485
14FC
0000
ENDCHAR

STARTCHAR cns2_4165
ENCODING 41818
SWIDTH 854 0
DWIDTH 16 0
BBX 16 18 0 -2
BITMAP
0000
08A2
0922
0A24
1454
108A
2091
3108
5308
5528
112F
1128
1128
1128
1158
118C
1103
0000
ENDCHAR

STARTCHAR cns2_4166
ENCODING 41819
SWIDTH 854 0
DWIDTH 16 0
BBX 16 18 0 -2
BITMAP
0000
0860
0898
0974
1603
11FC
1008
2010
53FC
5204
13FC
1204
13FC
1204
13FC
1198
1606
0000
ENDCHAR

STARTCHAR cns3_456C
ENCODING 41820
SWIDTH 854 0
DWIDTH 16 0
BBX 16 18 0 -2
BITMAP
0000
0884
0884
0BFF
1084
10FC
2000
27FF
5020
13FE
1222
13FE
1222
13FE
1088
1104
1603
0000
ENDCHAR

STARTCHAR cns2_4925
ENCODING 41821
SWIDTH 854 0
DWIDTH 16 0
BBX 16 18 0 -2
BITMAP
0000
0904
0904
17DF
1104
1104
27DF
3104
528A
5231
15FE
1102
1102
11FE
1102
1102
11FE
0000
ENDCHAR

STARTCHAR cns3_4571
ENCODING 41822
SWIDTH 854 0
DWIDTH 16 0
BBX 16 18 0 -2
BITMAP
0000
0000
0400
07FF
0848
09CE
1102
3102
51CE
1048
13FF
1000
12A0
1292
1285
1485
107C
0000
ENDCHAR

STARTCHAR cns3_4570
ENCODING 41823
SWIDTH 854 0
DWIDTH 16 0
BBX 16 18 0 -2
BITMAP
0000
0000
0420
07FF
0820
0BFE
1222
33FE
5222
13FE
1022
13FE
1001
12A2
1295
1485
107C
0000
ENDCHAR

STARTCHAR cns3_4574
ENCODING 41824
SWIDTH 854 0
DWIDTH 16 0
BBX 16 18 0 -2
BITMAP
0000
0000
0FDF
1451
17DF
2451
5451
17DF
1401
15FD
1505
15FD
1505
15FD
1505
1401
1407
0000
ENDCHAR

STARTCHAR ccdc_A361
ENCODING 41825
SWIDTH 854 0
DWIDTH 16 0
BBX 16 18 0 -2
BITMAP
0000
08A0
0920
09FE
1220
1020
2FFF
3020
5124
5514
17DF
1924
11C4
173F
1104
1104
1104
0000
ENDCHAR

STARTCHAR ccdc_A362
ENCODING 41826
SWIDTH 854 0
DWIDTH 16 0
BBX 16 18 0 -2
BITMAP
0000
0180
0240
0C30
13C8
2004
47E3
0420
07E0
0810
7FFF
0810
0242
0C4C
1470
2441
443F
0000
ENDCHAR

STARTCHAR ccdc_A363
ENCODING 41827
SWIDTH 854 0
DWIDTH 16 0
BBX 16 18 0 -2
BITMAP
0000
0888
0888
13FE
1050
1252
2154
3050
57FF
5000
11FC
1104
1104
11FC
1104
1104
11FC
0000
ENDCHAR

STARTCHAR cns2_4922
ENCODING 41828
SWIDTH 854 0
DWIDTH 16 0
BBX 16 18 0 -2
BITMAP
0000
0908
0908
0A10
13FF
1210
2610
33FE
5210
5210
13FE
1210
1210
13FF
1000
1492
1849
0000
ENDCHAR

STARTCHAR cns2_487D
ENCODING 41829
SWIDTH 854 0
DWIDTH 16 0
BBX 16 18 0 -2
BITMAP
0000
0BFF
0A01
0BFF
1200
12FE
220C
3210
53FF
5210
1230
13EF
1242
1484
17DF
1484
118C
0000
ENDCHAR

STARTCHAR cns2_487E
ENCODING 41830
SWIDTH 854 0
DWIDTH 16 0
BBX 16 18 0 -2
BITMAP
0000
0800
0BDE
0A52
1252
13DE
2000
33FE
5222
53FE
1222
13FE
1020
17FF
1020
1020
1020
0000
ENDCHAR

STARTCHAR cns2_4921
ENCODING 41831
SWIDTH 854 0
DWIDTH 16 0
BBX 16 18 0 -2
BITMAP
0000
0820
0BFE
0A22
13FE
1020
27FF
3000
53FE
5202
13FE
1202
13FE
1202
13FE
1088
1707
0000
ENDCHAR

STARTCHAR cns2_487B
ENCODING 41832
SWIDTH 854 0
DWIDTH 16 0
BBX 16 18 0 -2
BITMAP
0000
0A48
0A48
17E8
1248
124F
23D5
3255
5265
53C6
1244
1244
17E4
100A
124A
122A
1431
0000
ENDCHAR

STARTCHAR cns2_487C
ENCODING 41833
SWIDTH 854 0
DWIDTH 16 0
BBX 16 18 0 -2
BITMAP
0000
0400
05FE
0804
0828
1010
1BFF
2891
2912
4830
4BFF
0A85
0B03
0AFD
0A85
0AFD
0A01
0000
ENDCHAR

STARTCHAR cns2_4877
ENCODING 41834
SWIDTH 854 0
DWIDTH 16 0
BBX 16 18 0 -2
BITMAP
0000
0884
0848
0BFE
1050
11FE
2152
319E
5102
51FE
1102
11FE
1008
13FF
1088
1048
1018
0000
ENDCHAR

STARTCHAR cns2_4F4E
ENCODING 41835
SWIDTH 854 0
DWIDTH 16 0
BBX 16 18 0 -2
BITMAP
0000
0820
0FFF
1401
1489
15FD
2088
31FC
5088
57FF
1088
1124
1222
15FD
1020
1020
13FE
0000
ENDCHAR

STARTCHAR cns2_4F4F
ENCODING 41836
SWIDTH 854 0
DWIDTH 16 0
BBX 16 18 0 -2
BITMAP
0820
0FFF
0800
13FE
1202
12FA
228A
32FA
5202
53FE
1000
11FC
1104
11FC
1104
11FC
1000
17FF
ENDCHAR

STARTCHAR cns2_4F50
ENCODING 41837
SWIDTH 854 0
DWIDTH 16 0
BBX 16 18 0 -2
BITMAP
0000
1088
17FF
1088
1110
1090
27FC
3084
50FE
5102
11FF
1201
1401
12A9
14A5
1001
1006
0000
ENDCHAR

STARTCHAR cns2_4F51
ENCODING 41838
SWIDTH 854 0
DWIDTH 16 0
BBX 16 18 0 -2
BITMAP
0000
0904
0904
17DF
1104
138E
2515
3524
5000
53FE
1000
17FF
1020
10A8
1124
1222
1460
0000
ENDCHAR

STARTCHAR cns2_4F58
ENCODING 41839
SWIDTH 854 0
DWIDTH 16 0
BBX 16 18 0 -2
BITMAP
0000
0848
0BA9
0929
111A
17DC
2108
3308
5594
5554
1122
1101
10A2
1292
1285
1285
147C
0000
ENDCHAR

STARTCHAR cns2_4F54
ENCODING 41840
SWIDTH 854 0
DWIDTH 16 0
BBX 16 18 0 -2
BITMAP
0000
1000
17FF
1451
1451
17DF
2050
37DF
5451
5451
17DF
1451
1451
17DF
1050
1050
107F
0000
ENDCHAR

STARTCHAR cns1_6C28
ENCODING 41841
SWIDTH 854 0
DWIDTH 16 0
BBX 16 18 0 -2
BITMAP
0000
0820
0924
08A8
17FF
1401
21FC
3104
5104
51FC
1000
13FE
1222
13FE
1222
13FE
1202
0000
ENDCHAR

STARTCHAR cns3_4B2B
ENCODING 41842
SWIDTH 854 0
DWIDTH 16 0
BBX 16 18 0 -2
BITMAP
0000
0000
0448
05FE
054A
09FE
094A
11FE
3000
53FF
1000
11FE
1102
11FE
1084
1048
17FF
0000
ENDCHAR

STARTCHAR cns3_4B2C
ENCODING 41843
SWIDTH 854 0
DWIDTH 16 0
BBX 16 18 0 -2
BITMAP
0000
0000
04A8
0652
0AAA
0A52
12AA
33FE
5091
111F
1640
10FE
1102
164C
1030
10CC
1703
0000
ENDCHAR

STARTCHAR ccdc_A374
ENCODING 41844
SWIDTH 854 0
DWIDTH 16 0
BBX 16 18 0 -2
BITMAP
0000
0888
0BFF
1088
11FC
1020
27FF
3020
53FE
5222
13FE
1222
13FE
1020
13FE
1020
17FF
0000
ENDCHAR

STARTCHAR cns3_4B29
ENCODING 41845
SWIDTH 854 0
DWIDTH 16 0
BBX 16 18 0 -2
BITMAP
0000
0000
0888
0FFF
0888
1124
3124
57FF
1124
113C
1100
11FE
1020
17FF
1070
10AC
1723
0000
ENDCHAR

STARTCHAR cns2_4F59
ENCODING 41846
SWIDTH 854 0
DWIDTH 16 0
BBX 16 18 0 -2
BITMAP
0000
0904
0904
17DF
1104
138E
2555
3555
5104
5000
17FE
1022
1220
123C
1220
1520
18FF
0000
ENDCHAR

STARTCHAR cns2_563F
ENCODING 41847
SWIDTH 854 0
DWIDTH 16 0
BBX 16 18 0 -2
BITMAP
0000
0820
0FFF
1441
14A5
128A
22F8
3000
53FC
5294
1294
17FF
1000
13FE
1020
1020
1060
0000
ENDCHAR

STARTCHAR cns2_5643
ENCODING 41848
SWIDTH 854 0
DWIDTH 16 0
BBX 16 18 0 -2
BITMAP
0000
0800
0BFE
0A02
13FE
1202
23FE
3104
5249
569A
1104
1249
17DF
1000
1492
1449
1849
0000
ENDCHAR

STARTCHAR ccdc_A379
ENCODING 41849
SWIDTH 854 0
DWIDTH 16 0
BBX 16 18 0 -2
BITMAP
0000
13FE
1202
12FA
2242
22F2
62F2
6292
22F2
22FA
2282
22FD
2415
24AD
2555
2899
2810
0000
ENDCHAR

STARTCHAR cns2_5642
ENCODING 41850
SWIDTH 854 0
DWIDTH 16 0
BBX 16 18 0 -2
BITMAP
0000
0890
0BFE
1090
1000
13FE
2252
33FE
5000
57FF
1441
14FD
1104
12E8
1410
1060
1780
0000
ENDCHAR

STARTCHAR cns2_5640
ENCODING 41851
SWIDTH 854 0
DWIDTH 16 0
BBX 16 18 0 -2
BITMAP
0000
0820
0BFE
0820
11FC
1000
21FC
3104
57FF
5401
11FC
1082
13FE
1021
11FC
1020
17FF
0000
ENDCHAR

STARTCHAR ccdc_A37C
ENCODING 41852
SWIDTH 854 0
DWIDTH 16 0
BBX 16 18 0 -2
BITMAP
0000
1248
1492
1924
14A0
127F
2024
27A4
523F
53A4
14A4
14BF
17A4
14A4
1124
123F
1400
0000
ENDCHAR

STARTCHAR ccdc_A37D
ENCODING 41853
SWIDTH 854 0
DWIDTH 16 0
BBX 16 18 0 -2
BITMAP
0000
0800
0FFF
1020
112C
1223
27FE
3222
5376
52AA
1376
1222
1376
12AA
1376
1222
1226
0000
ENDCHAR

STARTCHAR cns3_5033
ENCODING 41854
SWIDTH 854 0
DWIDTH 16 0
BBX 16 18 0 -2
BITMAP
0000
0020
0BFF
0800
11FE
1102
21FE
3000
53FF
5201
13FF
1030
10D6
1318
1074
1392
1061
0000
ENDCHAR

STARTCHAR cns1_4F73
ENCODING 41889
SWIDTH 854 0
DWIDTH 16 0
BBX 16 18 0 -2
BITMAP
0000
0400
04FE
0482
0882
0882
18FE
2810
2820
4820
49FF
0901
0901
0901
0901
09FF
0901
0000
ENDCHAR

STARTCHAR cns1_4F6D
ENCODING 41890
SWIDTH 854 0
DWIDTH 16 0
BBX 16 18 0 -2
BITMAP
0000
0800
0BFF
1020
13FE
3222
3222
53FE
1222
1222
13FE
1020
10A0
1040
10A0
1118
1607
0000
ENDCHAR

STARTCHAR cns1_4F7B
ENCODING 41891
SWIDTH 854 0
DWIDTH 16 0
BBX 16 18 0 -2
BITMAP
0000
080E
0BF0
0840
1088
1110
30A4
3042
508E
17F1
1021
1020
1128
1124
1222
1422
1020
0000
ENDCHAR

STARTCHAR cns1_4F72
ENCODING 41892
SWIDTH 854 0
DWIDTH 16 0
BBX 16 18 0 -2
BITMAP
0000
0400
09FE
0902
1102
1102
31FE
3020
5020
1020
1120
113E
1120
1120
1120
12A0
147F
0000
ENDCHAR

STARTCHAR cns1_4F7A
ENCODING 41893
SWIDTH 854 0
DWIDTH 16 0
BBX 16 18 0 -2
BITMAP
0000
0810
09D0
1714
1112
3110
37FF
5110
5112
1112
11D4
1708
1110
1128
1149
1105
1302
0000
ENDCHAR

STARTCHAR cns1_4F76
ENCODING 41894
SWIDTH 854 0
DWIDTH 16 0
BBX 16 18 0 -2
BITMAP
0000
0480
0884
091E
17E1
1091
3090
3111
561F
1040
10FC
1104
1288
1050
1020
10D8
1707
0000
ENDCHAR

STARTCHAR cns1_4F7D
ENCODING 41895
SWIDTH 854 0
DWIDTH 16 0
BBX 16 18 0 -2
BITMAP
0000
0400
047E
0842
0842
1442
127E
2142
4442
0442
0842
087E
1442
1242
2142
4042
03FF
0000
ENDCHAR

STARTCHAR cns1_4F70
ENCODING 41896
SWIDTH 854 0
DWIDTH 16 0
BBX 16 18 0 -2
BITMAP
0000
0420
0924
08A8
10A8
1020
31FC
3104
5144
1164
1134
1104
1114
1174
1144
1104
110C
0000
ENDCHAR

STARTCHAR cns1_4F79
ENCODING 41897
SWIDTH 854 0
DWIDTH 16 0
BBX 16 18 0 -2
BITMAP
0000
0861
0B81
1081
1089
17E9
2089
3189
51C9
52A9
12A9
1489
1489
1081
1081
1081
1083
0000
ENDCHAR

STARTCHAR cns1_4F6F
ENCODING 41898
SWIDTH 854 0
DWIDTH 16 0
BBX 16 18 0 -2
BITMAP
0000
0800
0BFE
0804
1088
1050
13FE
2222
3222
53FE
5222
1222
13FE
1222
1222
1222
1226
0000
ENDCHAR

STARTCHAR cns1_4F77
ENCODING 41899
SWIDTH 854 0
DWIDTH 16 0
BBX 16 18 0 -2
BITMAP
0000
0400
0888
0904
1202
1421
3050
3088
5104
1202
1401
11FC
1104
1104
1104
1104
11FC
0000
ENDCHAR

STARTCHAR cns1_4F74
ENCODING 41900
SWIDTH 854 0
DWIDTH 16 0
BBX 16 18 0 -2
BITMAP
0000
003C
09C2
0A42
1124
10A8
23FC
3008
5010
5020
1020
13FE
1020
1020
1020
1020
1060
0000
ENDCHAR

STARTCHAR cns1_4F7C
ENCODING 41901
SWIDTH 854 0
DWIDTH 16 0
BBX 16 18 0 -2
BITMAP
0000
0800
0BFE
1222
1222
13FE
2222
3222
53FE
5222
1020
1020
13FE
1020
1020
1020
17FF
0000
ENDCHAR

STARTCHAR cns2_292B
ENCODING 41902
SWIDTH 854 0
DWIDTH 16 0
BBX 16 18 0 -2
BITMAP
0000
0840
0880
09F8
1210
1420
23FE
3222
5222
5222
13FE
1252
1050
1090
1090
1111
161F
0000
ENDCHAR

STARTCHAR cns1_4F71
ENCODING 41903
SWIDTH 854 0
DWIDTH 16 0
BBX 16 18 0 -2
BITMAP
0000
0400
09FE
0902
1102
1102
3102
31FE
5020
1020
13FF
1020
1070
10A8
1124
1222
1421
0000
ENDCHAR

STARTCHAR cns1_4F75
ENCODING 41904
SWIDTH 854 0
DWIDTH 16 0
BBX 16 18 0 -2
BITMAP
0000
0840
0840
0888
113C
17C2
2100
3100
53FC
5440
1040
17FE
10A0
1090
1108
1204
1403
0000
ENDCHAR

STARTCHAR cns1_4F6E
ENCODING 41905
SWIDTH 854 0
DWIDTH 16 0
BBX 16 18 0 -2
BITMAP
0000
0820
0820
1020
13FE
3020
3124
5124
52AA
1431
1020
1050
1048
1084
1102
1601
1000
0000
ENDCHAR

STARTCHAR cns1_4F7E
ENCODING 41906
SWIDTH 854 0
DWIDTH 16 0
BBX 16 18 0 -2
BITMAP
0000
0080
0140
0220
0410
1BEC
6003
1F04
1124
1124
1F24
1124
1124
1F24
1124
1124
130C
0000
ENDCHAR

STARTCHAR cns3_2F4F
ENCODING 41907
SWIDTH 854 0
DWIDTH 16 0
BBX 16 18 0 -2
BITMAP
0000
0000
0420
0420
0BFF
0824
1124
1224
232A
34B1
5460
1070
10A8
1124
1222
1421
1020
0000
ENDCHAR

STARTCHAR cns1_4F6A
ENCODING 41908
SWIDTH 854 0
DWIDTH 16 0
BBX 16 18 0 -2
BITMAP
0000
0400
0430
0810
0810
13FF
1000
3000
31FE
5000
11FE
1000
1000
11FE
1102
1102
11FE
0000
ENDCHAR

STARTCHAR cns1_543A
ENCODING 41909
SWIDTH 854 0
DWIDTH 16 0
BBX 16 18 0 -2
BITMAP
0000
0440
0840
087F
1084
1544
3428
5410
146C
1783
1410
1464
1589
1432
10C4
1018
10E0
0000
ENDCHAR

STARTCHAR cns2_2D75
ENCODING 41910
SWIDTH 854 0
DWIDTH 16 0
BBX 16 18 0 -2
BITMAP
0000
0900
0900
091F
11C9
1109
2109
37EA
510A
510A
1544
1524
1524
110A
1112
1321
1040
0000
ENDCHAR

STARTCHAR cns1_5431
ENCODING 41911
SWIDTH 854 0
DWIDTH 16 0
BBX 16 18 0 -2
BITMAP
0000
0400
09FE
0900
11FC
1100
31FC
3100
5100
17FE
1100
1124
1128
1110
1128
11C4
1703
0000
ENDCHAR

STARTCHAR cns2_2D6A
ENCODING 41912
SWIDTH 854 0
DWIDTH 16 0
BBX 16 18 0 -2
BITMAP
0000
0820
0820
13FE
1000
1088
2088
3154
5212
5420
1020
17FF
1020
1020
1020
1020
1020
0000
ENDCHAR

STARTCHAR cns1_5421
ENCODING 41913
SWIDTH 854 0
DWIDTH 16 0
BBX 16 18 0 -2
BITMAP
0000
0820
0820
17FF
1401
3401
31FC
5104
5104
11FC
1100
1100
11FE
1102
1102
11FE
1100
0000
ENDCHAR

STARTCHAR cns2_2D74
ENCODING 41914
SWIDTH 854 0
DWIDTH 16 0
BBX 16 18 0 -2
BITMAP
0000
0820
0820
083E
1020
1020
13FE
2202
33FE
5202
53FE
1222
1020
17FF
1020
1020
1020
0000
ENDCHAR

STARTCHAR cns1_5424
ENCODING 41915
SWIDTH 854 0
DWIDTH 16 0
BBX 16 18 0 -2
BITMAP
0000
0820
0820
13FF
1200
1244
2244
3284
52BF
5484
15A4
1694
1494
1484
1484
1484
108C
0000
ENDCHAR

STARTCHAR cns1_5434
ENCODING 41916
SWIDTH 854 0
DWIDTH 16 0
BBX 16 18 0 -2
BITMAP
0000
0400
09FE
0902
1102
11FE
3102
3102
51FE
1102
1102
11FE
1102
17FF
1084
1102
1601
0000
ENDCHAR

STARTCHAR cns1_5439
ENCODING 41917
SWIDTH 854 0
DWIDTH 16 0
BBX 16 18 0 -2
BITMAP
0000
0448
0848
0BCF
1048
1048
3048
31CE
5048
5048
1068
11CF
1648
1088
1088
1108
1608
0000
ENDCHAR

STARTCHAR cns2_2D70
ENCODING 41918
SWIDTH 854 0
DWIDTH 16 0
BBX 16 18 0 -2
BITMAP
0000
0420
0820
0BFE
1020
1020
33FE
3020
5020
17FF
1080
11A2
1294
1488
1084
10E2
1381
0000
ENDCHAR

STARTCHAR cns1_5427
ENCODING 41919
SWIDTH 854 0
DWIDTH 16 0
BBX 16 18 0 -2
BITMAP
0000
0420
0820
0BFE
1020
13FE
3050
57FF
1088
1124
1222
15FD
1020
1020
13FE
1020
1020
0000
ENDCHAR

STARTCHAR cns1_5430
ENCODING 41920
SWIDTH 854 0
DWIDTH 16 0
BBX 16 18 0 -2
BITMAP
0000
0420
0820
0BFE
1050
1088
3124
3222
55FF
5122
11FE
1122
11FE
1122
1020
1021
103F
0000
ENDCHAR

STARTCHAR cns1_543D
ENCODING 41921
SWIDTH 854 0
DWIDTH 16 0
BBX 16 18 0 -2
BITMAP
0000
0820
0840
0BFE
1222
1222
13FE
2222
3222
53FE
5090
1110
17FF
1010
1010
1010
1010
0000
ENDCHAR

STARTCHAR cns1_543F
ENCODING 41922
SWIDTH 854 0
DWIDTH 16 0
BBX 16 18 0 -2
BITMAP
0000
0080
0140
0220
0410
0BE8
1004
6FFB
0808
0FF8
0808
0FF8
0800
0FFC
1404
2404
47FC
0000
ENDCHAR

STARTCHAR cns1_5436
ENCODING 41923
SWIDTH 854 0
DWIDTH 16 0
BBX 16 18 0 -2
BITMAP
0000
0400
09FF
0901
1111
1111
31FF
3111
5111
117D
1145
1145
1145
117D
1101
11FF
1101
0000
ENDCHAR

STARTCHAR cns1_5422
ENCODING 41924
SWIDTH 854 0
DWIDTH 16 0
BBX 16 18 0 -2
BITMAP
0000
0420
0820
0BFF
1084
1084
3048
3048
57FF
1000
1000
11FE
1102
1102
1102
1102
11FE
0000
ENDCHAR

STARTCHAR cns1_542A
ENCODING 41925
SWIDTH 854 0
DWIDTH 16 0
BBX 16 18 0 -2
BITMAP
0000
0800
0BFF
0820
1020
13FE
2222
3222
53BA
52AA
12AA
12AA
1376
1222
1222
1202
1206
0000
ENDCHAR

STARTCHAR cns1_5924
ENCODING 41926
SWIDTH 854 0
DWIDTH 16 0
BBX 16 18 0 -2
BITMAP
0000
0820
0840
08FE
1544
1428
1410
346C
3583
5428
5424
15FE
1420
1450
1488
1104
1203
0000
ENDCHAR

STARTCHAR cns1_542F
ENCODING 41927
SWIDTH 854 0
DWIDTH 16 0
BBX 16 18 0 -2
BITMAP
0000
0800
0BDF
0A51
1251
13DF
2251
3251
53DF
5201
1201
1201
1201
1201
1201
1201
1207
0000
ENDCHAR

STARTCHAR cns1_542E
ENCODING 41928
SWIDTH 854 0
DWIDTH 16 0
BBX 16 18 0 -2
BITMAP
0000
0801
17E1
1109
2209
2249
64E9
6F29
2109
2109
2109
27C9
2109
2101
21E1
2F01
2003
0000
ENDCHAR

STARTCHAR cns1_5429
ENCODING 41929
SWIDTH 854 0
DWIDTH 16 0
BBX 16 18 0 -2
BITMAP
0000
0820
0820
13FE
1020
1020
27FF
3088
5088
5050
13FE
1020
1020
17FF
1020
1020
1020
0000
ENDCHAR

STARTCHAR cns1_5438
ENCODING 41930
SWIDTH 854 0
DWIDTH 16 0
BBX 16 18 0 -2
BITMAP
0000
0410
0512
0494
0858
0810
11FF
1901
2901
297D
4945
0945
0945
097D
0901
0901
0903
0000
ENDCHAR

STARTCHAR cns1_5437
ENCODING 41931
SWIDTH 854 0
DWIDTH 16 0
BBX 16 18 0 -2
BITMAP
0000
0800
08FE
1002
1402
35FF
3400
5440
54FE
1510
1410
15FF
1410
1428
1444
1082
1301
0000
ENDCHAR

STARTCHAR cns1_542D
ENCODING 41932
SWIDTH 854 0
DWIDTH 16 0
BBX 16 18 0 -2
BITMAP
0000
0840
0840
0BFE
10A0
1110
2208
37FF
5004
5004
13E4
1224
1224
13E4
1224
1004
101C
0000
ENDCHAR

STARTCHAR cns2_2D78
ENCODING 41933
SWIDTH 854 0
DWIDTH 16 0
BBX 16 18 0 -2
BITMAP
0000
0BFF
0A01
0A11
12FD
1211
2211
327D
5201
5201
12FD
1285
1285
12FD
1485
1401
1403
0000
ENDCHAR

STARTCHAR ccdc_A3CE
ENCODING 41934
SWIDTH 854 0
DWIDTH 16 0
BBX 16 18 0 -2
BITMAP
0000
0A04
0904
0888
1010
13DE
2084
3084
5084
57DF
1084
1084
1084
1104
1104
1204
1404
0000
ENDCHAR

STARTCHAR cns1_542C
ENCODING 41935
SWIDTH 854 0
DWIDTH 16 0
BBX 16 18 0 -2
BITMAP
0000
0448
0848
0BFF
1048
1048
3048
33FF
5000
1000
11FE
1102
1102
11FE
1102
1102
11FE
0000
ENDCHAR

STARTCHAR cns1_5435
ENCODING 41936
SWIDTH 854 0
DWIDTH 16 0
BBX 16 18 0 -2
BITMAP
0000
0800
09FC
0904
11FC
1104
11FC
2104
3000
53FE
5202
1202
13FE
1202
1202
13FE
1202
0000
ENDCHAR

STARTCHAR cns1_5423
ENCODING 41937
SWIDTH 854 0
DWIDTH 16 0
BBX 16 18 0 -2
BITMAP
0000
1108
1108
1110
27D0
321F
5232
53D2
1252
1252
1254
1254
1448
1448
1994
1022
1041
0000
ENDCHAR

STARTCHAR cns1_542B
ENCODING 41938
SWIDTH 854 0
DWIDTH 16 0
BBX 16 18 0 -2
BITMAP
0000
0810
09FF
1020
1040
30FE
3082
50FE
1082
10FE
1082
1082
10FE
1082
1082
11FF
1000
0000
ENDCHAR

STARTCHAR cns1_5426
ENCODING 41939
SWIDTH 854 0
DWIDTH 16 0
BBX 16 18 0 -2
BITMAP
0000
0820
0820
1020
17FF
1401
2401
3098
5104
5202
1401
11FC
1020
1020
1020
1020
17FF
0000
ENDCHAR

STARTCHAR cns1_5425
ENCODING 41940
SWIDTH 854 0
DWIDTH 16 0
BBX 16 18 0 -2
BITMAP
0000
0840
0950
10E0
13FC
2050
3088
57FF
5088
1104
12FA
1489
1088
1098
1081
1081
10FF
0000
ENDCHAR

STARTCHAR cns1_5433
ENCODING 41941
SWIDTH 854 0
DWIDTH 16 0
BBX 16 18 0 -2
BITMAP
0000
0800
0BFF
0A01
1201
13FF
2200
3210
53FF
5210
1210
12FE
1282
1282
1482
14FE
1082
0000
ENDCHAR

STARTCHAR cns1_5428
ENCODING 41942
SWIDTH 854 0
DWIDTH 16 0
BBX 16 18 0 -2
BITMAP
0000
0820
0820
0BFE
1020
11FC
1020
27FF
3000
51FC
5104
11FC
1104
11FC
1104
1104
110C
0000
ENDCHAR

STARTCHAR cns1_543C
ENCODING 41943
SWIDTH 854 0
DWIDTH 16 0
BBX 16 18 0 -2
BITMAP
0000
0800
08C0
0B1E
1202
1202
13DE
2202
3202
53FE
5252
1050
1090
1090
1110
1211
141F
0000
ENDCHAR

STARTCHAR cns1_543E
ENCODING 41944
SWIDTH 854 0
DWIDTH 16 0
BBX 16 18 0 -2
BITMAP
0000
0420
0850
0888
1104
1202
35FD
3000
5000
13FF
1249
1249
13FF
1249
1249
1249
124B
0000
ENDCHAR

STARTCHAR cns1_543B
ENCODING 41945
SWIDTH 854 0
DWIDTH 16 0
BBX 16 18 0 -2
BITMAP
0000
080C
0BF0
1020
1020
27FF
3070
50A8
5326
1401
1040
17FF
1088
1188
1070
10CC
1303
0000
ENDCHAR

STARTCHAR cns2_3358
ENCODING 41946
SWIDTH 854 0
DWIDTH 16 0
BBX 16 18 0 -2
BITMAP
0000
0800
0BFE
0A02
13FE
1202
23FE
3200
53FF
5401
1211
1211
1229
12C7
1201
13FF
1001
0000
ENDCHAR

STARTCHAR cns1_587C
ENCODING 41947
SWIDTH 854 0
DWIDTH 16 0
BBX 16 18 0 -2
BITMAP
0000
0BFE
0A22
0A22
13FE
1222
3222
33FE
5000
17FF
1100
1144
1128
1110
1108
11C4
1703
0000
ENDCHAR

STARTCHAR cns2_3357
ENCODING 41948
SWIDTH 854 0
DWIDTH 16 0
BBX 16 18 0 -2
BITMAP
0000
0800
0BFE
1222
1222
23FE
3222
3222
53FE
5000
5020
1294
1292
1281
1485
1484
10FC
0000
ENDCHAR

STARTCHAR cns2_335A
ENCODING 41949
SWIDTH 854 0
DWIDTH 16 0
BBX 16 18 0 -2
BITMAP
0000
001E
05E0
0802
1124
1094
2020
31FC
5124
5124
13FE
1124
1124
17FF
1104
1104
110C
0000
ENDCHAR

STARTCHAR cns1_5876
ENCODING 41950
SWIDTH 854 0
DWIDTH 16 0
BBX 16 18 0 -2
BITMAP
0000
0800
0BFF
0A00
12FE
1282
12FE
2282
32FE
5220
53FF
1244
12A8
1218
12E6
1200
13FF
0000
ENDCHAR

STARTCHAR cns1_5875
ENCODING 41951
SWIDTH 854 0
DWIDTH 16 0
BBX 16 18 0 -2
BITMAP
0000
0800
0BDF
0A41
1241
1241
23DF
3200
5200
53BF
1211
120A
13CA
1204
120A
1211
1260
0000
ENDCHAR

STARTCHAR cns1_5879
ENCODING 41952
SWIDTH 854 0
DWIDTH 16 0
BBX 16 18 0 -2
BITMAP
0000
0820
09FC
1024
1044
37FF
3000
51FE
5102
11FE
1010
13FE
1110
1110
17FF
1010
1010
0000
ENDCHAR

STARTCHAR cns1_5923
ENCODING 41953
SWIDTH 854 0
DWIDTH 16 0
BBX 16 18 0 -2
BITMAP
0000
0800
0BFF
1000
13FE
3202
3202
53FE
5200
1400
17FE
1652
1A52
13FE
1252
1252
1256
0000
ENDCHAR

STARTCHAR cns1_587D
ENCODING 41954
SWIDTH 854 0
DWIDTH 16 0
BBX 16 18 0 -2
BITMAP
0000
0A10
0A10
1210
13DE
2210
3210
52D1
571F
1020
11FE
1102
1102
11FE
1102
1102
11FE
0000
ENDCHAR

STARTCHAR cns1_5878
ENCODING 41955
SWIDTH 854 0
DWIDTH 16 0
BBX 16 18 0 -2
BITMAP
0000
0910
0910
0920
1120
17FF
2132
3152
5112
57D2
1454
1454
1448
17C8
1454
1022
10C1
0000
ENDCHAR

STARTCHAR cns1_5874
ENCODING 41956
SWIDTH 854 0
DWIDTH 16 0
BBX 16 18 0 -2
BITMAP
0000
0820
0820
17FF
1000
31FC
3104
51FC
1000
17FF
1401
15FD
1421
1020
1020
1020
10E0
0000
ENDCHAR

STARTCHAR cns1_587A
ENCODING 41957
SWIDTH 854 0
DWIDTH 16 0
BBX 16 18 0 -2
BITMAP
0000
0410
0810
0EFE
1212
12FF
3212
34FE
5410
177E
1110
1910
15FF
1210
1210
1580
187F
0000
ENDCHAR

STARTCHAR cns2_3350
ENCODING 41958
SWIDTH 854 0
DWIDTH 16 0
BBX 16 18 0 -2
BITMAP
0000
0800
0BFF
0800
1000
13FE
2202
3202
53FE
5000
17FF
1421
1421
17FF
1421
1421
17FF
0000
ENDCHAR

STARTCHAR cns1_5921
ENCODING 41959
SWIDTH 854 0
DWIDTH 16 0
BBX 16 18 0 -2
BITMAP
0000
0801
17C9
1449
1449
2449
27C9
6449
6449
27C9
2449
2449
2449
27C9
2281
2441
2823
0000
ENDCHAR

STARTCHAR cns1_587E
ENCODING 41960
SWIDTH 854 0
DWIDTH 16 0
BBX 16 18 0 -2
BITMAP
0000
0420
083F
0820
1020
11FE
3102
3102
51FE
1102
1102
11FE
1102
1102
11FE
1048
1386
0000
ENDCHAR

STARTCHAR cns1_587B
ENCODING 41961
SWIDTH 854 0
DWIDTH 16 0
BBX 16 18 0 -2
BITMAP
0000
0800
0BFE
1222
3222
53FE
1222
1222
13FE
1020
17FF
1421
1421
1425
143D
15E5
1403
0000
ENDCHAR

STARTCHAR cns2_3A3D
ENCODING 41962
SWIDTH 854 0
DWIDTH 16 0
BBX 16 18 0 -2
BITMAP
0000
0820
0BFE
0820
11FC
1104
21FC
3104
51FC
5104
11FC
1104
17FF
1000
1088
1104
1603
0000
ENDCHAR

STARTCHAR cns2_3A37
ENCODING 41963
SWIDTH 854 0
DWIDTH 16 0
BBX 16 18 0 -2
BITMAP
0000
0908
0890
17FF
1090
2090
33FE
1092
5092
57FF
1092
1092
13FE
1090
1198
1294
1492
0000
ENDCHAR

STARTCHAR cns1_5E2F
ENCODING 41964
SWIDTH 854 0
DWIDTH 16 0
BBX 16 18 0 -2
BITMAP
0000
0420
0850
0888
1104
12FA
3401
31FC
5104
11FC
1104
11FC
1200
15FC
1104
1104
11FC
0000
ENDCHAR

STARTCHAR cns1_5E2E
ENCODING 41965
SWIDTH 854 0
DWIDTH 16 0
BBX 16 18 0 -2
BITMAP
0000
0820
0840
13FE
1222
1222
23FE
3222
5222
53FE
1250
1054
1095
1097
1110
1211
141F
0000
ENDCHAR

STARTCHAR cns1_5E2B
ENCODING 41966
SWIDTH 854 0
DWIDTH 16 0
BBX 16 18 0 -2
BITMAP
0000
0828
0824
17FF
1020
13FE
2222
33FE
5222
53FE
1222
1008
17FF
1008
1108
1088
1018
0000
ENDCHAR

STARTCHAR cns1_5E2A
ENCODING 41967
SWIDTH 854 0
DWIDTH 16 0
BBX 16 18 0 -2
BITMAP
0000
0420
0820
0BFE
1088
1088
37FF
3421
5421
13FE
1080
1080
10FC
1084
1104
1104
1618
0000
ENDCHAR

STARTCHAR cns1_5E2D
ENCODING 41968
SWIDTH 854 0
DWIDTH 16 0
BBX 16 18 0 -2
BITMAP
0000
0A02
0BC2
125F
124A
354A
30BF
5102
1222
1020
17FF
1020
1070
10A8
1124
1222
1421
0000
ENDCHAR

STARTCHAR cns2_3A41
ENCODING 41969
SWIDTH 854 0
DWIDTH 16 0
BBX 16 18 0 -2
BITMAP
0000
081F
0BE2
1242
1124
1124
2040
3088
5050
5024
1042
11FE
1022
17FF
1050
118C
1603
0000
ENDCHAR

STARTCHAR cns2_3362
ENCODING 41970
SWIDTH 854 0
DWIDTH 16 0
BBX 16 18 0 -2
BITMAP
0000
0888
0908
127F
1488
2108
323E
5604
5A04
1204
12FF
1204
1264
1214
1204
1204
120C
0000
ENDCHAR

STARTCHAR cns1_5E30
ENCODING 41971
SWIDTH 854 0
DWIDTH 16 0
BBX 16 18 0 -2
BITMAP
0000
0080
0140
0630
188C
6483
0888
1494
22A2
0888
1494
22A2
0080
7FFF
0080
0080
0080
0000
ENDCHAR

STARTCHAR cns1_5E2C
ENCODING 41972
SWIDTH 854 0
DWIDTH 16 0
BBX 16 18 0 -2
BITMAP
0000
0488
0BFE
0888
1088
17FF
3200
32FE
5292
1292
12FE
1292
1292
12FE
1292
1492
1514
0000
ENDCHAR

STARTCHAR cns1_5E31
ENCODING 41973
SWIDTH 854 0
DWIDTH 16 0
BBX 16 18 0 -2
BITMAP
0000
0908
0908
1108
17D0
101F
22AA
344A
582A
508A
128A
1104
1104
128A
144A
1811
1061
0000
ENDCHAR

STARTCHAR cns2_3A38
ENCODING 41974
SWIDTH 854 0
DWIDTH 16 0
BBX 16 18 0 -2
BITMAP
0000
0904
0888
0BFE
1020
1020
21FC
3020
5020
57FF
1100
1100
12FE
1210
1410
1010
13FF
0000
ENDCHAR

STARTCHAR ccdc_A3F7
ENCODING 41975
SWIDTH 854 0
DWIDTH 16 0
BBX 16 18 0 -2
BITMAP
0000
080E
09F0
0800
1122
1092
2004
3000
51FC
5020
1020
1020
13FE
1020
1020
1020
17FF
0000
ENDCHAR

STARTCHAR cns1_6331
ENCODING 41976
SWIDTH 854 0
DWIDTH 16 0
BBX 16 18 0 -2
BITMAP
0000
0511
0911
09FF
1000
1090
3110
33FF
5510
1110
11FF
1110
1110
11FF
1110
1110
11FF
0000
ENDCHAR

STARTCHAR cns1_632B
ENCODING 41977
SWIDTH 854 0
DWIDTH 16 0
BBX 16 18 0 -2
BITMAP
0000
0820
0BFF
0A10
12FE
1212
23FF
3212
52FE
5210
12FE
1292
12FE
1292
12FE
1492
1496
0000
ENDCHAR

STARTCHAR cns1_632D
ENCODING 41978
SWIDTH 854 0
DWIDTH 16 0
BBX 16 18 0 -2
BITMAP
0000
0908
0908
17C8
1110
17DF
212A
312A
57CA
520A
13CA
1244
1244
1444
144A
1892
1361
0000
ENDCHAR

STARTCHAR cns1_632E
ENCODING 41979
SWIDTH 854 0
DWIDTH 16 0
BBX 16 18 0 -2
BITMAP
0000
0820
0BFF
0820
13FE
1222
13FE
2222
33FE
5021
53FF
1008
17FF
1008
1088
1048
1018
0000
ENDCHAR

STARTCHAR cns2_415F
ENCODING 41980
SWIDTH 854 0
DWIDTH 16 0
BBX 16 18 0 -2
BITMAP
0000
0800
0BFF
0A00
127C
1244
1244
227C
3244
5200
52EE
12AA
12AA
12EE
12AA
1200
13FF
0000
ENDCHAR

STARTCHAR cns1_632C
ENCODING 41981
SWIDTH 854 0
DWIDTH 16 0
BBX 16 18 0 -2
BITMAP
0000
0420
0BFE
0820
11FC
1020
37FF
3000
51FC
1104
11FC
1104
11FC
1104
11FC
1088
1306
0000
ENDCHAR

STARTCHAR cns1_6332
ENCODING 41982
SWIDTH 854 0
DWIDTH 16 0
BBX 16 18 0 -2
BITMAP
0000
0900
09FE
1200
15FC
3104
31FC
5104
11FC
1000
17FF
1080
11FE
124A
1492
1122
124C
0000
ENDCHAR

STARTCHAR cns2_5C4A
ENCODING 42017
SWIDTH 854 0
DWIDTH 16 0
BBX 16 18 0 -2
BITMAP
0000
1000
179E
1492
1492
149E
2792
3492
549E
57A0
14BF
14D5
1495
17A9
1249
1532
148C
0000
ENDCHAR

STARTCHAR cns2_5C49
ENCODING 42018
SWIDTH 854 0
DWIDTH 16 0
BBX 16 18 0 -2
BITMAP
0000
0892
0924
0A48
1124
13FE
228A
3272
528A
53FE
1000
12B4
1224
12B4
1264
13BA
1641
0000
ENDCHAR

STARTCHAR cns2_5C45
ENCODING 42019
SWIDTH 854 0
DWIDTH 16 0
BBX 16 18 0 -2
BITMAP
0000
0820
0820
17FF
1490
17FE
2492
3492
57FE
5510
15D6
1518
15D1
171F
1400
194A
1A25
0000
ENDCHAR

STARTCHAR cns2_5C46
ENCODING 42020
SWIDTH 854 0
DWIDTH 16 0
BBX 16 18 0 -2
BITMAP
0000
0820
0BFF
1020
13FE
1000
27FF
3489
57FF
5000
13FE
1202
13FE
1202
13FE
1108
1607
0000
ENDCHAR

STARTCHAR cns1_7342
ENCODING 42021
SWIDTH 854 0
DWIDTH 16 0
BBX 16 18 0 -2
BITMAP
0000
0800
0BFE
1222
13FE
1222
23FE
3202
5000
57DF
1555
1555
17DF
1555
1555
17DF
1451
0000
ENDCHAR

STARTCHAR cns2_5C47
ENCODING 42022
SWIDTH 854 0
DWIDTH 16 0
BBX 16 18 0 -2
BITMAP
0000
1078
1040
17FF
1441
15FC
2420
35FC
5524
55FC
1524
15FC
1400
14A2
1A91
1A85
1AFC
0000
ENDCHAR

STARTCHAR ccdc_A427
ENCODING 42023
SWIDTH 854 0
DWIDTH 16 0
BBX 16 18 0 -2
BITMAP
0000
1020
17FE
1224
2224
272E
20B1
6FFF
2801
23FC
2204
23C4
223C
2204
23FC
2198
2606
0000
ENDCHAR

STARTCHAR ccdc_A428
ENCODING 42024
SWIDTH 854 0
DWIDTH 16 0
BBX 16 18 0 -2
BITMAP
0000
1104
17DF
1104
17DF
1104
228A
3451
53FE
5202
13FE
1202
13FE
1202
13FE
1088
1707
0000
ENDCHAR

STARTCHAR ccdc_A429
ENCODING 42025
SWIDTH 854 0
DWIDTH 16 0
BBX 16 18 0 -2
BITMAP
0000
1088
17FF
1088
13FE
1202
23FE
3202
53FE
5040
1FFF
1108
1244
1562
1955
1252
10C2
0000
ENDCHAR

STARTCHAR ccdc_A42A
ENCODING 42026
SWIDTH 854 0
DWIDTH 16 0
BBX 16 18 0 -2
BITMAP
0000
17DF
1514
17DF
1208
1515
29D7
3000
53FE
5202
13FE
1202
13FE
1202
13FE
1088
1707
0000
ENDCHAR

STARTCHAR ccdc_A42B
ENCODING 42027
SWIDTH 854 0
DWIDTH 16 0
BBX 16 18 0 -2
BITMAP
0000
0800
0BFE
0820
17FF
1623
25AD
3421
55AD
5202
1104
17DF
1104
138E
1555
1525
1104
0000
ENDCHAR

STARTCHAR ccdc_A42C
ENCODING 42028
SWIDTH 854 0
DWIDTH 16 0
BBX 16 18 0 -2
BITMAP
0000
0900
091F
17C4
1104
111F
27D1
3551
555F
57D1
1111
111F
1391
1551
151F
110A
1131
0000
ENDCHAR

STARTCHAR ccdc_A42D
ENCODING 42029
SWIDTH 854 0
DWIDTH 16 0
BBX 16 18 0 -2
BITMAP
0000
0800
15EF
2421
22A5
4129
3E63
09AD
0810
3E20
08FE
0882
1882
2CFE
2A82
4A82
18FE
0000
ENDCHAR

STARTCHAR ccdc_A42E
ENCODING 42030
SWIDTH 854 0
DWIDTH 16 0
BBX 16 18 0 -2
BITMAP
0000
17F4
1084
17F4
108F
23E5
22A5
33E5
52A5
53E5
1085
13F5
1085
17F5
1009
1551
1556
0000
ENDCHAR

STARTCHAR cns2_6143
ENCODING 42031
SWIDTH 854 0
DWIDTH 16 0
BBX 16 18 0 -2
BITMAP
0000
0910
0910
17DE
1290
129F
2FE1
301F
57D0
545E
17D0
145E
1450
17DE
1450
1451
14DF
0000
ENDCHAR

STARTCHAR cns2_6144
ENCODING 42032
SWIDTH 854 0
DWIDTH 16 0
BBX 16 18 0 -2
BITMAP
0000
0900
091F
17D1
1091
129F
2291
37D1
511F
5111
17D1
111F
130A
158A
1552
1112
1123
0000
ENDCHAR

STARTCHAR cns2_6537
ENCODING 42033
SWIDTH 854 0
DWIDTH 16 0
BBX 16 18 0 -2
BITMAP
0000
0820
0FFF
0800
13DE
1252
23DE
3088
57FF
5088
13FE
1088
17FF
1040
11CA
1664
10C3
0000
ENDCHAR

STARTCHAR cns2_6538
ENCODING 42034
SWIDTH 854 0
DWIDTH 16 0
BBX 16 18 0 -2
BITMAP
0000
0880
08FF
1142
1024
1410
25EF
3400
55FF
5555
1555
15FF
1410
14FE
1410
11FF
10AA
0000
ENDCHAR

STARTCHAR cns3_5D7E
ENCODING 42035
SWIDTH 854 0
DWIDTH 16 0
BBX 16 18 0 -2
BITMAP
0000
1008
1F90
18BE
28A2
28BE
2FA2
623E
2220
3FFF
2220
273F
2681
2A55
3255
2295
2283
0000
ENDCHAR

STARTCHAR cns3_5C32
ENCODING 42036
SWIDTH 854 0
DWIDTH 16 0
BBX 16 18 0 -2
BITMAP
0000
0522
0522
09FE
0890
11FE
1310
35FE
5110
11FE
1100
13FF
1249
138F
1279
1249
127B
0000
ENDCHAR

STARTCHAR cns2_6B4F
ENCODING 42037
SWIDTH 854 0
DWIDTH 16 0
BBX 16 18 0 -2
BITMAP
0000
1514
17DF
1104
17DF
128A
24D3
3000
53FC
5204
13FC
1204
13FC
1204
13FC
1090
170F
0000
ENDCHAR

STARTCHAR cns2_6B4E
ENCODING 42038
SWIDTH 854 0
DWIDTH 16 0
BBX 16 18 0 -2
BITMAP
0000
1289
17C9
1292
1392
213F
27D4
3554
57DF
5114
17D4
1114
17DF
1114
1294
1454
101F
0000
ENDCHAR

STARTCHAR cns1_7A63
ENCODING 42039
SWIDTH 854 0
DWIDTH 16 0
BBX 16 18 0 -2
BITMAP
0000
0000
0BFE
1252
1252
13FE
210A
3214
549F
5334
1294
17DF
1054
1A9F
1554
1554
101F
0000
ENDCHAR

STARTCHAR cns2_6E7D
ENCODING 42040
SWIDTH 854 0
DWIDTH 16 0
BBX 16 18 0 -2
BITMAP
0000
0800
09FC
0924
11FC
1124
27FF
3555
57DF
5555
17DF
10A0
1044
11FE
1021
11AC
1623
0000
ENDCHAR

STARTCHAR ccdc_A439
ENCODING 42041
SWIDTH 854 0
DWIDTH 16 0
BBX 16 18 0 -2
BITMAP
0000
09FC
0924
09FC
1124
17FF
2555
37DF
5555
57FF
1401
15FD
1104
11E4
113C
1104
17FF
0000
ENDCHAR

STARTCHAR ccdc_A43A
ENCODING 42042
SWIDTH 854 0
DWIDTH 16 0
BBX 16 18 0 -2
BITMAP
0000
000C
7CF0
0010
0010
0010
7E10
15FF
1410
1410
1410
1410
1410
24FE
2401
4401
43FF
0000
ENDCHAR

STARTCHAR cns1_2279
ENCODING 42043
SWIDTH 854 0
DWIDTH 16 0
BBX 16 18 0 -2
BITMAP
0000
0800
0810
7F10
0810
0810
3E10
22FE
2210
2210
3E10
1410
1410
1410
2411
2401
47FF
0000
ENDCHAR

STARTCHAR cns2_2E21
ENCODING 42044
SWIDTH 854 0
DWIDTH 16 0
BBX 16 18 0 -2
BITMAP
0000
1084
0888
0490
7FFF
4001
4001
4FF9
0808
0808
0808
0FF8
0220
0220
0420
1821
603F
0000
ENDCHAR

STARTCHAR cns1_227A
ENCODING 42045
SWIDTH 854 0
DWIDTH 16 0
BBX 16 18 0 -2
BITMAP
0000
0800
0806
7F78
0808
0808
3E08
2208
22FF
2208
3E08
1408
1408
1408
2408
2401
47FF
0000
ENDCHAR

STARTCHAR cns1_227B
ENCODING 42046
SWIDTH 854 0
DWIDTH 16 0
BBX 16 18 0 -2
BITMAP
0000
0800
080C
7F70
0820
0820
3E3E
22E0
2220
2220
3E3E
15E0
1420
1422
243E
2401
47FF
0000
ENDCHAR

STARTCHAR cns1_227C
ENCODING 42047
SWIDTH 854 0
DWIDTH 16 0
BBX 16 18 0 -2
BITMAP
0000
0800
081C
7F44
0842
0882
3E81
2201
22FE
2222
3E22
1422
1442
1442
258C
2401
47FF
0000
ENDCHAR

STARTCHAR cns2_3A44
ENCODING 42048
SWIDTH 854 0
DWIDTH 16 0
BBX 16 18 0 -2
BITMAP
0000
0000
0808
2828
2828
3F3F
4848
4888
0808
7F7F
1414
1414
1414
2424
2424
4445
4287
0000
ENDCHAR

STARTCHAR ccdc_A441
ENCODING 42049
SWIDTH 854 0
DWIDTH 16 0
BBX 16 18 0 -2
BITMAP
0000
0000
0808
4949
4A4A
2A2A
0808
7F7F
1414
1414
1414
1414
2424
2424
2424
4545
0787
0000
ENDCHAR

STARTCHAR cns3_3976
ENCODING 42050
SWIDTH 854 0
DWIDTH 16 0
BBX 16 18 0 -2
BITMAP
0000
0000
0080
0BE8
7A2A
0A2C
0BE8
0A29
0A29
7BEF
0000
0240
0240
0240
0441
0441
383E
0000
ENDCHAR

STARTCHAR ccdc_A443
ENCODING 42051
SWIDTH 854 0
DWIDTH 16 0
BBX 16 18 0 -2
BITMAP
0000
0822
0822
497F
4A22
2A22
083E
7F22
1422
143E
1422
1422
14FF
2414
2512
2523
4342
0000
ENDCHAR

STARTCHAR ccdc_A444
ENCODING 42052
SWIDTH 854 0
DWIDTH 16 0
BBX 16 18 0 -2
BITMAP
0000
0020
01FC
7D24
01FC
0020
03FE
7C00
29FC
2904
29E4
293C
2904
49FC
4888
4905
4FFF
0000
ENDCHAR

STARTCHAR ccdc_A445
ENCODING 42053
SWIDTH 854 0
DWIDTH 16 0
BBX 16 18 0 -2
BITMAP
0000
1010
107C
5410
55FE
5844
50EE
1044
7DEE
2800
29FE
2828
2828
2849
4987
4800
4FFE
0000
ENDCHAR

STARTCHAR ccdc_A446
ENCODING 42054
SWIDTH 854 0
DWIDTH 16 0
BBX 16 18 0 -2
BITMAP
0000
1202
1122
5514
543E
5B89
509A
112C
7D96
28A5
288C
28B4
2908
29C0
4A3E
4800
4FFE
0000
ENDCHAR

STARTCHAR cns3_5E25
ENCODING 42055
SWIDTH 854 0
DWIDTH 16 0
BBX 16 18 0 -2
BITMAP
0000
0008
08FF
4A94
4ABE
2A94
28FF
0880
7FBE
24AA
24BE
24AA
24BE
2514
4522
47FF
0000
0000
ENDCHAR

STARTCHAR ccdc_A448
ENCODING 42056
SWIDTH 854 0
DWIDTH 16 0
BBX 16 18 0 -2
BITMAP
0000
11EF
1129
55AD
556B
5929
51EF
1092
7CFF
2988
2AFE
2888
28FE
2888
48FF
4800
47FE
0000
ENDCHAR

STARTCHAR ccdc_A449
ENCODING 42057
SWIDTH 854 0
DWIDTH 16 0
BBX 16 18 0 -2
BITMAP
0000
3FFE
0080
0080
1FFC
0080
0080
7FFF
0000
0240
0240
0420
0410
0808
1004
6003
0000
0000
ENDCHAR

STARTCHAR ccdc_A44A
ENCODING 42058
SWIDTH 854 0
DWIDTH 16 0
BBX 16 18 0 -2
BITMAP
0000
0000
3FFE
2002
2082
2082
2082
2102
2122
2212
2212
247A
2F8A
2002
2002
2002
2006
0000
ENDCHAR

STARTCHAR cns3_2178
ENCODING 42059
SWIDTH 854 0
DWIDTH 16 0
BBX 16 18 0 -2
BITMAP
0000
0000
7FFE
4002
4002
4002
47E2
4422
4422
4422
4422
47E2
4422
4002
4002
4002
401C
0000
ENDCHAR

STARTCHAR cns2_2E22
ENCODING 42060
SWIDTH 854 0
DWIDTH 16 0
BBX 16 18 0 -2
BITMAP
0000
0000
0FFC
0804
0FFC
0804
0FFC
0000
3EFE
2210
2210
2210
3EFF
2210
0010
0010
0030
0000
ENDCHAR

STARTCHAR cns2_2135
ENCODING 42061
SWIDTH 854 0
DWIDTH 16 0
BBX 16 18 0 -2
BITMAP
0000
0080
0080
0080
3FFE
2082
2082
2082
2082
0140
0140
0240
0240
0440
0841
1041
607F
0000
ENDCHAR

STARTCHAR ccdc_A44E
ENCODING 42062
SWIDTH 854 0
DWIDTH 16 0
BBX 16 18 0 -2
BITMAP
0000
0000
7FFF
4001
5FFD
4101
0200
0FF8
0808
0FF8
0808
0FF8
0808
0FF8
0410
180C
2002
0000
ENDCHAR

STARTCHAR cns3_344D
ENCODING 42063
SWIDTH 854 0
DWIDTH 16 0
BBX 16 18 0 -2
BITMAP
0000
0000
7FFF
4001
5FFD
4001
4FF9
0808
0808
0FF8
0000
3FFE
2082
3FFE
2082
3FFE
2002
0000
ENDCHAR

STARTCHAR ccdc_A450
ENCODING 42064
SWIDTH 854 0
DWIDTH 16 0
BBX 16 18 0 -2
BITMAP
0000
0080
7FFF
0080
3EBE
22A2
3EBE
0080
3FFF
2001
4FFA
0808
0FF8
0808
0FF8
0808
7FFF
0000
ENDCHAR

STARTCHAR ccdc_A451
ENCODING 42065
SWIDTH 854 0
DWIDTH 16 0
BBX 16 18 0 -2
BITMAP
0000
0000
2000
13FE
0020
0020
0020
0020
1020
1020
1020
2020
2020
2020
4020
47FF
0000
0000
ENDCHAR

STARTCHAR cns3_227C
ENCODING 42066
SWIDTH 854 0
DWIDTH 16 0
BBX 16 18 0 -2
BITMAP
0000
0000
03FF
2088
1888
0108
0108
0208
0BFF
0808
1018
1028
2048
4088
0108
0208
0070
0000
ENDCHAR

STARTCHAR ccdc_A453
ENCODING 42067
SWIDTH 854 0
DWIDTH 16 0
BBX 16 18 0 -2
BITMAP
0000
0020
2020
1020
07FF
0004
0104
0104
1088
1088
1050
2020
2050
2090
4088
4304
0C03
0000
ENDCHAR

STARTCHAR ccdc_A454
ENCODING 42068
SWIDTH 854 0
DWIDTH 16 0
BBX 16 18 0 -2
BITMAP
0000
0000
2078
1008
0088
0084
0104
0102
13FD
1444
1044
2044
2084
2084
4104
4208
0C30
0000
ENDCHAR

STARTCHAR ccdc_A455
ENCODING 42069
SWIDTH 854 0
DWIDTH 16 0
BBX 16 18 0 -2
BITMAP
0000
0000
2000
13FE
0020
0020
0020
0020
17FF
1020
1050
2050
2088
2088
4104
4202
0C01
0000
ENDCHAR

STARTCHAR ccdc_A456
ENCODING 42070
SWIDTH 854 0
DWIDTH 16 0
BBX 16 18 0 -2
BITMAP
0000
0020
2020
1020
03FF
0221
0221
03FF
1221
1221
13FF
2020
2020
2020
4020
4020
0020
0000
ENDCHAR

STARTCHAR ccdc_A457
ENCODING 42071
SWIDTH 854 0
DWIDTH 16 0
BBX 16 18 0 -2
BITMAP
0000
0040
2040
1040
007C
0040
0040
0040
17FF
1040
1040
2050
2048
2044
4040
4040
0040
0000
ENDCHAR

STARTCHAR ccdc_A458
ENCODING 42072
SWIDTH 854 0
DWIDTH 16 0
BBX 16 18 0 -2
BITMAP
0000
0080
2040
1020
0000
01E2
0022
0034
17B4
10A8
10A8
2124
2124
2222
4421
4020
00E0
0000
ENDCHAR

STARTCHAR ccdc_A459
ENCODING 42073
SWIDTH 854 0
DWIDTH 16 0
BBX 16 18 0 -2
BITMAP
0000
43FE
2042
1042
0042
0042
0082
0302
100C
1000
11FE
2102
2102
2102
4102
41FE
0102
0000
ENDCHAR

STARTCHAR cns2_254E
ENCODING 42074
SWIDTH 854 0
DWIDTH 16 0
BBX 16 18 0 -2
BITMAP
0000
0020
2120
1120
03FE
0220
0420
0020
1020
17FF
1090
2090
2090
2111
4111
4211
0C1F
0000
ENDCHAR

STARTCHAR ccdc_A45B
ENCODING 42075
SWIDTH 854 0
DWIDTH 16 0
BBX 16 18 0 -2
BITMAP
0000
0014
2012
17FF
0410
0410
0410
07D0
1451
1451
1452
2452
2454
2988
4819
5025
1042
0000
ENDCHAR

STARTCHAR ccdc_A45C
ENCODING 42076
SWIDTH 854 0
DWIDTH 16 0
BBX 16 18 0 -2
BITMAP
0000
0180
7FFF
0080
1FFE
1082
1082
108C
01C0
0630
190C
60C3
0020
0100
0080
0040
0040
0000
ENDCHAR

STARTCHAR cns2_254F
ENCODING 42077
SWIDTH 854 0
DWIDTH 16 0
BBX 16 18 0 -2
BITMAP
0000
0020
2050
1050
0088
0088
0104
0202
15F9
1000
1000
23FC
2204
2204
4204
43FC
0204
0000
ENDCHAR

STARTCHAR cns3_2B3B
ENCODING 42078
SWIDTH 854 0
DWIDTH 16 0
BBX 16 18 0 -2
BITMAP
0000
0000
0020
4020
27FF
2020
13FE
0222
0222
1222
13FE
1060
20B0
20A8
4124
4223
0C20
0000
ENDCHAR

STARTCHAR cns3_2B3E
ENCODING 42079
SWIDTH 854 0
DWIDTH 16 0
BBX 16 18 0 -2
BITMAP
0000
0000
0020
4020
2050
2088
1104
02FB
0C20
0020
17FF
1120
1128
2224
2222
4421
01C0
0000
ENDCHAR

STARTCHAR ccdc_A460
ENCODING 42080
SWIDTH 854 0
DWIDTH 16 0
BBX 16 18 0 -2
BITMAP
0000
0000
23FE
1222
0222
03FE
0222
0222
13FE
1222
1020
2020
23FE
2020
4020
4020
0FFF
0000
ENDCHAR

STARTCHAR ccdc_A461
ENCODING 42081
SWIDTH 854 0
DWIDTH 16 0
BBX 16 18 0 -2
BITMAP
0000
0020
1020
0BFE
0020
0020
03FE
0222
0BFE
0A22
0BFE
1020
1020
17FF
2020
2020
0020
0000
ENDCHAR

STARTCHAR cns2_2E26
ENCODING 42082
SWIDTH 854 0
DWIDTH 16 0
BBX 16 18 0 -2
BITMAP
0000
0000
27FF
1401
0421
0421
05FD
0421
1421
14F9
1489
2489
24F9
2489
4401
47FF
0401
0000
ENDCHAR

STARTCHAR ccdc_A463
ENCODING 42083
SWIDTH 854 0
DWIDTH 16 0
BBX 16 18 0 -2
BITMAP
0000
0000
10FE
0882
00FE
0082
00FE
0082
0800
09FF
0901
1101
11FF
1101
2101
21FF
0101
0000
ENDCHAR

STARTCHAR ccdc_A464
ENCODING 42084
SWIDTH 854 0
DWIDTH 16 0
BBX 16 18 0 -2
BITMAP
0000
0040
2441
1249
0289
07E9
0109
0109
1109
1FE9
1109
2109
2289
2241
4421
4821
0003
0000
ENDCHAR

STARTCHAR ccdc_A465
ENCODING 42085
SWIDTH 854 0
DWIDTH 16 0
BBX 16 18 0 -2
BITMAP
0000
4030
2048
2084
01FE
0201
0400
01EA
112A
112A
11EA
212A
212A
21EA
412A
4122
0266
0000
ENDCHAR

STARTCHAR cns2_336B
ENCODING 42086
SWIDTH 854 0
DWIDTH 16 0
BBX 16 18 0 -2
BITMAP
0000
0000
13FF
0848
0048
03FF
0249
0249
0A49
0BFF
0820
1020
13FE
1020
2020
2020
07FF
0000
ENDCHAR

STARTCHAR ccdc_A467
ENCODING 42087
SWIDTH 854 0
DWIDTH 16 0
BBX 16 18 0 -2
BITMAP
0000
0000
23FC
1204
03FC
0204
03FC
0204
1040
1040
17FE
2108
2108
2088
4090
4090
0FFF
0000
ENDCHAR

STARTCHAR ccdc_A468
ENCODING 42088
SWIDTH 854 0
DWIDTH 16 0
BBX 16 18 0 -2
BITMAP
0000
0020
2020
13FE
0000
01FC
0104
01FC
1000
17FF
1401
21FC
2020
2020
4020
4020
00E0
0000
ENDCHAR

STARTCHAR ccdc_A469
ENCODING 42089
SWIDTH 854 0
DWIDTH 16 0
BBX 16 18 0 -2
BITMAP
0000
0040
207E
1040
0040
03FE
0202
0202
13FE
1202
1202
23FE
2202
2202
43FE
4088
0707
0000
ENDCHAR

STARTCHAR cns2_3A45
ENCODING 42090
SWIDTH 854 0
DWIDTH 16 0
BBX 16 18 0 -2
BITMAP
0000
0020
2050
1088
0104
02FA
0401
01FC
1104
11FC
1104
21FC
2100
21FC
4284
4484
08FC
0000
ENDCHAR

STARTCHAR cns2_4927
ENCODING 42091
SWIDTH 854 0
DWIDTH 16 0
BBX 16 18 0 -2
BITMAP
0000
0243
224C
17E8
0248
0248
03C8
024F
124A
13CA
124A
224A
2FEA
2092
4252
4412
0822
0000
ENDCHAR

STARTCHAR ccdc_A46C
ENCODING 42092
SWIDTH 854 0
DWIDTH 16 0
BBX 16 18 0 -2
BITMAP
0000
0108
2108
1210
03FF
0610
0A10
03FE
1210
1210
13FE
2210
2210
23FF
4000
4492
0849
0000
ENDCHAR

STARTCHAR ccdc_A46D
ENCODING 42093
SWIDTH 854 0
DWIDTH 16 0
BBX 16 18 0 -2
BITMAP
0000
0000
23FE
1020
07FF
05AD
0421
01AC
1050
1088
1174
2603
21FC
2044
4044
404C
0040
0000
ENDCHAR

STARTCHAR ccdc_A46E
ENCODING 42094
SWIDTH 854 0
DWIDTH 16 0
BBX 16 18 0 -2
BITMAP
0000
411E
2FD2
2112
07D2
0012
2FD3
2960
23BE
2722
4112
4FD4
410C
438C
454A
4951
0121
0000
ENDCHAR

STARTCHAR cns3_242A
ENCODING 42095
SWIDTH 854 0
DWIDTH 16 0
BBX 16 18 0 -2
BITMAP
0000
0000
1FFC
1084
1084
1084
128C
1294
14A4
1484
1084
1144
1224
1415
280D
3006
4000
0000
ENDCHAR

STARTCHAR ccdc_A470
ENCODING 42096
SWIDTH 854 0
DWIDTH 16 0
BBX 16 18 0 -2
BITMAP
0000
0000
3FFC
2004
27F4
2084
2084
27F4
2494
2494
2494
2494
2494
24B5
4085
4082
0080
0000
ENDCHAR

STARTCHAR ccdc_A471
ENCODING 42097
SWIDTH 854 0
DWIDTH 16 0
BBX 16 18 0 -2
BITMAP
0000
0400
0FFE
1122
2522
0322
0CC2
01BA
0E02
001C
07E0
0420
0420
0420
0821
1021
603F
0000
ENDCHAR

STARTCHAR ccdc_A472
ENCODING 42098
SWIDTH 854 0
DWIDTH 16 0
BBX 16 18 0 -2
BITMAP
0000
0800
087C
3E44
0844
0844
0844
7F64
0854
1854
2C54
2A44
4A84
4A85
4905
0A05
0806
0000
ENDCHAR

STARTCHAR ccdc_A473
ENCODING 42099
SWIDTH 854 0
DWIDTH 16 0
BBX 16 18 0 -2
BITMAP
0000
0302
3C22
0422
7FA2
0422
0E22
1522
6402
0006
07E0
0420
0520
04A0
0821
1021
603F
0000
ENDCHAR

STARTCHAR cns3_457A
ENCODING 42100
SWIDTH 854 0
DWIDTH 16 0
BBX 16 18 0 -2
BITMAP
0000
03FE
3220
0BFE
0220
03FE
0220
0BFE
1002
64AA
04AA
0006
03E0
0221
0221
0421
783F
0000
ENDCHAR

STARTCHAR ccdc_A475
ENCODING 42101
SWIDTH 854 0
DWIDTH 16 0
BBX 16 18 0 -2
BITMAP
0000
1FFC
0018
0060
0080
4082
4082
40BE
5E8A
5292
528A
528A
5E8A
40BA
4112
7FFE
4002
0000
ENDCHAR

STARTCHAR cns3_275A
ENCODING 42102
SWIDTH 854 0
DWIDTH 16 0
BBX 16 18 0 -2
BITMAP
0000
0000
07F0
0020
0040
4081
5CBD
54A5
54A5
5495
5499
5C89
4095
43A3
4001
7FFF
4001
0000
ENDCHAR

STARTCHAR cns2_214B
ENCODING 42103
SWIDTH 854 0
DWIDTH 16 0
BBX 16 18 0 -2
BITMAP
0000
0101
0101
0101
0101
1FE9
0109
0109
1109
0909
0909
0909
0109
0101
0101
0101
0303
0000
ENDCHAR

STARTCHAR cns2_214C
ENCODING 42104
SWIDTH 854 0
DWIDTH 16 0
BBX 16 18 0 -2
BITMAP
0000
0401
0801
1001
1FE1
2001
4009
1F89
0109
0209
0409
0809
1009
2021
2021
1FC1
0007
0000
ENDCHAR

STARTCHAR cns2_217C
ENCODING 42105
SWIDTH 854 0
DWIDTH 16 0
BBX 16 18 0 -2
BITMAP
0000
0001
1F01
0011
0011
0011
7FD1
0911
0911
0911
0911
0911
1111
2141
4181
0001
0003
0000
ENDCHAR

STARTCHAR cns2_217D
ENCODING 42106
SWIDTH 854 0
DWIDTH 16 0
BBX 16 18 0 -2
BITMAP
0000
0001
1FC1
1049
1049
1449
1249
1149
1049
7FE9
1049
1049
1049
1041
2041
2041
40C3
0000
ENDCHAR

STARTCHAR cns2_232E
ENCODING 42107
SWIDTH 854 0
DWIDTH 16 0
BBX 16 18 0 -2
BITMAP
0000
1201
1201
3FC9
1249
1249
7FC9
5249
5209
7FC9
5249
1249
1249
2281
2201
4201
4203
0000
ENDCHAR

STARTCHAR cns2_232F
ENCODING 42108
SWIDTH 854 0
DWIDTH 16 0
BBX 16 18 0 -2
BITMAP
0000
0002
1F02
1112
1112
1112
1F12
1112
1112
1112
1F12
1112
1112
1102
1382
7C02
000E
0000
ENDCHAR

STARTCHAR cns2_2330
ENCODING 42109
SWIDTH 854 0
DWIDTH 16 0
BBX 16 18 0 -2
BITMAP
0000
0001
3FC1
2049
2049
3FC9
2249
2209
2209
3FE9
2209
2209
2109
2101
2081
2CA1
7063
0000
ENDCHAR

STARTCHAR ccdc_A47E
ENCODING 42110
SWIDTH 854 0
DWIDTH 16 0
BBX 16 18 0 -2
BITMAP
0000
0801
0801
0F91
1091
2111
4111
0211
3FD1
0051
0051
0051
1FD1
0041
0041
0041
3FC3
0000
ENDCHAR

STARTCHAR cns1_6330
ENCODING 42145
SWIDTH 854 0
DWIDTH 16 0
BBX 16 18 0 -2
BITMAP
0000
0400
08FF
0810
1410
147E
35C2
3642
547E
1442
147E
1442
14C2
177E
1024
1042
1181
0000
ENDCHAR

STARTCHAR cns2_4161
ENCODING 42146
SWIDTH 854 0
DWIDTH 16 0
BBX 16 18 0 -2
BITMAP
0000
0820
09FC
1124
17FF
1124
21FC
3020
51FC
5124
11FC
1040
17FF
1108
1310
10E8
1704
0000
ENDCHAR

STARTCHAR cns1_632F
ENCODING 42147
SWIDTH 854 0
DWIDTH 16 0
BBX 16 18 0 -2
BITMAP
0000
0888
0888
17FF
1088
10F8
2020
33FE
5222
53FE
5020
13FE
1020
11FC
1020
1020
17FF
0000
ENDCHAR

STARTCHAR cns1_6335
ENCODING 42148
SWIDTH 854 0
DWIDTH 16 0
BBX 16 18 0 -2
BITMAP
0000
0000
0BDE
0842
1252
114A
20C6
335A
5020
51DC
1124
12CA
1511
1064
1188
1030
13C0
0000
ENDCHAR

STARTCHAR cns2_4167
ENCODING 42149
SWIDTH 854 0
DWIDTH 16 0
BBX 16 18 0 -2
BITMAP
0000
0080
0140
0220
0410
0808
17F4
6003
1F7C
1144
1144
1F7C
1554
0410
0A28
1144
6082
0000
ENDCHAR

STARTCHAR cns2_415E
ENCODING 42150
SWIDTH 854 0
DWIDTH 16 0
BBX 16 18 0 -2
BITMAP
0000
0800
0BFE
0850
13FE
1252
2252
33FE
5040
57FF
1088
11F4
1293
14F0
1084
1084
10FC
0000
ENDCHAR

STARTCHAR cns1_6779
ENCODING 42151
SWIDTH 854 0
DWIDTH 16 0
BBX 16 18 0 -2
BITMAP
0000
0480
08FC
0908
1210
15FF
3111
3111
51FF
1060
1391
102A
10CC
1318
102C
10CA
1711
0000
ENDCHAR

STARTCHAR cns1_677B
ENCODING 42152
SWIDTH 854 0
DWIDTH 16 0
BBX 16 18 0 -2
BITMAP
0000
0800
0BFE
0800
13FE
1202
3202
33FE
5244
1288
13FF
1288
12FE
1288
12FE
1488
14FF
0000
ENDCHAR

STARTCHAR cns1_677C
ENCODING 42153
SWIDTH 854 0
DWIDTH 16 0
BBX 16 18 0 -2
BITMAP
0000
0800
0BDF
0A51
13DF
1210
2251
33DF
5000
5088
13FE
1088
1088
17FF
1088
1104
1603
0000
ENDCHAR

STARTCHAR cns2_4876
ENCODING 42154
SWIDTH 854 0
DWIDTH 16 0
BBX 16 18 0 -2
BITMAP
0000
0908
0908
17EA
1009
17C8
245F
3448
5448
57CC
1114
1594
1554
1554
1925
1125
1347
0000
ENDCHAR

STARTCHAR cns2_4879
ENCODING 42155
SWIDTH 854 0
DWIDTH 16 0
BBX 16 18 0 -2
BITMAP
0000
0820
0BFE
0820
10A8
17FF
2088
3088
51FC
5104
11FC
1104
11FC
1104
11FC
1088
1707
0000
ENDCHAR

STARTCHAR cns1_677D
ENCODING 42156
SWIDTH 854 0
DWIDTH 16 0
BBX 16 18 0 -2
BITMAP
0000
1000
17DF
1451
17DF
1451
27DF
3401
54F9
5489
1489
14F9
1489
14F9
1489
1509
151B
0000
ENDCHAR

STARTCHAR cns1_677A
ENCODING 42157
SWIDTH 854 0
DWIDTH 16 0
BBX 16 18 0 -2
BITMAP
0000
081C
0BE0
1040
17FF
2090
21F8
330C
55FB
5000
13FE
1202
12FA
128A
12FA
1282
1206
0000
ENDCHAR

STARTCHAR cns1_6778
ENCODING 42158
SWIDTH 854 0
DWIDTH 16 0
BBX 16 18 0 -2
BITMAP
0000
0850
0A52
1154
17FF
3104
3088
5088
17FF
1020
13FE
1020
17FF
1020
1050
118C
1603
0000
ENDCHAR

STARTCHAR cns1_6775
ENCODING 42159
SWIDTH 854 0
DWIDTH 16 0
BBX 16 18 0 -2
BITMAP
0000
0820
0FFF
0820
13FE
1000
13FE
2202
33FE
5088
5050
17FF
1000
13FE
1202
1202
13FE
0000
ENDCHAR

STARTCHAR cns1_6777
ENCODING 42160
SWIDTH 854 0
DWIDTH 16 0
BBX 16 18 0 -2
BITMAP
0000
0420
0820
0BFE
1050
1489
3306
3202
55FD
1104
11FC
1104
11FC
1020
1124
1222
1461
0000
ENDCHAR

STARTCHAR cns1_5873
ENCODING 42161
SWIDTH 854 0
DWIDTH 16 0
BBX 16 18 0 -2
BITMAP
0000
0510
0890
0820
13FC
1044
3084
30FE
5102
1202
13FF
1401
18A9
12A5
12A5
1401
1006
0000
ENDCHAR

STARTCHAR cns1_6774
ENCODING 42162
SWIDTH 854 0
DWIDTH 16 0
BBX 16 18 0 -2
BITMAP
0000
0820
0BFE
1020
17FF
1104
27DF
3104
51C4
563F
1000
17FF
1050
1090
1090
1111
161F
0000
ENDCHAR

STARTCHAR cns1_6772
ENCODING 42163
SWIDTH 854 0
DWIDTH 16 0
BBX 16 18 0 -2
BITMAP
0000
0482
0844
09FF
1111
1193
3155
3111
5111
11FF
1000
1000
10FE
1082
10FE
1082
10FE
0000
ENDCHAR

STARTCHAR cns1_6776
ENCODING 42164
SWIDTH 854 0
DWIDTH 16 0
BBX 16 18 0 -2
BITMAP
0000
17DF
1104
1514
17DF
1208
2208
3554
59A7
5000
11FE
1102
1102
11FE
1102
1102
11FE
0000
ENDCHAR

STARTCHAR cns1_6773
ENCODING 42165
SWIDTH 854 0
DWIDTH 16 0
BBX 16 18 0 -2
BITMAP
0000
0820
0820
0BFE
1088
1050
17FF
2000
31FC
5124
51FC
1124
11FC
1020
13FE
1020
17FF
0000
ENDCHAR

STARTCHAR ccdc_A4B6
ENCODING 42166
SWIDTH 854 0
DWIDTH 16 0
BBX 16 18 0 -2
BITMAP
0000
0888
0910
13FF
1510
11FE
2110
31FE
5110
51FF
1000
13CF
1249
1249
1279
1201
1203
0000
ENDCHAR

STARTCHAR ccdc_A4B7
ENCODING 42167
SWIDTH 854 0
DWIDTH 16 0
BBX 16 18 0 -2
BITMAP
0000
0800
0BFF
1000
13FE
1222
23FE
3222
57FF
5000
13FE
1222
13FE
1222
13FE
1000
17FF
0000
ENDCHAR

STARTCHAR cns1_6C24
ENCODING 42168
SWIDTH 854 0
DWIDTH 16 0
BBX 16 18 0 -2
BITMAP
0000
0800
0BFE
1090
17FE
1492
27FE
3000
53FC
5204
13FC
1204
13FC
1204
13FC
1090
170E
0000
ENDCHAR

STARTCHAR cns1_6C22
ENCODING 42169
SWIDTH 854 0
DWIDTH 16 0
BBX 16 18 0 -2
BITMAP
0000
0808
0BC8
1248
127F
1252
23D2
3212
527F
5208
17C8
1648
1A7F
1A48
13C8
1248
1008
0000
ENDCHAR

STARTCHAR cns2_4F55
ENCODING 42170
SWIDTH 854 0
DWIDTH 16 0
BBX 16 18 0 -2
BITMAP
0000
080E
0BF0
0922
1094
17FF
2401
3292
5285
54FD
1040
10FE
1142
122C
1410
1028
13C7
0000
ENDCHAR

STARTCHAR cns1_6C21
ENCODING 42171
SWIDTH 854 0
DWIDTH 16 0
BBX 16 18 0 -2
BITMAP
0000
0904
0888
17FF
1020
33FE
3020
57FF
1000
13D6
1090
17FF
1090
10D4
1788
1095
13A3
0000
ENDCHAR

STARTCHAR cns1_6C25
ENCODING 42172
SWIDTH 854 0
DWIDTH 16 0
BBX 16 18 0 -2
BITMAP
0000
0850
0BFE
1252
13FE
1252
23FE
3000
53FE
5200
12FC
1200
13FF
1290
128A
14E4
1583
0000
ENDCHAR

STARTCHAR cns1_6B7E
ENCODING 42173
SWIDTH 854 0
DWIDTH 16 0
BBX 16 18 0 -2
BITMAP
0000
0420
0BFE
0888
1088
17FF
3000
33FC
5204
13FC
1204
13FC
1000
10A2
1291
1285
14FC
0000
ENDCHAR

STARTCHAR cns2_4F52
ENCODING 42174
SWIDTH 854 0
DWIDTH 16 0
BBX 16 18 0 -2
BITMAP
0000
1290
1290
17D0
1290
129F
2422
37C2
5852
5052
1752
1552
154C
1744
154A
1051
11A1
0000
ENDCHAR

STARTCHAR cns1_6C26
ENCODING 42175
SWIDTH 854 0
DWIDTH 16 0
BBX 16 18 0 -2
BITMAP
0000
0420
0850
0888
1104
12FA
3401
33FE
5222
12AA
13FE
1000
11FC
1104
11FC
1104
11FC
0000
ENDCHAR

STARTCHAR cns1_6C27
ENCODING 42176
SWIDTH 854 0
DWIDTH 16 0
BBX 16 18 0 -2
BITMAP
0000
0420
0450
0888
0904
12FA
1401
3000
33DE
5252
1252
13DE
1084
1108
1288
1414
1062
0000
ENDCHAR

STARTCHAR cns3_4B27
ENCODING 42177
SWIDTH 854 0
DWIDTH 16 0
BBX 16 18 0 -2
BITMAP
0000
0000
0888
0BEA
1089
3FFF
5088
17F8
108A
13EA
12AA
13E4
12A4
13E4
108A
17F2
1081
0000
ENDCHAR

STARTCHAR cns2_4F57
ENCODING 42178
SWIDTH 854 0
DWIDTH 16 0
BBX 16 18 0 -2
BITMAP
0000
0908
0A08
17C8
1450
17DF
246A
37CA
510A
57EA
110A
11C4
1244
124A
1492
15A1
1000
0000
ENDCHAR

STARTCHAR cns2_4923
ENCODING 42179
SWIDTH 854 0
DWIDTH 16 0
BBX 16 18 0 -2
BITMAP
0000
0808
7F7F
0808
7F7F
4949
0808
1C1C
2A2A
4949
0080
0080
0080
0140
0220
0C18
7007
0000
ENDCHAR

STARTCHAR cns2_4F56
ENCODING 42180
SWIDTH 854 0
DWIDTH 16 0
BBX 16 18 0 -2
BITMAP
0000
08F8
0910
0BFF
1248
138E
2210
33FF
5200
527C
1200
127C
1200
16FE
1482
14FE
1482
0000
ENDCHAR

STARTCHAR cns2_4F53
ENCODING 42181
SWIDTH 854 0
DWIDTH 16 0
BBX 16 18 0 -2
BITMAP
0000
0800
09FE
094A
114A
11FE
2000
37FF
5000
51FC
1104
11FC
1051
10CA
1144
1672
11C1
0000
ENDCHAR

STARTCHAR cns1_7033
ENCODING 42182
SWIDTH 854 0
DWIDTH 16 0
BBX 16 18 0 -2
BITMAP
0000
0420
0BFF
0A01
11FC
10A2
3124
3018
50FE
1782
10FE
1082
10FE
1082
10FE
1044
1183
0000
ENDCHAR

STARTCHAR cns1_7030
ENCODING 42183
SWIDTH 854 0
DWIDTH 16 0
BBX 16 18 0 -2
BITMAP
0000
0800
0BFE
1020
17FF
1421
25AD
3421
518C
5000
17FF
1020
13FE
1252
1252
1252
1256
0000
ENDCHAR

STARTCHAR cns1_7032
ENCODING 42184
SWIDTH 854 0
DWIDTH 16 0
BBX 16 18 0 -2
BITMAP
0000
0820
0BFE
1020
11FC
1000
27FF
3001
53FC
5020
17FF
1004
17BF
1484
1794
1484
100C
0000
ENDCHAR

STARTCHAR cns1_7034
ENCODING 42185
SWIDTH 854 0
DWIDTH 16 0
BBX 16 18 0 -2
BITMAP
0000
0820
0BFF
1088
1050
17A7
22AA
34A9
51AD
5000
1104
11FC
1104
11FC
1104
1204
1404
0000
ENDCHAR

STARTCHAR cns2_5641
ENCODING 42186
SWIDTH 854 0
DWIDTH 16 0
BBX 16 18 0 -2
BITMAP
0000
0A00
0ADF
0B01
124A
13C4
2002
311F
53C5
5484
1094
17F7
1154
1154
122C
1444
1083
0000
ENDCHAR

STARTCHAR cns1_7031
ENCODING 42187
SWIDTH 854 0
DWIDTH 16 0
BBX 16 18 0 -2
BITMAP
0000
0840
0BFC
0844
17FF
1044
23FC
3040
57FF
5000
1292
1401
13FC
1294
1294
1294
17FF
0000
ENDCHAR

STARTCHAR cns2_5C48
ENCODING 42188
SWIDTH 854 0
DWIDTH 16 0
BBX 16 18 0 -2
BITMAP
0000
0800
0BFC
0A04
13FC
1204
23FC
3090
57FE
5090
1FFF
1108
1224
14AA
1871
11AC
1662
0000
ENDCHAR

STARTCHAR cns1_7341
ENCODING 42189
SWIDTH 854 0
DWIDTH 16 0
BBX 16 18 0 -2
BITMAP
0000
0492
0854
0BFF
1201
12FD
3084
30FC
5000
11FE
1102
11F2
113E
1102
11FE
1084
1303
0000
ENDCHAR

STARTCHAR cns1_7340
ENCODING 42190
SWIDTH 854 0
DWIDTH 16 0
BBX 16 18 0 -2
BITMAP
0000
0800
0BFF
1040
11FE
3102
31FE
5102
57FF
1455
1140
127E
1080
11FC
1688
1070
178F
0000
ENDCHAR

STARTCHAR cns1_7343
ENCODING 42191
SWIDTH 854 0
DWIDTH 16 0
BBX 16 18 0 -2
BITMAP
0000
1410
1210
127D
2F92
2014
2018
6F7F
6020
2F40
20BE
2022
2F22
293E
2922
2F22
293E
0000
ENDCHAR

STARTCHAR cns1_782B
ENCODING 42192
SWIDTH 854 0
DWIDTH 16 0
BBX 16 18 0 -2
BITMAP
0000
0500
05F8
0A10
09FE
1102
11FE
2910
29DC
4EF1
092F
0BFE
0922
09FE
0854
0991
0E1F
0000
ENDCHAR

STARTCHAR cns1_7A62
ENCODING 42193
SWIDTH 854 0
DWIDTH 16 0
BBX 16 18 0 -2
BITMAP
0000
0800
0BDF
1000
17DF
1555
2020
33FF
5248
53FF
1249
13FF
1288
12EF
1288
14E9
158F
0000
ENDCHAR

STARTCHAR cns1_7B58
ENCODING 42194
SWIDTH 854 0
DWIDTH 16 0
BBX 16 18 0 -2
BITMAP
0000
0924
08A8
17FF
1505
11FC
2000
33FE
52AA
52AA
13FE
1020
13FE
1020
17FF
1292
1449
0000
ENDCHAR

STARTCHAR cns1_7B57
ENCODING 42195
SWIDTH 854 0
DWIDTH 16 0
BBX 16 18 0 -2
BITMAP
0000
0800
0BDE
0A52
13DE
1000
17FF
2404
35E8
549F
57EA
152A
15EA
1524
1564
17AA
1431
0000
ENDCHAR

STARTCHAR cns1_227D
ENCODING 42196
SWIDTH 854 0
DWIDTH 16 0
BBX 16 18 0 -2
BITMAP
0000
0800
0800
7EFF
0808
0808
3E7E
2242
2242
227E
3E42
1442
147E
1442
2400
2401
47FF
0000
ENDCHAR

STARTCHAR cns1_442A
ENCODING 42197
SWIDTH 854 0
DWIDTH 16 0
BBX 16 18 0 -2
BITMAP
0000
0020
0420
0420
0420
0420
0420
0420
0420
0420
0420
0420
0820
0820
1021
2021
401F
0000
ENDCHAR

STARTCHAR cns1_4442
ENCODING 42198
SWIDTH 854 0
DWIDTH 16 0
BBX 16 18 0 -2
BITMAP
0000
0000
7FFF
0240
0240
0240
0240
0240
0240
0240
0440
0440
0840
0840
1041
2041
403F
0000
ENDCHAR

STARTCHAR cns1_4478
ENCODING 42199
SWIDTH 854 0
DWIDTH 16 0
BBX 16 18 0 -2
BITMAP
0000
0080
0080
0100
0108
0204
02FC
3F22
0222
0220
0220
0220
0420
0420
0821
1021
601F
0000
ENDCHAR

STARTCHAR cns1_4477
ENCODING 42200
SWIDTH 854 0
DWIDTH 16 0
BBX 16 18 0 -2
BITMAP
0000
0000
1FFC
0000
0000
0000
0000
7FFF
0220
0220
0220
0220
0220
0420
0421
1821
603F
0000
ENDCHAR

STARTCHAR cns1_4573
ENCODING 42201
SWIDTH 854 0
DWIDTH 16 0
BBX 16 18 0 -2
BITMAP
0000
0000
1FFC
1004
1004
1004
1004
1004
1004
1FFC
0220
0220
0220
0420
0821
1021
601F
0000
ENDCHAR

STARTCHAR cns1_4572
ENCODING 42202
SWIDTH 854 0
DWIDTH 16 0
BBX 16 18 0 -2
BITMAP
0000
0080
0080
7FFF
0200
0410
0408
087C
3FA2
0222
0220
0220
0420
0420
0821
1021
603F
0000
ENDCHAR

STARTCHAR cns1_473E
ENCODING 42203
SWIDTH 854 0
DWIDTH 16 0
BBX 16 18 0 -2
BITMAP
0000
0240
0244
2244
1248
0A50
0240
0240
0670
0A48
1244
6242
0440
0440
0840
1041
603F
0000
ENDCHAR

STARTCHAR cns1_473F
ENCODING 42204
SWIDTH 854 0
DWIDTH 16 0
BBX 16 18 0 -2
BITMAP
0000
0880
0880
0880
1FFE
1080
2080
0080
0080
7FFF
0220
0220
0420
0420
0821
1021
601F
0000
ENDCHAR

STARTCHAR cns1_473C
ENCODING 42205
SWIDTH 854 0
DWIDTH 16 0
BBX 16 18 0 -2
BITMAP
0000
0080
1084
0884
0488
0490
0080
7FFF
0220
0220
0220
0220
0420
0420
0820
1021
603F
0000
ENDCHAR

STARTCHAR cns1_473D
ENCODING 42206
SWIDTH 854 0
DWIDTH 16 0
BBX 16 18 0 -2
BITMAP
0000
0010
1624
1144
1084
1144
1224
1414
1004
1FFC
0040
0240
0240
0440
0440
1841
607F
0000
ENDCHAR

STARTCHAR cns1_492C
ENCODING 42207
SWIDTH 854 0
DWIDTH 16 0
BBX 16 18 0 -2
BITMAP
0000
0080
0080
7FFF
0080
0080
1FFC
1004
1004
1004
1004
1FFC
0220
0220
0420
1821
603F
0000
ENDCHAR

STARTCHAR cns1_492B
ENCODING 42208
SWIDTH 854 0
DWIDTH 16 0
BBX 16 18 0 -2
BITMAP
0000
00F0
0410
0410
0808
1004
2FFB
4808
0808
0808
0FF8
0240
0240
0440
0441
0841
703F
0000
ENDCHAR

STARTCHAR cns1_492D
ENCODING 42209
SWIDTH 854 0
DWIDTH 16 0
BBX 16 18 0 -2
BITMAP
0000
0200
03F8
0410
0820
1040
2FFE
0842
0842
0842
0FFE
0120
0120
0220
0420
1821
603F
0000
ENDCHAR

STARTCHAR cns1_4C22
ENCODING 42210
SWIDTH 854 0
DWIDTH 16 0
BBX 16 18 0 -2
BITMAP
0000
0100
0200
03FC
0408
0810
1020
6040
1FFC
1084
1084
1FFC
1144
0250
0449
1841
607F
0000
ENDCHAR

STARTCHAR cns1_4C23
ENCODING 42211
SWIDTH 854 0
DWIDTH 16 0
BBX 16 18 0 -2
BITMAP
0000
0300
1C7C
1004
1004
1E3C
1004
1004
1FFC
1244
0240
0240
0440
0442
0841
1041
603E
0000
ENDCHAR

STARTCHAR cns1_4C24
ENCODING 42212
SWIDTH 854 0
DWIDTH 16 0
BBX 16 18 0 -2
BITMAP
0000
1E3C
1224
1224
1224
1224
13E4
1004
1004
1FFC
0040
0240
0240
0440
0440
1841
607F
0000
ENDCHAR

STARTCHAR cns1_5022
ENCODING 42213
SWIDTH 854 0
DWIDTH 16 0
BBX 16 18 0 -2
BITMAP
0000
0080
0080
3FFE
0410
0808
1004
27F3
4410
0410
0410
07F0
0140
0140
0241
0C41
707F
0000
ENDCHAR

STARTCHAR cns1_5927
ENCODING 42214
SWIDTH 854 0
DWIDTH 16 0
BBX 16 18 0 -2
BITMAP
0000
0080
0900
33EE
2222
2222
23E2
2222
2222
3BEE
2002
0240
0240
0241
0441
187F
6000
0000
ENDCHAR

STARTCHAR cns1_677E
ENCODING 42215
SWIDTH 854 0
DWIDTH 16 0
BBX 16 18 0 -2
BITMAP
0000
0810
0810
7F7E
0810
0810
3E7E
2242
2242
2242
3E7E
1428
14A8
1528
2648
2C49
418F
0000
ENDCHAR

STARTCHAR cns1_227E
ENCODING 42216
SWIDTH 854 0
DWIDTH 16 0
BBX 16 18 0 -2
BITMAP
0000
1000
11FF
7D00
117E
1152
7D7E
4552
457E
4510
7D10
2A7E
2A10
2A10
2AFE
4801
4FFF
0000
ENDCHAR

STARTCHAR cns1_442B
ENCODING 42217
SWIDTH 854 0
DWIDTH 16 0
BBX 16 18 0 -2
BITMAP
0000
0300
0100
0100
0100
0080
0080
0080
0140
0140
0220
0220
0410
0810
1008
2004
4003
0000
ENDCHAR

STARTCHAR cns1_4479
ENCODING 42218
SWIDTH 854 0
DWIDTH 16 0
BBX 16 18 0 -2
BITMAP
0000
0040
0040
0040
3FFF
2081
2081
2081
2141
2121
2211
2409
2805
3001
2001
2001
2007
0000
ENDCHAR

STARTCHAR cns1_4740
ENCODING 42219
SWIDTH 854 0
DWIDTH 16 0
BBX 16 18 0 -2
BITMAP
0000
0080
0140
0220
0410
0808
1004
2002
4FF9
0080
0080
0080
0FF8
0080
0080
0080
3FFE
0000
ENDCHAR

STARTCHAR cns1_4C25
ENCODING 42220
SWIDTH 854 0
DWIDTH 16 0
BBX 16 18 0 -2
BITMAP
0000
0000
7FFF
0080
0080
3FFE
2082
2082
2CB2
2492
2492
2AAA
2AAA
31C6
2082
2082
2086
0000
ENDCHAR

STARTCHAR ccdc_A4ED
ENCODING 42221
SWIDTH 854 0
DWIDTH 16 0
BBX 16 18 0 -2
BITMAP
0000
1F80
0140
0220
0410
1BEC
6003
1F10
1112
1924
1524
1148
1924
1524
1112
1112
1312
0000
ENDCHAR

STARTCHAR cns1_442C
ENCODING 42223
SWIDTH 854 0
DWIDTH 16 0
BBX 16 18 0 -2
BITMAP
0000
0000
01E0
0020
0020
0020
0420
0410
0410
0410
0810
0808
0808
1004
1004
2002
4001
0000
ENDCHAR

STARTCHAR cns1_447C
ENCODING 42224
SWIDTH 854 0
DWIDTH 16 0
BBX 16 18 0 -2
BITMAP
0000
0070
0210
0208
0408
0804
1004
2082
4081
0100
0100
0208
0204
043E
3FC2
0002
0000
0000
ENDCHAR

STARTCHAR cns1_447A
ENCODING 42225
SWIDTH 854 0
DWIDTH 16 0
BBX 16 18 0 -2
BITMAP
0000
0080
0080
0080
0080
7FFF
0000
0000
0410
0408
0404
0804
0802
1002
2002
4000
0000
0000
ENDCHAR

STARTCHAR cns1_447B
ENCODING 42226
SWIDTH 854 0
DWIDTH 16 0
BBX 16 18 0 -2
BITMAP
0000
01E0
0420
0410
0810
0808
17F6
2201
4200
07F8
0408
0808
0008
0008
0008
0010
0060
0000
ENDCHAR

STARTCHAR cns1_4741
ENCODING 42227
SWIDTH 854 0
DWIDTH 16 0
BBX 16 18 0 -2
BITMAP
0000
0410
0410
0410
0410
7FFF
0410
0410
0410
0410
7FFF
0000
0410
0808
1004
2002
4001
0000
ENDCHAR

STARTCHAR cns1_492E
ENCODING 42228
SWIDTH 854 0
DWIDTH 16 0
BBX 16 18 0 -2
BITMAP
0000
0030
0FC0
0800
0800
0800
0FFE
0808
0808
0810
0810
7FFF
0000
0410
0808
1004
6003
0000
ENDCHAR

STARTCHAR cns1_4C27
ENCODING 42229
SWIDTH 854 0
DWIDTH 16 0
BBX 16 18 0 -2
BITMAP
0000
0410
0410
3FFE
0410
0410
07F0
0410
0410
07F0
0410
0410
7FFF
0000
0630
180C
6003
0000
ENDCHAR

STARTCHAR cns1_4C26
ENCODING 42230
SWIDTH 854 0
DWIDTH 16 0
BBX 16 18 0 -2
BITMAP
0000
0000
0FF8
0808
0808
0FF8
0808
0808
0FF8
0808
0808
0FF8
0808
7FFF
0220
0410
180C
0000
ENDCHAR

STARTCHAR cns1_4C28
ENCODING 42231
SWIDTH 854 0
DWIDTH 16 0
BBX 16 18 0 -2
BITMAP
0000
0220
0220
0220
3FFE
2222
2222
2222
3FFE
2222
2222
2222
7FFF
0000
0808
1004
6003
0000
ENDCHAR

STARTCHAR cns1_5440
ENCODING 42232
SWIDTH 854 0
DWIDTH 16 0
BBX 16 18 0 -2
BITMAP
0000
0420
0240
7FFF
0240
3FFC
0244
0244
7FFF
0244
0244
3FFC
0240
0660
0A50
1248
6246
0000
ENDCHAR

STARTCHAR cns1_7035
ENCODING 42233
SWIDTH 854 0
DWIDTH 16 0
BBX 16 18 0 -2
BITMAP
0000
024C
7E70
0241
1E7F
6000
1FFC
1084
1FFC
1084
1FFC
0220
3FFE
0220
7FFF
0410
380E
0000
ENDCHAR

STARTCHAR cns1_272D
ENCODING 42235
SWIDTH 854 0
DWIDTH 16 0
BBX 16 18 0 -2
BITMAP
0000
0000
7FFE
4002
4002
4002
4002
4002
4002
4002
4002
4002
4002
4002
4002
4002
401C
0000
ENDCHAR

STARTCHAR cns1_4574
ENCODING 42236
SWIDTH 854 0
DWIDTH 16 0
BBX 16 18 0 -2
BITMAP
0000
0080
0080
1FFC
1084
1084
1084
1FFC
1084
1084
1084
7FFF
1004
1004
1004
1004
100C
0000
ENDCHAR

STARTCHAR cns1_4575
ENCODING 42237
SWIDTH 854 0
DWIDTH 16 0
BBX 16 18 0 -2
BITMAP
0000
0000
1FFC
1244
1244
1244
1244
1244
7FFF
1244
1244
1244
1244
2244
2244
4244
400C
0000
ENDCHAR

STARTCHAR cns1_4742
ENCODING 42238
SWIDTH 854 0
DWIDTH 16 0
BBX 16 18 0 -2
BITMAP
0000
0000
7FFF
0080
0080
1FFC
1084
1084
1FFC
1084
1084
1084
7FFF
1004
1004
1004
1004
0000
ENDCHAR

STARTCHAR cns3_245F
ENCODING 42273
SWIDTH 854 0
DWIDTH 16 0
BBX 16 18 0 -2
BITMAP
0000
0001
7FC1
0449
0449
0849
0849
1049
2389
0009
7FC9
4049
4049
4041
4041
7FC1
4046
0000
ENDCHAR

STARTCHAR cns2_2554
ENCODING 42274
SWIDTH 854 0
DWIDTH 16 0
BBX 16 18 0 -2
BITMAP
0000
1200
127E
1212
7F92
1212
1256
1232
121B
7F92
1212
1222
1222
2222
2242
4284
0218
0000
ENDCHAR

STARTCHAR cns3_275B
ENCODING 42275
SWIDTH 854 0
DWIDTH 16 0
BBX 16 18 0 -2
BITMAP
0000
0000
0001
3FE9
0009
0009
1FC9
1049
1049
1FC9
1049
1049
1FC9
1041
0001
03E1
7C0E
0000
ENDCHAR

STARTCHAR cns2_2553
ENCODING 42276
SWIDTH 854 0
DWIDTH 16 0
BBX 16 18 0 -2
BITMAP
0000
0802
0402
3F92
2092
2092
3F92
2092
2092
3F92
2012
2212
2112
2792
2882
308A
0006
0000
ENDCHAR

STARTCHAR ccdc_A525
ENCODING 42277
SWIDTH 854 0
DWIDTH 16 0
BBX 16 18 0 -2
BITMAP
0000
0400
043F
0711
3C11
0411
0411
7FB1
0411
0E19
0D15
1491
1491
2412
4422
0422
044C
0000
ENDCHAR

STARTCHAR ccdc_A526
ENCODING 42278
SWIDTH 854 0
DWIDTH 16 0
BBX 16 18 0 -2
BITMAP
0000
0841
0481
0109
3FE9
0889
0889
0889
0889
7FE9
0889
0889
0889
1081
1081
2081
4083
0000
ENDCHAR

STARTCHAR ccdc_A527
ENCODING 42279
SWIDTH 854 0
DWIDTH 16 0
BBX 16 18 0 -2
BITMAP
0000
3083
0902
061A
0912
3092
0412
0412
7FD2
0C12
1612
1612
2512
4492
0402
0402
040E
0000
ENDCHAR

STARTCHAR cns1_502A
ENCODING 42280
SWIDTH 854 0
DWIDTH 16 0
BBX 16 18 0 -2
BITMAP
0000
0402
0402
7FC2
0412
0412
3F92
2492
2492
3F92
0412
0E12
1592
2442
4402
0402
0406
0000
ENDCHAR

STARTCHAR ccdc_A529
ENCODING 42281
SWIDTH 854 0
DWIDTH 16 0
BBX 16 18 0 -2
BITMAP
0000
1100
093F
0209
3F89
0909
0929
0929
3FD9
0909
0909
0916
0913
0912
1122
1122
2144
0000
ENDCHAR

STARTCHAR ccdc_A52A
ENCODING 42282
SWIDTH 854 0
DWIDTH 16 0
BBX 16 18 0 -2
BITMAP
0000
0403
041A
0792
0412
3FD2
2492
3F12
2412
2792
2012
2912
4912
4912
5142
6142
41CE
0000
ENDCHAR

STARTCHAR ccdc_A52B
ENCODING 42283
SWIDTH 854 0
DWIDTH 16 0
BBX 16 18 0 -2
BITMAP
0000
0403
4442
4452
7FD2
4452
0A12
1112
2092
4852
0812
1F92
2092
4D12
0202
0402
180E
0000
ENDCHAR

STARTCHAR ccdc_A52C
ENCODING 42284
SWIDTH 854 0
DWIDTH 16 0
BBX 16 18 0 -2
BITMAP
0000
0201
0201
7FF1
0001
1FC9
1049
1049
1049
1FC9
0209
0A89
0A89
1241
6241
0221
0603
0000
ENDCHAR

STARTCHAR cns2_2E2A
ENCODING 42285
SWIDTH 854 0
DWIDTH 16 0
BBX 16 18 0 -2
BITMAP
0000
0201
0201
7FE9
0209
1FC9
1249
1FC9
0209
3FE9
0229
7FF9
0229
3FE1
0201
0201
0603
0000
ENDCHAR

STARTCHAR cns2_2E2B
ENCODING 42286
SWIDTH 854 0
DWIDTH 16 0
BBX 16 18 0 -2
BITMAP
0000
1101
1101
7FD1
1111
1111
7FD1
0011
0011
3F91
2091
2091
3F91
2081
2081
3F81
0003
0000
ENDCHAR

STARTCHAR cns2_2E2D
ENCODING 42287
SWIDTH 854 0
DWIDTH 16 0
BBX 16 18 0 -2
BITMAP
0000
0001
7DE1
0429
2949
1089
2949
4229
0009
3DE9
0429
0429
2949
1081
2941
4241
0423
0000
ENDCHAR

STARTCHAR cns2_2E2E
ENCODING 42288
SWIDTH 854 0
DWIDTH 16 0
BBX 16 18 0 -2
BITMAP
0000
0901
0901
0909
39E9
0909
0909
0909
39C9
0909
0D09
1909
29E9
0901
1101
2101
4103
0000
ENDCHAR

STARTCHAR cns2_336C
ENCODING 42289
SWIDTH 854 0
DWIDTH 16 0
BBX 16 18 0 -2
BITMAP
0000
0201
0201
3FE9
2009
2489
3FE9
2489
2789
2009
2FC9
2089
2489
2501
2201
4501
58E3
0000
ENDCHAR

STARTCHAR cns2_336D
ENCODING 42290
SWIDTH 854 0
DWIDTH 16 0
BBX 16 18 0 -2
BITMAP
0000
0001
3FE1
2029
2029
3FE9
2009
2FE9
2209
2449
2FE9
2129
2109
27C1
2101
4101
4FE3
0000
ENDCHAR

STARTCHAR cns2_336E
ENCODING 42291
SWIDTH 854 0
DWIDTH 16 0
BBX 16 18 0 -2
BITMAP
0000
0201
2221
2229
2229
3FE9
0009
7FE9
0409
0809
3FE9
2529
2529
2521
2521
2521
2063
0000
ENDCHAR

STARTCHAR cns1_6337
ENCODING 42292
SWIDTH 854 0
DWIDTH 16 0
BBX 16 18 0 -2
BITMAP
0000
0201
3FE1
0889
0889
0509
3FE9
2009
2909
2909
2FE9
3109
2109
2FE1
2101
4101
5FF3
0000
ENDCHAR

STARTCHAR cns2_416B
ENCODING 42293
SWIDTH 854 0
DWIDTH 16 0
BBX 16 18 0 -2
BITMAP
0000
0820
3E3F
0842
7F14
1C08
2A14
4943
0800
3FFE
2000
27FC
2084
2084
2104
4208
4C30
0000
ENDCHAR

STARTCHAR cns2_416D
ENCODING 42294
SWIDTH 854 0
DWIDTH 16 0
BBX 16 18 0 -2
BITMAP
0000
0201
2221
2229
3FE9
0009
3DE9
2529
2529
3DE9
2529
2529
3DE9
2521
4521
4A21
4263
0000
ENDCHAR

STARTCHAR cns2_416E
ENCODING 42295
SWIDTH 854 0
DWIDTH 16 0
BBX 16 18 0 -2
BITMAP
0000
0803
1102
7F9A
1092
2112
4A92
7BD2
0C12
1212
2512
4A92
3212
0C82
3302
0C02
700E
0000
ENDCHAR

STARTCHAR cns2_4928
ENCODING 42296
SWIDTH 854 0
DWIDTH 16 0
BBX 16 18 0 -2
BITMAP
0000
0001
3FC1
0089
0509
0209
7FE9
0A29
1249
0609
3FE9
28A9
3069
2FA1
28A1
2FA1
2023
0000
ENDCHAR

STARTCHAR cns2_4929
ENCODING 42297
SWIDTH 854 0
DWIDTH 16 0
BBX 16 18 0 -2
BITMAP
0000
0881
1101
3FE9
5109
1109
1FC9
1109
1109
1FC9
1109
1109
1FE9
0001
1541
1521
2523
0000
ENDCHAR

STARTCHAR cns2_4F5A
ENCODING 42298
SWIDTH 854 0
DWIDTH 16 0
BBX 16 18 0 -2
BITMAP
0000
0001
0F81
0889
0889
0F89
0009
3DE9
2529
2529
3DE9
0209
3FE9
0701
0A81
1241
6223
0000
ENDCHAR

STARTCHAR ccdc_A53B
ENCODING 42299
SWIDTH 854 0
DWIDTH 16 0
BBX 16 18 0 -2
BITMAP
0000
0881
3FE1
0889
0309
0CC9
1229
2FC9
0849
0FC9
0849
0FC9
0809
17C1
1441
2441
47C3
0000
ENDCHAR

STARTCHAR cns4_4F64
ENCODING 42300
SWIDTH 854 0
DWIDTH 16 0
BBX 16 18 0 -2
BITMAP
0000
0400
0E00
0B00
11FF
2089
5F09
0049
3BA9
2AA9
2A89
3B89
0911
11A2
3B42
4D42
463C
0000
ENDCHAR

STARTCHAR cns2_6B51
ENCODING 42301
SWIDTH 854 0
DWIDTH 16 0
BBX 16 18 0 -2
BITMAP
0000
5281
7BE1
1089
7FE9
2949
4D69
0009
3FC9
2049
3FC9
2049
3FC9
2041
3FC1
0901
70E7
0000
ENDCHAR

STARTCHAR cns2_6B50
ENCODING 42302
SWIDTH 854 0
DWIDTH 16 0
BBX 16 18 0 -2
BITMAP
0000
0101
3FF1
2441
3FF5
2445
2EE5
3555
2445
2285
2EE5
2285
2EE5
2281
4EF1
4281
1C83
0000
ENDCHAR

STARTCHAR cns2_6E7E
ENCODING 42303
SWIDTH 854 0
DWIDTH 16 0
BBX 16 18 0 -2
BITMAP
0000
0201
07C1
0885
7FF5
0625
3945
0385
1D45
0325
3D15
1245
7DF5
5555
7DF1
1241
7FF3
0000
ENDCHAR

STARTCHAR cns2_217E
ENCODING 42304
SWIDTH 854 0
DWIDTH 16 0
BBX 16 18 0 -2
BITMAP
0000
0080
0FFC
0084
0104
0104
0604
1818
0000
0808
7F7F
0909
0909
1111
1111
2121
4646
0000
ENDCHAR

STARTCHAR cns2_2934
ENCODING 42305
SWIDTH 854 0
DWIDTH 16 0
BBX 16 18 0 -2
BITMAP
0000
0408
0408
7FC8
0408
043F
3F89
2089
2089
2091
3F91
0A11
0A11
0A21
0A21
1241
63C6
0000
ENDCHAR

STARTCHAR ccdc_A542
ENCODING 42306
SWIDTH 854 0
DWIDTH 16 0
BBX 16 18 0 -2
BITMAP
0000
0620
3820
083F
7F49
1889
2C11
4A11
0821
0846
0080
1FFC
0104
0104
0204
0404
1818
0000
ENDCHAR

STARTCHAR cns3_2F6C
ENCODING 42307
SWIDTH 854 0
DWIDTH 16 0
BBX 16 18 0 -2
BITMAP
0000
0000
0404
0404
3F84
0404
7FFF
1205
1205
2245
45C5
0409
0409
3F91
0411
07A1
784E
0000
ENDCHAR

STARTCHAR cns3_2F6F
ENCODING 42308
SWIDTH 854 0
DWIDTH 16 0
BBX 16 18 0 -2
BITMAP
0000
0000
0408
1508
2488
7FC8
047F
0409
7FE9
0909
1089
3F49
5109
1109
1351
1051
0FAE
0000
ENDCHAR

STARTCHAR cns3_2F6D
ENCODING 42309
SWIDTH 854 0
DWIDTH 16 0
BBX 16 18 0 -2
BITMAP
0000
0000
0004
3F84
0104
0204
7FFF
0405
0405
1C05
0009
3F89
2A89
2A91
2A91
2A91
7FEE
0000
ENDCHAR

STARTCHAR cns3_2F6E
ENCODING 42310
SWIDTH 854 0
DWIDTH 16 0
BBX 16 18 0 -2
BITMAP
0000
0000
0404
0404
7FE4
1484
149F
2D45
4625
0405
0C05
1609
2509
4491
0451
0421
044E
0000
ENDCHAR

STARTCHAR cns3_3452
ENCODING 42311
SWIDTH 854 0
DWIDTH 16 0
BBX 16 18 0 -2
BITMAP
0000
0000
7F88
0408
0808
7F88
52FF
5289
5289
5E89
5289
5289
5E89
5291
5291
7FA1
40CE
0000
ENDCHAR

STARTCHAR ccdc_A548
ENCODING 42312
SWIDTH 854 0
DWIDTH 16 0
BBX 16 18 0 -2
BITMAP
0000
0000
21FF
2028
2028
21FF
7D29
2529
2529
25FF
2410
2410
24FE
2410
2410
2410
59FF
0000
ENDCHAR

STARTCHAR ccdc_A549
ENCODING 42313
SWIDTH 854 0
DWIDTH 16 0
BBX 16 18 0 -2
BITMAP
0000
0808
0808
3F88
1088
7FC8
003F
3F89
2091
3F91
0411
3F91
2421
7FE1
0421
0441
0486
0000
ENDCHAR

STARTCHAR cns1_5E3A
ENCODING 42314
SWIDTH 854 0
DWIDTH 16 0
BBX 16 18 0 -2
BITMAP
0000
3F10
2110
2110
3F10
00FF
7F11
4111
7F11
4111
7F11
4111
7F11
1421
1422
2242
414C
0000
ENDCHAR

STARTCHAR ccdc_A54B
ENCODING 42315
SWIDTH 854 0
DWIDTH 16 0
BBX 16 18 0 -2
BITMAP
0000
0008
3F88
2088
3F88
209F
3F89
0409
2489
1511
0E11
7FD1
0A11
0A21
0A21
1241
63C6
0000
ENDCHAR

STARTCHAR cns3_4044
ENCODING 42316
SWIDTH 854 0
DWIDTH 16 0
BBX 16 18 0 -2
BITMAP
0000
0008
7FC8
0A08
3F88
2A88
2AFF
2A89
3F89
0009
3F89
0009
7FC9
1511
2491
4461
184E
0000
ENDCHAR

STARTCHAR cns3_457E
ENCODING 42317
SWIDTH 854 0
DWIDTH 16 0
BBX 16 18 0 -2
BITMAP
0000
0400
0408
3F88
1108
0A08
7FBF
0009
3F89
2489
3F89
2489
3F89
0411
3F91
0422
7FCC
0000
ENDCHAR

STARTCHAR cns2_5C4B
ENCODING 42318
SWIDTH 854 0
DWIDTH 16 0
BBX 16 18 0 -2
BITMAP
0000
03C8
0208
3FE8
2228
2F9F
2109
2FE9
2929
2FE9
2929
2FE9
2009
2529
5491
5421
57E6
0000
ENDCHAR

STARTCHAR ccdc_A54F
ENCODING 42319
SWIDTH 854 0
DWIDTH 16 0
BBX 16 18 0 -2
BITMAP
0000
0400
0400
07FC
0844
0844
1444
2444
2284
4284
0108
02C8
0238
040C
180B
6030
00C0
0000
ENDCHAR

STARTCHAR cns1_457E
ENCODING 42320
SWIDTH 854 0
DWIDTH 16 0
BBX 16 18 0 -2
BITMAP
0000
0400
0400
07FF
0889
1091
2111
4D11
0221
05A1
0841
10A1
0091
0101
0202
0C02
301C
0000
ENDCHAR

STARTCHAR ccdc_A551
ENCODING 42321
SWIDTH 854 0
DWIDTH 16 0
BBX 16 18 0 -2
BITMAP
0000
0400
0400
07FF
0801
1001
2081
41F9
0209
0411
1B21
00A1
0041
0081
0302
1C02
001C
0000
ENDCHAR

STARTCHAR cns3_2222
ENCODING 42322
SWIDTH 854 0
DWIDTH 16 0
BBX 16 18 0 -2
BITMAP
0000
0800
0800
1000
1FFF
2001
2081
4081
0FFD
0801
0801
0801
0801
0805
0FFD
0801
001E
0000
ENDCHAR

STARTCHAR cns2_2557
ENCODING 42323
SWIDTH 854 0
DWIDTH 16 0
BBX 16 18 0 -2
BITMAP
0000
0800
0800
0FFF
1001
2401
4FF9
1081
0081
1FFD
0081
0889
0889
0FF9
0809
0002
000C
0000
ENDCHAR

STARTCHAR cns2_3A47
ENCODING 42324
SWIDTH 854 0
DWIDTH 16 0
BBX 16 18 0 -2
BITMAP
0000
0800
0800
1FFF
2401
5F7D
1105
1F05
117D
1F45
1141
1F7D
3345
0505
0905
3105
033A
0000
ENDCHAR

STARTCHAR ccdc_A555
ENCODING 42325
SWIDTH 854 0
DWIDTH 16 0
BBX 16 18 0 -2
BITMAP
0000
0804
0408
0210
0020
3FFE
0140
0220
0410
180C
6413
0410
0420
0440
0482
0402
03FE
0000
ENDCHAR

STARTCHAR cns2_2221
ENCODING 42326
SWIDTH 854 0
DWIDTH 16 0
BBX 16 18 0 -2
BITMAP
0000
7FFE
4000
4200
4200
47FC
4494
4494
4894
4124
4124
4244
4488
4030
4000
7FFF
4000
0000
ENDCHAR

STARTCHAR ccdc_A557
ENCODING 42327
SWIDTH 854 0
DWIDTH 16 0
BBX 16 18 0 -2
BITMAP
0000
0000
3FFE
2000
2004
2004
2F7E
2904
2944
2924
2924
2F04
2804
200C
2000
3FFF
2000
0000
ENDCHAR

STARTCHAR ccdc_A558
ENCODING 42328
SWIDTH 854 0
DWIDTH 16 0
BBX 16 18 0 -2
BITMAP
0000
0000
3FFE
2000
2FFC
2080
2108
2238
27C4
2044
27F8
2040
2040
2FFC
2000
3FFF
2000
0000
ENDCHAR

STARTCHAR ccdc_A559
ENCODING 42329
SWIDTH 854 0
DWIDTH 16 0
BBX 16 18 0 -2
BITMAP
0000
0000
3FFE
2110
2110
227C
2210
2610
2AFE
2A10
227C
2210
2210
22FE
2000
3FFF
2000
0000
ENDCHAR

STARTCHAR ccdc_A55A
ENCODING 42330
SWIDTH 854 0
DWIDTH 16 0
BBX 16 18 0 -2
BITMAP
0000
0000
3FFE
2248
2488
24FE
2D88
3688
24FE
2488
2488
24FE
2488
2488
24FE
2000
3FFF
0000
ENDCHAR

STARTCHAR cns2_492C
ENCODING 42331
SWIDTH 854 0
DWIDTH 16 0
BBX 16 18 0 -2
BITMAP
0000
3FFE
2000
27BC
24A4
27BC
2000
27FC
2444
27FC
2444
27FC
2040
2FFE
2040
2040
2040
3FFE
ENDCHAR

STARTCHAR cns2_5645
ENCODING 42332
SWIDTH 854 0
DWIDTH 16 0
BBX 16 18 0 -2
BITMAP
0000
0000
3FFE
2210
27DE
2924
23F8
2208
23E8
2278
2208
23F8
2110
27FC
2110
2210
3FFF
0000
ENDCHAR

STARTCHAR cns2_686A
ENCODING 42333
SWIDTH 854 0
DWIDTH 16 0
BBX 16 18 0 -2
BITMAP
0000
0000
3FFE
24A4
27BC
24A4
27BC
24A4
27BC
2110
23FE
2620
2BFC
2220
23FC
2220
3FFF
0000
ENDCHAR

STARTCHAR cns2_2558
ENCODING 42334
SWIDTH 854 0
DWIDTH 16 0
BBX 16 18 0 -2
BITMAP
0000
0000
3FFE
2040
20B0
2108
2204
2DFB
2000
23FC
2204
2204
2204
23FC
2000
3FFF
2000
0000
ENDCHAR

STARTCHAR cns2_2936
ENCODING 42335
SWIDTH 854 0
DWIDTH 16 0
BBX 16 18 0 -2
BITMAP
0000
0000
3FFE
2000
23F8
2208
23F8
2208
23F8
2080
2FFE
2120
20C0
2738
2000
3FFF
2000
0000
ENDCHAR

STARTCHAR cns2_214E
ENCODING 42336
SWIDTH 854 0
DWIDTH 16 0
BBX 16 18 0 -2
BITMAP
0000
0804
0804
0924
0924
0924
0924
7FFF
0924
0924
0924
0924
0924
1124
1004
2004
4004
0000
ENDCHAR

STARTCHAR ccdc_A561
ENCODING 42337
SWIDTH 854 0
DWIDTH 16 0
BBX 16 18 0 -2
BITMAP
0000
00C0
3FFE
0080
1FFC
1004
1FFC
0888
0490
7FFF
4001
0FF8
0FF8
0080
1FFC
0080
7FFF
0000
ENDCHAR

STARTCHAR ccdc_A562
ENCODING 42338
SWIDTH 854 0
DWIDTH 16 0
BBX 16 18 0 -2
BITMAP
0000
0800
041F
3F91
2091
2091
3F91
2091
2091
3F91
2011
2211
2119
2316
2C90
7090
0010
0000
ENDCHAR

STARTCHAR cns1_4C3C
ENCODING 42339
SWIDTH 854 0
DWIDTH 16 0
BBX 16 18 0 -2
BITMAP
0000
0400
041F
0811
3FD1
2951
2951
2951
2951
2951
2951
2951
2951
2BF1
7C16
0010
0010
0000
ENDCHAR

STARTCHAR ccdc_A564
ENCODING 42340
SWIDTH 854 0
DWIDTH 16 0
BBX 16 18 0 -2
BITMAP
0000
0800
1F9F
2091
5111
0A11
0411
0811
1211
67D1
0851
1051
2891
0516
0210
0C10
7010
0000
ENDCHAR

STARTCHAR cns2_2937
ENCODING 42341
SWIDTH 854 0
DWIDTH 16 0
BBX 16 18 0 -2
BITMAP
0000
0020
003C
7E44
2408
24FF
2480
2480
24BE
24A2
24A2
25A2
46AE
00A0
0121
0121
023F
0000
ENDCHAR

STARTCHAR ccdc_A566
ENCODING 42342
SWIDTH 854 0
DWIDTH 16 0
BBX 16 18 0 -2
BITMAP
0000
0028
0024
2024
3FFF
2020
2020
3F20
2120
2120
2120
2120
2911
2611
4009
4005
0002
0000
ENDCHAR

STARTCHAR ccdc_A567
ENCODING 42343
SWIDTH 854 0
DWIDTH 16 0
BBX 16 18 0 -2
BITMAP
0000
0000
3FFF
2000
2004
2F04
297F
2904
2904
2924
2914
2F14
2804
2004
2004
400C
4000
0000
ENDCHAR

STARTCHAR cns2_2559
ENCODING 42344
SWIDTH 854 0
DWIDTH 16 0
BBX 16 18 0 -2
BITMAP
0000
0000
3FFF
2100
2100
23FC
2240
2440
2840
2FFE
2040
2444
2444
2444
4444
47FC
4404
0000
ENDCHAR

STARTCHAR cns2_2938
ENCODING 42345
SWIDTH 854 0
DWIDTH 16 0
BBX 16 18 0 -2
BITMAP
0000
0000
3FFF
2040
2040
27FC
2208
2208
2110
2FFE
2040
2040
27FC
2040
2040
4040
4040
0000
ENDCHAR

STARTCHAR cns2_2939
ENCODING 42346
SWIDTH 854 0
DWIDTH 16 0
BBX 16 18 0 -2
BITMAP
0000
0000
3FFF
2100
2160
2100
2FF4
2108
2232
2284
2288
22B1
2482
248C
48B0
5081
40FF
0000
ENDCHAR

STARTCHAR ccdc_A56B
ENCODING 42347
SWIDTH 854 0
DWIDTH 16 0
BBX 16 18 0 -2
BITMAP
0000
0000
0FFE
0800
0820
0BFE
0820
09FC
1104
11FC
1104
11FC
1104
11FC
1104
27FF
2000
0000
ENDCHAR

STARTCHAR cns3_2F70
ENCODING 42348
SWIDTH 854 0
DWIDTH 16 0
BBX 16 18 0 -2
BITMAP
0000
0000
1FFF
1020
1020
1050
1088
1104
1202
1DFD
1020
17FE
1224
1224
2128
2128
4FFF
0000
ENDCHAR

STARTCHAR cns2_2E32
ENCODING 42349
SWIDTH 854 0
DWIDTH 16 0
BBX 16 18 0 -2
BITMAP
0000
0000
3FFF
2000
2090
2090
279E
2090
2090
279E
2090
2090
239E
2C90
2110
4110
4210
0000
ENDCHAR

STARTCHAR cns2_3373
ENCODING 42350
SWIDTH 854 0
DWIDTH 16 0
BBX 16 18 0 -2
BITMAP
0000
0000
0FFF
0800
080C
09F0
0820
0BFE
0924
0924
17FF
1124
1124
13FE
1020
2020
23FE
0000
ENDCHAR

STARTCHAR cns2_3A48
ENCODING 42351
SWIDTH 854 0
DWIDTH 16 0
BBX 16 18 0 -2
BITMAP
0000
0000
3FFF
2000
2186
2E38
2208
2208
2FBE
2208
2618
2B2C
2A8A
3249
2208
4208
4618
0000
ENDCHAR

STARTCHAR cns3_4049
ENCODING 42352
SWIDTH 854 0
DWIDTH 16 0
BBX 16 18 0 -2
BITMAP
0000
0000
3FFF
2110
2FFE
2110
21F0
2040
27FC
2444
27FC
2040
2FFE
2040
2FFE
4040
5FFF
0000
ENDCHAR

STARTCHAR cns2_492D
ENCODING 42353
SWIDTH 854 0
DWIDTH 16 0
BBX 16 18 0 -2
BITMAP
0000
3FFF
2000
23F8
2208
23F8
2208
23F8
2400
27C4
2848
3494
2323
24F0
280C
43FB
4208
83F8
ENDCHAR

STARTCHAR ccdc_A572
ENCODING 42354
SWIDTH 854 0
DWIDTH 16 0
BBX 16 18 0 -2
BITMAP
0000
0000
3FFF
2000
3FF4
2424
2A54
3EF4
2004
3FF4
2004
2FE4
2824
2FE5
2825
4FE7
4000
0000
ENDCHAR

STARTCHAR ccdc_A573
ENCODING 42355
SWIDTH 854 0
DWIDTH 16 0
BBX 16 18 0 -2
BITMAP
0000
0000
0FFF
0800
0830
0848
0884
09FA
0A01
0800
13DE
1252
13DE
1104
2104
228A
4451
0000
ENDCHAR

STARTCHAR ccdc_A574
ENCODING 42356
SWIDTH 854 0
DWIDTH 16 0
BBX 16 18 0 -2
BITMAP
0000
0000
3FFF
2444
27FC
2444
27FC
2040
27FE
2040
3FFF
2912
3249
2040
27FC
4040
5FFF
0000
ENDCHAR

STARTCHAR ccdc_A575
ENCODING 42357
SWIDTH 854 0
DWIDTH 16 0
BBX 16 18 0 -2
BITMAP
0000
7FFF
4410
5F7E
5554
5554
6554
4493
407C
4F80
7FFF
0490
188C
6FFB
0FF8
0808
0FF8
0000
ENDCHAR

STARTCHAR ccdc_A576
ENCODING 42358
SWIDTH 854 0
DWIDTH 16 0
BBX 16 18 0 -2
BITMAP
0000
07FC
0420
05FC
0544
05FC
0420
0924
0820
3FBF
2224
2FBF
2AA9
2FBF
2224
4AD5
4204
0000
ENDCHAR

STARTCHAR ccdc_A577
ENCODING 42359
SWIDTH 854 0
DWIDTH 16 0
BBX 16 18 0 -2
BITMAP
0000
0200
0200
0210
0408
087C
1182
7E02
0000
0FF0
0810
0810
0810
1011
1011
2011
400F
0000
ENDCHAR

STARTCHAR ccdc_A578
ENCODING 42360
SWIDTH 854 0
DWIDTH 16 0
BBX 16 18 0 -2
BITMAP
0000
0200
0410
0808
107C
7F82
0002
0080
0080
7FFF
0080
01C0
02A0
0C98
7087
0080
0080
0000
ENDCHAR

STARTCHAR cns3_2742
ENCODING 42361
SWIDTH 854 0
DWIDTH 16 0
BBX 16 18 0 -2
BITMAP
0000
0000
0100
0200
0200
0430
1FC8
0810
1010
1222
2F7F
7101
0000
3FFE
0000
0000
7FFF
0000
ENDCHAR

STARTCHAR ccdc_A57A
ENCODING 42362
SWIDTH 854 0
DWIDTH 16 0
BBX 16 18 0 -2
BITMAP
0000
0100
0208
0404
083E
3FC1
0001
0040
0FFE
0842
0FFE
0040
1FFF
1041
1FFF
0040
0040
0000
ENDCHAR

STARTCHAR ccdc_A57B
ENCODING 42363
SWIDTH 854 0
DWIDTH 16 0
BBX 16 18 0 -2
BITMAP
0000
00E0
0F00
0100
0100
7FFF
0100
0200
03F8
0208
0508
0490
0460
0850
1088
6104
0603
0000
ENDCHAR

STARTCHAR ccdc_A57C
ENCODING 42364
SWIDTH 854 0
DWIDTH 16 0
BBX 16 18 0 -2
BITMAP
0000
0000
07F0
0010
0220
0140
0080
0140
0630
0000
7F7F
0101
2222
1414
0808
1414
6363
0000
ENDCHAR

STARTCHAR ccdc_A57D
ENCODING 42365
SWIDTH 854 0
DWIDTH 16 0
BBX 16 18 0 -2
BITMAP
0000
0080
0080
1FFC
0080
0FF8
0080
0100
7FFF
0200
03FC
0504
0488
0870
10A0
6118
0607
0000
ENDCHAR

STARTCHAR ccdc_A57E
ENCODING 42366
SWIDTH 854 0
DWIDTH 16 0
BBX 16 18 0 -2
BITMAP
0000
0000
0800
087F
3F01
0821
0821
7FA1
0821
0822
0F92
0894
088C
108A
1091
20A1
4340
0000
ENDCHAR

STARTCHAR cns2_232C
ENCODING 42401
SWIDTH 854 0
DWIDTH 16 0
BBX 16 18 0 -2
BITMAP
0000
0000
3FFE
2242
2242
2242
244A
247A
2802
27F2
2412
2412
2412
27F2
2412
2002
2006
0000
ENDCHAR

STARTCHAR cns2_2E23
ENCODING 42402
SWIDTH 854 0
DWIDTH 16 0
BBX 16 18 0 -2
BITMAP
0000
0220
3FFE
0220
1FFC
0220
7FFF
0080
0FF8
0888
0FF8
0888
7FFF
0808
0808
0808
0818
0000
ENDCHAR

STARTCHAR cns1_5024
ENCODING 42403
SWIDTH 854 0
DWIDTH 16 0
BBX 16 18 0 -2
BITMAP
0000
0080
3FFE
2082
3FFE
2082
3FFE
2002
0000
0FF8
0808
0BE8
0808
0BE8
0808
0808
0818
0000
ENDCHAR

STARTCHAR cns1_5023
ENCODING 42404
SWIDTH 854 0
DWIDTH 16 0
BBX 16 18 0 -2
BITMAP
0000
0000
3FFE
2002
2FFA
2002
2FFA
0000
0FF8
0808
0FF8
0808
0FF8
0808
0808
0FF8
0000
0000
ENDCHAR

STARTCHAR cns1_5928
ENCODING 42405
SWIDTH 854 0
DWIDTH 16 0
BBX 16 18 0 -2
BITMAP
0000
0000
1FFC
1004
1FFC
1004
1FFC
0400
0FE0
1040
7FFC
1084
1084
1FFC
0240
0441
787F
0000
ENDCHAR

STARTCHAR cns1_272E
ENCODING 42407
SWIDTH 854 0
DWIDTH 16 0
BBX 16 18 0 -2
BITMAP
0000
0000
0000
0000
3FFE
2002
4004
0000
0000
0000
0000
0000
0000
0000
0000
0000
0000
0000
ENDCHAR

STARTCHAR cns1_447D
ENCODING 42408
SWIDTH 854 0
DWIDTH 16 0
BBX 16 18 0 -2
BITMAP
0000
0000
7FFF
4001
4001
4002
07F0
0410
0410
0410
0410
0410
0410
0810
0810
1011
601F
0000
ENDCHAR

STARTCHAR cns2_254D
ENCODING 42409
SWIDTH 854 0
DWIDTH 16 0
BBX 16 18 0 -2
BITMAP
0000
0000
3FFE
2002
2082
288A
0490
0080
0080
7FFF
0080
02A0
0490
0888
3086
0080
0080
0000
ENDCHAR

STARTCHAR cns1_5025
ENCODING 42410
SWIDTH 854 0
DWIDTH 16 0
BBX 16 18 0 -2
BITMAP
0000
0000
7FFF
4001
4005
3F04
0004
007F
7F84
1204
1224
1224
1224
1204
120D
2201
41FF
0000
ENDCHAR

STARTCHAR cns1_5443
ENCODING 42411
SWIDTH 854 0
DWIDTH 16 0
BBX 16 18 0 -2
BITMAP
0000
0000
7FFF
4001
4001
1FF8
0100
0600
190C
0AB0
0440
32E0
0150
0250
0C48
3046
0181
0000
ENDCHAR

STARTCHAR cns1_5441
ENCODING 42412
SWIDTH 854 0
DWIDTH 16 0
BBX 16 18 0 -2
BITMAP
0000
0000
7FFF
4001
5FF9
0208
0208
0430
0800
3FFC
1084
1084
1FFC
0250
0448
0841
707F
0000
ENDCHAR

STARTCHAR cns1_5442
ENCODING 42413
SWIDTH 854 0
DWIDTH 16 0
BBX 16 18 0 -2
BITMAP
0000
0000
3FFE
2002
2002
2FFA
0808
0FF8
0808
0FF8
0888
0080
7FFF
0000
0220
0C18
3006
0000
ENDCHAR

STARTCHAR cns1_7036
ENCODING 42414
SWIDTH 854 0
DWIDTH 16 0
BBX 16 18 0 -2
BITMAP
0000
0000
7FFF
4221
5FFD
0220
0FF8
0808
0FF8
0808
7FFF
0490
0FF8
188C
688B
0888
0890
0000
ENDCHAR

STARTCHAR cns1_272F
ENCODING 42416
SWIDTH 854 0
DWIDTH 16 0
BBX 16 18 0 -2
BITMAP
0000
0000
0400
0200
0100
0000
0000
0080
0080
0100
0100
0200
0200
0400
0400
0000
0000
0000
ENDCHAR

STARTCHAR cns1_4576
ENCODING 42417
SWIDTH 854 0
DWIDTH 16 0
BBX 16 18 0 -2
BITMAP
0000
0200
0200
07F8
0808
1010
6420
0240
0180
0140
0220
0590
084C
1003
6700
00E0
0010
0000
ENDCHAR

STARTCHAR cns1_4743
ENCODING 42418
SWIDTH 854 0
DWIDTH 16 0
BBX 16 18 0 -2
BITMAP
0000
0020
2020
1020
0021
07A2
00B4
00A8
1128
1128
1124
2224
2224
2422
4821
5020
00E0
0000
ENDCHAR

STARTCHAR cns3_227E
ENCODING 42419
SWIDTH 854 0
DWIDTH 16 0
BBX 16 18 0 -2
BITMAP
0000
0020
0020
4020
3020
03FE
0222
0222
0A22
0A22
1222
13FE
2222
2020
4020
0020
0020
0000
ENDCHAR

STARTCHAR cns2_217B
ENCODING 42420
SWIDTH 854 0
DWIDTH 16 0
BBX 16 18 0 -2
BITMAP
0000
0000
2000
17FE
0080
0080
0080
00F8
1108
1108
1108
2108
21F8
2210
4210
4010
0FFF
0000
ENDCHAR

STARTCHAR cns1_492F
ENCODING 42421
SWIDTH 854 0
DWIDTH 16 0
BBX 16 18 0 -2
BITMAP
0000
0040
2040
1088
1084
0102
07FF
0001
1000
1000
13FE
2202
2202
2202
4202
43FE
0202
0000
ENDCHAR

STARTCHAR cns1_4930
ENCODING 42422
SWIDTH 854 0
DWIDTH 16 0
BBX 16 18 0 -2
BITMAP
0000
0020
0050
2088
1104
1202
05FD
0000
0800
0BFE
0804
1088
1050
1020
2010
2008
0000
0000
ENDCHAR

STARTCHAR cns3_245A
ENCODING 42423
SWIDTH 854 0
DWIDTH 16 0
BBX 16 18 0 -2
BITMAP
0000
0020
0222
4124
30A8
0820
0020
07FF
0020
0820
0820
17FF
1020
2020
4020
0020
0020
0000
ENDCHAR

STARTCHAR cns1_4C29
ENCODING 42424
SWIDTH 854 0
DWIDTH 16 0
BBX 16 18 0 -2
BITMAP
0000
0001
4FF1
2101
0109
03E9
0249
1449
1649
1549
2889
2889
2109
4109
4201
0401
0807
0000
ENDCHAR

STARTCHAR cns3_2459
ENCODING 42425
SWIDTH 854 0
DWIDTH 16 0
BBX 16 18 0 -2
BITMAP
0000
0000
43FE
3202
0A02
0202
0202
0202
0BFE
1292
1090
2090
2110
4111
0211
0211
040E
0000
ENDCHAR

STARTCHAR cns2_2E25
ENCODING 42426
SWIDTH 854 0
DWIDTH 16 0
BBX 16 18 0 -2
BITMAP
0000
0040
0040
4FFF
2040
23FC
0044
0FFF
0044
13FC
1080
1080
2FFF
2108
2388
4070
478C
0000
ENDCHAR

STARTCHAR cns1_5446
ENCODING 42427
SWIDTH 854 0
DWIDTH 16 0
BBX 16 18 0 -2
BITMAP
0000
0084
0084
0108
43FF
2510
1110
0110
01FE
0910
0910
0910
11FE
1110
1110
2110
21FF
0000
ENDCHAR

STARTCHAR cns2_2E27
ENCODING 42428
SWIDTH 854 0
DWIDTH 16 0
BBX 16 18 0 -2
BITMAP
0000
003C
07E0
2244
1128
1000
03FC
0024
1024
17FF
1024
3024
23FC
2020
4020
4020
00E0
0000
ENDCHAR

STARTCHAR cns3_2F5F
ENCODING 42429
SWIDTH 854 0
DWIDTH 16 0
BBX 16 18 0 -2
BITMAP
0000
0000
0020
4020
4FFF
2000
13FC
0204
0204
0A04
0BFC
1020
1124
2124
2222
4C21
00C0
0000
ENDCHAR

STARTCHAR cns2_2E24
ENCODING 42430
SWIDTH 854 0
DWIDTH 16 0
BBX 16 18 0 -2
BITMAP
0000
0020
2020
17FF
0020
03FE
0020
07FF
1000
11FE
1102
21FE
2102
21FE
4102
4102
0106
0000
ENDCHAR

STARTCHAR cns1_5447
ENCODING 42431
SWIDTH 854 0
DWIDTH 16 0
BBX 16 18 0 -2
BITMAP
0000
0000
27FE
1402
1442
05FA
0442
0442
15FA
1442
1402
25FA
250A
250A
49FA
4802
1006
0000
ENDCHAR

STARTCHAR cns1_5445
ENCODING 42432
SWIDTH 854 0
DWIDTH 16 0
BBX 16 18 0 -2
BITMAP
0000
0020
23FE
1020
0020
07FF
1090
1111
121F
2440
2080
21FC
4288
4C50
0020
00D8
0F07
0000
ENDCHAR

STARTCHAR cns1_5444
ENCODING 42433
SWIDTH 854 0
DWIDTH 16 0
BBX 16 18 0 -2
BITMAP
0000
0020
07FF
4020
2020
13FE
0222
0222
03FE
1222
1222
13FE
2070
20A8
2124
4222
4421
0000
ENDCHAR

STARTCHAR cns3_344F
ENCODING 42434
SWIDTH 854 0
DWIDTH 16 0
BBX 16 18 0 -2
BITMAP
0000
0000
0014
4012
27FF
1410
17D0
0410
0412
05D2
1554
1554
2548
25D8
4829
4845
1083
0000
ENDCHAR

STARTCHAR cns3_344E
ENCODING 42435
SWIDTH 854 0
DWIDTH 16 0
BBX 16 18 0 -2
BITMAP
0000
0000
0020
47FF
2020
13FE
1050
0088
0FFF
0104
12F4
1422
2821
23FE
4050
4088
0706
0000
ENDCHAR

STARTCHAR cns3_397A
ENCODING 42436
SWIDTH 854 0
DWIDTH 16 0
BBX 16 18 0 -2
BITMAP
0000
0000
47FF
6090
27FE
1492
0492
0492
07FE
0020
0FFF
0030
10A8
2124
2222
4421
0020
0000
ENDCHAR

STARTCHAR cns1_6C29
ENCODING 42437
SWIDTH 854 0
DWIDTH 16 0
BBX 16 18 0 -2
BITMAP
0000
0020
47FF
2000
13FE
028A
02FA
0202
13FE
1000
1018
10E0
2020
27FF
40A8
4124
4623
0000
ENDCHAR

STARTCHAR cns1_7037
ENCODING 42438
SWIDTH 854 0
DWIDTH 16 0
BBX 16 18 0 -2
BITMAP
0000
0400
44BF
2702
2454
07C8
0204
023F
17C9
1508
1128
212E
27E8
2128
42B8
44A8
1847
0000
ENDCHAR

STARTCHAR cns3_227D
ENCODING 42439
SWIDTH 854 0
DWIDTH 16 0
BBX 16 18 0 -2
BITMAP
0000
0040
4040
2040
2040
07FC
0044
0844
0844
17FF
1040
2040
2040
40A0
0110
060C
1803
0000
ENDCHAR

STARTCHAR cns1_442D
ENCODING 42440
SWIDTH 854 0
DWIDTH 16 0
BBX 16 18 0 -2
BITMAP
0000
0000
0FF0
0810
0810
0810
0810
0810
0810
0810
0810
0810
0810
1010
1011
2011
401F
0000
ENDCHAR

STARTCHAR cns1_443B
ENCODING 42441
SWIDTH 854 0
DWIDTH 16 0
BBX 16 18 0 -2
BITMAP
0000
0000
0FF0
0810
0810
0810
0A10
0910
0910
0890
0890
0890
1010
1011
1011
2011
400F
0000
ENDCHAR

STARTCHAR cns3_2759
ENCODING 42442
SWIDTH 854 0
DWIDTH 16 0
BBX 16 18 0 -2
BITMAP
0000
0000
0400
040E
09F0
1020
33FE
5020
1020
17FF
0000
07F0
0410
0411
0811
0811
300E
0000
ENDCHAR

STARTCHAR cns1_5E33
ENCODING 42443
SWIDTH 854 0
DWIDTH 16 0
BBX 16 18 0 -2
BITMAP
0000
0400
24BC
24A4
3FA4
0024
7FA4
0024
3FA4
20A4
20A4
3FA4
0224
1224
17A5
7845
0087
0000
ENDCHAR

STARTCHAR cns1_6821
ENCODING 42444
SWIDTH 854 0
DWIDTH 16 0
BBX 16 18 0 -2
BITMAP
0000
1788
0952
0624
0418
1FF4
6003
0FF8
0808
0808
0FF8
0410
0220
7FFF
0240
0441
387F
0000
ENDCHAR

STARTCHAR cns1_5929
ENCODING 42445
SWIDTH 854 0
DWIDTH 16 0
BBX 16 18 0 -2
BITMAP
0000
0000
1FFC
1104
17F4
1414
17F4
1414
17F4
1004
17F4
1084
23E4
2082
2082
5FFD
4001
0000
ENDCHAR

STARTCHAR cns1_2731
ENCODING 42447
SWIDTH 854 0
DWIDTH 16 0
BBX 16 18 0 -2
BITMAP
0000
4002
4002
4002
4002
4002
4002
4002
4002
4002
4002
4002
4002
4002
7FFE
4002
0000
0000
ENDCHAR

STARTCHAR cns1_447E
ENCODING 42448
SWIDTH 854 0
DWIDTH 16 0
BBX 16 18 0 -2
BITMAP
0000
2001
2005
2005
2C09
2209
2111
2091
2061
2041
20A1
2111
2209
2C09
2001
3FFF
2001
0000
ENDCHAR

STARTCHAR cns1_4579
ENCODING 42449
SWIDTH 854 0
DWIDTH 16 0
BBX 16 18 0 -2
BITMAP
0000
0000
03E0
0220
0220
0220
0220
3E3E
2222
2002
2002
2002
2002
2002
2002
3FFE
2002
0000
ENDCHAR

STARTCHAR cns1_4577
ENCODING 42450
SWIDTH 854 0
DWIDTH 16 0
BBX 16 18 0 -2
BITMAP
0000
0000
0000
3E3E
2222
2222
2222
2222
2222
23E2
2222
2002
2002
2002
3FFE
2002
2002
0000
ENDCHAR

STARTCHAR ccdc_A5D3
ENCODING 42451
SWIDTH 854 0
DWIDTH 16 0
BBX 16 18 0 -2
BITMAP
0000
0040
0040
2041
2041
2041
2FFD
2041
2041
2041
2041
2041
27F9
2001
2001
3FFF
2001
0000
ENDCHAR

STARTCHAR cns1_4578
ENCODING 42452
SWIDTH 854 0
DWIDTH 16 0
BBX 16 18 0 -2
BITMAP
0000
0080
1084
1084
1084
1084
1084
1FFC
0080
0080
2082
2082
2082
2082
2082
3FFE
2002
0000
ENDCHAR

STARTCHAR cns1_4C2A
ENCODING 42453
SWIDTH 854 0
DWIDTH 16 0
BBX 16 18 0 -2
BITMAP
0000
0000
0FF0
0020
00C0
204A
2052
2462
2242
2062
2152
264A
2842
21C2
2002
3FFE
2002
0000
ENDCHAR

STARTCHAR cns1_442E
ENCODING 42455
SWIDTH 854 0
DWIDTH 16 0
BBX 16 18 0 -2
BITMAP
0000
0000
3FFE
0102
0102
0102
0102
0102
0102
0102
0102
0202
0202
0402
0402
1804
6038
0000
ENDCHAR

STARTCHAR cns1_442F
ENCODING 42456
SWIDTH 854 0
DWIDTH 16 0
BBX 16 18 0 -2
BITMAP
0000
0000
1FFF
0001
0001
0001
0001
0011
0021
00C1
0301
0C01
0001
0001
0001
0002
000C
0000
ENDCHAR

STARTCHAR cns1_4443
ENCODING 42457
SWIDTH 854 0
DWIDTH 16 0
BBX 16 18 0 -2
BITMAP
0000
0000
3FFC
0084
0084
1084
0884
0504
0304
0104
0104
0208
0208
0408
0808
1010
6060
0000
ENDCHAR

STARTCHAR cns1_4521
ENCODING 42458
SWIDTH 854 0
DWIDTH 16 0
BBX 16 18 0 -2
BITMAP
0000
01E0
0020
0210
0410
0808
1004
2002
5FFD
0104
0104
0104
0204
0204
0404
1808
6030
0000
ENDCHAR

STARTCHAR cns1_4522
ENCODING 42459
SWIDTH 854 0
DWIDTH 16 0
BBX 16 18 0 -2
BITMAP
0000
1000
11FF
1011
1011
1711
7811
1011
1011
1021
1021
1021
1241
1E42
0082
0102
060C
0000
ENDCHAR

STARTCHAR cns1_4523
ENCODING 42460
SWIDTH 854 0
DWIDTH 16 0
BBX 16 18 0 -2
BITMAP
0000
0202
0202
0222
0222
0222
2222
1422
0C22
0422
0622
0922
1122
2002
4002
0002
000E
0000
ENDCHAR

STARTCHAR cns1_457A
ENCODING 42461
SWIDTH 854 0
DWIDTH 16 0
BBX 16 18 0 -2
BITMAP
0000
0382
7C02
0412
0412
0412
0412
7FD2
0412
0412
0412
0812
0812
0802
1002
2002
4006
0000
ENDCHAR

STARTCHAR cns1_4747
ENCODING 42462
SWIDTH 854 0
DWIDTH 16 0
BBX 16 18 0 -2
BITMAP
0000
0801
0801
1009
1FC9
2549
2949
4A49
1249
1249
2449
2489
4889
0881
1081
2301
4003
0000
ENDCHAR

STARTCHAR cns1_4745
ENCODING 42463
SWIDTH 854 0
DWIDTH 16 0
BBX 16 18 0 -2
BITMAP
0000
0001
7FC1
1111
1111
1111
1111
7FD1
1111
1111
1111
1111
1111
1111
1111
2101
4103
0000
ENDCHAR

STARTCHAR cns1_4746
ENCODING 42464
SWIDTH 854 0
DWIDTH 16 0
BBX 16 18 0 -2
BITMAP
0000
0401
0581
0411
7FD1
0411
0411
0451
0451
0491
0511
0211
0611
0D11
1081
6041
0027
0000
ENDCHAR

STARTCHAR cns1_4748
ENCODING 42465
SWIDTH 854 0
DWIDTH 16 0
BBX 16 18 0 -2
BITMAP
0000
0001
1F81
1091
1091
1091
1C91
1391
1091
1091
1391
1C91
1091
1081
2081
2081
4183
0000
ENDCHAR

STARTCHAR cns1_4744
ENCODING 42466
SWIDTH 854 0
DWIDTH 16 0
BBX 16 18 0 -2
BITMAP
0000
0001
7FE1
0801
0811
0F91
0891
1091
1091
1D11
2311
0111
0211
0211
0401
1801
6003
0000
ENDCHAR

STARTCHAR cns1_4935
ENCODING 42467
SWIDTH 854 0
DWIDTH 16 0
BBX 16 18 0 -2
BITMAP
0000
0801
0801
1FE9
1029
2029
4029
1F29
1129
1129
1129
1F29
1149
1001
1001
1011
1FF3
0000
ENDCHAR

STARTCHAR cns1_4F4F
ENCODING 42468
SWIDTH 854 0
DWIDTH 16 0
BBX 16 18 0 -2
BITMAP
0000
0800
08FF
7E11
0211
0211
0411
0811
1A11
2C11
4A11
0821
0821
0821
0841
0881
0906
0000
ENDCHAR

STARTCHAR cns1_4934
ENCODING 42469
SWIDTH 854 0
DWIDTH 16 0
BBX 16 18 0 -2
BITMAP
0000
0001
3FC1
2A49
2A49
2A49
2A49
2A49
7FE9
2A49
2A49
2A49
2A49
2A41
2A41
2A41
20C3
0000
ENDCHAR

STARTCHAR cns1_4932
ENCODING 42470
SWIDTH 854 0
DWIDTH 16 0
BBX 16 18 0 -2
BITMAP
0000
0401
2481
2491
1511
1511
0411
3F91
0411
0411
0411
7FD1
0811
0811
1001
1001
6003
0000
ENDCHAR

STARTCHAR cns1_4931
ENCODING 42471
SWIDTH 854 0
DWIDTH 16 0
BBX 16 18 0 -2
BITMAP
0000
0001
7F81
4091
4091
4091
7F91
1011
1011
1F91
1091
1091
1091
1081
2081
2081
4307
0000
ENDCHAR

STARTCHAR cns3_245E
ENCODING 42472
SWIDTH 854 0
DWIDTH 16 0
BBX 16 18 0 -2
BITMAP
0000
0201
0201
0209
0209
3FE9
0209
0209
0209
7FF9
0409
0409
0909
0881
1041
27E1
7826
0000
ENDCHAR

STARTCHAR cns1_4933
ENCODING 42473
SWIDTH 854 0
DWIDTH 16 0
BBX 16 18 0 -2
BITMAP
0000
0302
7C02
0822
0822
0822
7F22
0822
1822
1C22
2A22
2922
4822
0822
0802
0802
080E
0000
ENDCHAR

STARTCHAR cns1_4C32
ENCODING 42474
SWIDTH 854 0
DWIDTH 16 0
BBX 16 18 0 -2
BITMAP
0000
0001
0F81
0889
0889
0889
1089
10E9
6209
0209
3FE9
0709
0689
0A41
1221
6201
0203
0000
ENDCHAR

STARTCHAR cns1_4C30
ENCODING 42475
SWIDTH 854 0
DWIDTH 16 0
BBX 16 18 0 -2
BITMAP
0000
0001
0381
7C11
0411
0411
0411
7FD1
0411
0411
0411
3F91
2091
2081
2081
3F81
2083
0000
ENDCHAR

STARTCHAR cns1_4C2F
ENCODING 42476
SWIDTH 854 0
DWIDTH 16 0
BBX 16 18 0 -2
BITMAP
0000
0001
7FD1
0811
1011
1111
2391
7C51
0451
0411
0411
3F91
0411
0401
0401
07C1
7C03
0000
ENDCHAR

STARTCHAR cns2_2551
ENCODING 42477
SWIDTH 854 0
DWIDTH 16 0
BBX 16 18 0 -2
BITMAP
0000
0401
0401
3F91
0411
0411
0411
7FD1
0411
0411
0411
3F91
0411
0401
0401
07C1
7C03
0000
ENDCHAR

STARTCHAR cns2_2552
ENCODING 42478
SWIDTH 854 0
DWIDTH 16 0
BBX 16 18 0 -2
BITMAP
0000
0401
0401
7FC9
0A09
1109
2089
5F49
0009
3FC9
0809
0809
1F89
0081
0081
0101
0603
0000
ENDCHAR

STARTCHAR cns2_2550
ENCODING 42479
SWIDTH 854 0
DWIDTH 16 0
BBX 16 18 0 -2
BITMAP
0000
0001
3FE1
1089
1089
1089
1F89
1089
1089
1F89
1089
1089
1089
17E1
3881
0081
0083
0000
ENDCHAR

STARTCHAR cns1_4C31
ENCODING 42480
SWIDTH 854 0
DWIDTH 16 0
BBX 16 18 0 -2
BITMAP
0000
2401
2401
3F81
4411
0411
7FD1
0411
0411
3F91
2491
2491
2491
2491
2481
2501
0403
0000
ENDCHAR

STARTCHAR cns1_4C2D
ENCODING 42481
SWIDTH 854 0
DWIDTH 16 0
BBX 16 18 0 -2
BITMAP
0000
0001
3FE9
2029
2029
3FE9
2109
2109
2FE9
2929
2929
2929
2929
2921
2961
4101
4107
0000
ENDCHAR

STARTCHAR cns1_4C2C
ENCODING 42482
SWIDTH 854 0
DWIDTH 16 0
BBX 16 18 0 -2
BITMAP
0000
0080
1084
0888
0490
3FFE
0100
0200
7FFF
0410
0808
17F4
6113
0110
0210
0410
1860
0000
ENDCHAR

STARTCHAR cns1_5026
ENCODING 42483
SWIDTH 854 0
DWIDTH 16 0
BBX 16 18 0 -2
BITMAP
0000
0082
3102
0A12
0412
1B12
60D2
0512
0492
7FD2
0412
0E12
1512
2482
4442
0402
0406
0000
ENDCHAR

STARTCHAR cns1_4C2E
ENCODING 42484
SWIDTH 854 0
DWIDTH 16 0
BBX 16 18 0 -2
BITMAP
0000
0401
7FC1
0411
0411
3F91
2491
2491
2491
2591
0C11
1611
2511
4491
0401
0401
0403
0000
ENDCHAR

STARTCHAR cns1_502B
ENCODING 42485
SWIDTH 854 0
DWIDTH 16 0
BBX 16 18 0 -2
BITMAP
0000
0402
0412
7FD2
0412
0412
0412
3F92
2092
2092
3F92
0A02
0A02
1206
1200
2201
43FF
0000
ENDCHAR

STARTCHAR cns1_5027
ENCODING 42486
SWIDTH 854 0
DWIDTH 16 0
BBX 16 18 0 -2
BITMAP
0000
1081
0901
0211
3F91
0491
0491
3F91
2411
2411
3FD1
0451
0C51
1441
6581
0401
0403
0000
ENDCHAR

STARTCHAR cns2_2932
ENCODING 42487
SWIDTH 854 0
DWIDTH 16 0
BBX 16 18 0 -2
BITMAP
0000
0001
3FE1
0009
0929
1249
2489
1249
0929
0009
3FC9
0209
0209
0201
03E1
3C01
0003
0000
ENDCHAR

STARTCHAR cns1_502C
ENCODING 42488
SWIDTH 854 0
DWIDTH 16 0
BBX 16 18 0 -2
BITMAP
0000
0001
1F81
1091
1091
1F91
1091
1091
1091
1F91
1091
1091
1091
1F91
0901
1081
2047
0000
ENDCHAR

STARTCHAR cns2_2933
ENCODING 42489
SWIDTH 854 0
DWIDTH 16 0
BBX 16 18 0 -2
BITMAP
0000
0201
0201
1249
1249
1249
1249
2AA9
26A9
4319
0209
0209
3FE9
0201
0201
0201
7FF3
0000
ENDCHAR

STARTCHAR cns1_5028
ENCODING 42490
SWIDTH 854 0
DWIDTH 16 0
BBX 16 18 0 -2
BITMAP
0000
4441
2491
1511
0411
3F91
2091
2091
3F91
2091
2091
3F91
2091
2091
2081
2081
2187
0000
ENDCHAR

STARTCHAR cns1_4C2B
ENCODING 42491
SWIDTH 854 0
DWIDTH 16 0
BBX 16 18 0 -2
BITMAP
0000
0401
0411
0411
7FD1
0411
2811
1111
0A11
0411
0891
1111
6211
0411
0A01
1101
60C3
0000
ENDCHAR

STARTCHAR cns1_5029
ENCODING 42492
SWIDTH 854 0
DWIDTH 16 0
BBX 16 18 0 -2
BITMAP
0000
0410
0220
7FFF
0000
0002
3F22
2122
2122
3F22
2122
2122
3F22
2122
2102
2102
2306
0000
ENDCHAR

STARTCHAR cns1_5449
ENCODING 42493
SWIDTH 854 0
DWIDTH 16 0
BBX 16 18 0 -2
BITMAP
0000
0201
0201
3FE9
2029
2029
1009
1DE9
2529
2529
5529
0929
0969
1101
1101
2111
41F3
0000
ENDCHAR

STARTCHAR cns2_2E2C
ENCODING 42494
SWIDTH 854 0
DWIDTH 16 0
BBX 16 18 0 -2
BITMAP
0000
0401
0401
7FC9
0409
0B09
3089
0009
7FE9
0089
3C89
2489
2489
3C81
2481
0081
0183
0000
ENDCHAR

STARTCHAR cns3_2B4F
ENCODING 42529
SWIDTH 854 0
DWIDTH 16 0
BBX 16 18 0 -2
BITMAP
0000
0000
007E
7F02
4102
4162
7F1E
4003
4000
7EFE
4042
4044
4028
7E10
4028
40C4
4303
0000
ENDCHAR

STARTCHAR cns1_4632
ENCODING 42530
SWIDTH 854 0
DWIDTH 16 0
BBX 16 18 0 -2
BITMAP
0000
0000
1EFF
1201
1201
1201
1201
1205
1209
1211
1E21
1241
1081
0001
0001
0002
000C
0000
ENDCHAR

STARTCHAR cns3_2231
ENCODING 42531
SWIDTH 854 0
DWIDTH 16 0
BBX 16 18 0 -2
BITMAP
0000
0200
0200
7FF0
0210
0210
0410
0411
0811
300E
0000
1FF8
1008
1008
1008
1008
1FF8
0000
ENDCHAR

STARTCHAR ccdc_A624
ENCODING 42532
SWIDTH 854 0
DWIDTH 16 0
BBX 16 18 0 -2
BITMAP
0000
0010
0090
7890
4890
4897
48F9
4B91
4891
4891
7891
4893
4090
0080
0081
0081
00FF
0000
ENDCHAR

STARTCHAR ccdc_A625
ENCODING 42533
SWIDTH 854 0
DWIDTH 16 0
BBX 16 18 0 -2
BITMAP
0000
0020
0040
0080
7DFF
4501
4501
4501
4501
4501
4501
7D01
4501
4101
0101
0101
0107
0000
ENDCHAR

STARTCHAR cns3_2335
ENCODING 42534
SWIDTH 854 0
DWIDTH 16 0
BBX 16 18 0 -2
BITMAP
0000
0000
03FE
0020
7C20
4420
4420
4420
4420
4420
4420
4420
7C20
4420
0020
03FE
0000
0000
ENDCHAR

STARTCHAR cns1_475C
ENCODING 42535
SWIDTH 854 0
DWIDTH 16 0
BBX 16 18 0 -2
BITMAP
0000
0008
0010
7C10
4420
4420
4542
4484
4444
4428
4428
7C10
4424
0022
004E
01F1
0001
0000
ENDCHAR

STARTCHAR cns1_4755
ENCODING 42536
SWIDTH 854 0
DWIDTH 16 0
BBX 16 18 0 -2
BITMAP
0000
0004
0004
0004
7C04
4404
45FF
4404
4404
4484
4444
4444
7C04
4004
0004
0004
001C
0000
ENDCHAR

STARTCHAR cns3_2339
ENCODING 42537
SWIDTH 854 0
DWIDTH 16 0
BBX 16 18 0 -2
BITMAP
0000
0000
7E7E
4242
4242
4242
4242
4242
4242
4242
4242
4242
4242
4242
7E7E
4242
4040
0000
ENDCHAR

STARTCHAR cns2_2225
ENCODING 42538
SWIDTH 854 0
DWIDTH 16 0
BBX 16 18 0 -2
BITMAP
0000
0000
01FE
7802
4804
4808
4810
4810
4810
4BFF
7810
4810
4010
0010
0010
0010
0070
0000
ENDCHAR

STARTCHAR cns3_2337
ENCODING 42539
SWIDTH 854 0
DWIDTH 16 0
BBX 16 18 0 -2
BITMAP
0000
0006
7C38
47E0
4420
4420
4420
47FF
4420
4420
4420
7C20
4420
4020
0020
0020
0020
0000
ENDCHAR

STARTCHAR cns3_2523
ENCODING 42540
SWIDTH 854 0
DWIDTH 16 0
BBX 16 18 0 -2
BITMAP
0000
0000
0020
7C20
4440
4440
447F
4484
4484
4504
4448
4428
7C10
4410
4028
00C4
0303
0000
ENDCHAR

STARTCHAR cns3_2476
ENCODING 42541
SWIDTH 854 0
DWIDTH 16 0
BBX 16 18 0 -2
BITMAP
0000
01FE
0022
7C22
4422
45FF
4422
4422
4422
45FE
4422
7C20
4420
4020
0040
0040
0080
0000
ENDCHAR

STARTCHAR ccdc_A62E
ENCODING 42542
SWIDTH 854 0
DWIDTH 16 0
BBX 16 18 0 -2
BITMAP
0000
0100
013E
7112
5112
51D2
5712
5112
5112
5112
5112
5112
5152
51A2
7122
0042
0086
0000
ENDCHAR

STARTCHAR cns1_4955
ENCODING 42543
SWIDTH 854 0
DWIDTH 16 0
BBX 16 18 0 -2
BITMAP
0000
0020
0020
7820
4BFF
4820
4820
4820
4BFE
4802
7904
4888
0050
0020
0050
018C
0603
0000
ENDCHAR

STARTCHAR cns1_4942
ENCODING 42544
SWIDTH 854 0
DWIDTH 16 0
BBX 16 18 0 -2
BITMAP
0000
0000
01FC
7904
4904
4904
4904
49FC
4920
4920
7920
4910
0110
0208
0208
0404
0803
0000
ENDCHAR

STARTCHAR cns1_4943
ENCODING 42545
SWIDTH 854 0
DWIDTH 16 0
BBX 16 18 0 -2
BITMAP
0000
0000
03FE
7A22
4A22
4A22
4A22
4A22
4BFE
4A00
4A00
4A00
4A00
7A00
0201
0201
01FF
0000
ENDCHAR

STARTCHAR cns3_2479
ENCODING 42546
SWIDTH 854 0
DWIDTH 16 0
BBX 16 18 0 -2
BITMAP
0000
0110
0110
7D10
4510
4510
4514
45FE
4510
4510
4510
4510
7D10
4511
4171
0191
061E
0000
ENDCHAR

STARTCHAR cns3_247B
ENCODING 42547
SWIDTH 854 0
DWIDTH 16 0
BBX 16 18 0 -2
BITMAP
0000
1FF8
1008
1008
1008
1FF8
1008
0000
1FF8
0080
0080
7FFE
0080
0140
0220
0C18
3006
0000
ENDCHAR

STARTCHAR cns2_233C
ENCODING 42548
SWIDTH 854 0
DWIDTH 16 0
BBX 16 18 0 -2
BITMAP
0000
0020
4810
7810
4BFF
4882
4882
4882
4844
4844
4828
7810
4830
0048
0084
0302
0C01
0000
ENDCHAR

STARTCHAR cns3_2474
ENCODING 42549
SWIDTH 854 0
DWIDTH 16 0
BBX 16 18 0 -2
BITMAP
0000
0004
0004
7C84
4444
4424
4414
4504
4484
4444
4427
447C
7C04
4404
4004
0004
0004
0000
ENDCHAR

STARTCHAR cns2_233B
ENCODING 42550
SWIDTH 854 0
DWIDTH 16 0
BBX 16 18 0 -2
BITMAP
0000
0020
0020
7820
4820
4820
4BFF
4820
4820
4850
7850
4848
4088
0084
0124
0212
0C01
0000
ENDCHAR

STARTCHAR cns1_4958
ENCODING 42551
SWIDTH 854 0
DWIDTH 16 0
BBX 16 18 0 -2
BITMAP
0000
000E
00F0
3C80
2480
2480
2480
24FF
2488
2488
3C88
2488
2108
0108
0208
0408
0008
0000
ENDCHAR

STARTCHAR cns2_2344
ENCODING 42552
SWIDTH 854 0
DWIDTH 16 0
BBX 16 18 0 -2
BITMAP
0000
0020
002E
7BF0
4820
4820
4924
4924
4924
4924
4924
49FC
4924
7820
4021
0021
003F
0000
ENDCHAR

STARTCHAR cns2_2338
ENCODING 42553
SWIDTH 854 0
DWIDTH 16 0
BBX 16 18 0 -2
BITMAP
0000
0020
0020
7C20
4420
45FF
4420
4420
4448
4448
4450
7C90
4494
0122
0122
027D
0400
0000
ENDCHAR

STARTCHAR cns2_2339
ENCODING 42554
SWIDTH 854 0
DWIDTH 16 0
BBX 16 18 0 -2
BITMAP
0000
0020
0020
7820
49FE
4822
4822
4822
4822
4BFF
7820
4820
4050
0050
0088
0104
0603
0000
ENDCHAR

STARTCHAR cns2_2340
ENCODING 42555
SWIDTH 854 0
DWIDTH 16 0
BBX 16 18 0 -2
BITMAP
0000
0040
0040
7880
48FE
4910
4910
4A10
4810
4BFF
7810
4810
4010
0010
0010
0010
0010
0000
ENDCHAR

STARTCHAR cns2_2341
ENCODING 42556
SWIDTH 854 0
DWIDTH 16 0
BBX 16 18 0 -2
BITMAP
0000
0020
0020
7920
4920
49FE
4A20
4A20
4C20
4820
7BFF
4820
4020
0020
0020
0020
0020
0000
ENDCHAR

STARTCHAR cns3_2470
ENCODING 42557
SWIDTH 854 0
DWIDTH 16 0
BBX 16 18 0 -2
BITMAP
0000
0000
00F8
7C88
4488
4489
4509
460E
4400
47FE
4484
7C84
4448
4430
0050
018C
0603
0000
ENDCHAR

STARTCHAR cns2_233E
ENCODING 42558
SWIDTH 854 0
DWIDTH 16 0
BBX 16 18 0 -2
BITMAP
0000
0000
03FE
7844
4844
4844
4844
4844
4BFF
4888
7888
4888
4088
0088
0088
07FF
0000
0000
ENDCHAR

STARTCHAR cns2_233F
ENCODING 42559
SWIDTH 854 0
DWIDTH 16 0
BBX 16 18 0 -2
BITMAP
0000
0000
03FF
7810
4810
4820
4820
4860
4868
48A4
7922
4A21
4421
0020
0020
0020
0020
0000
ENDCHAR

STARTCHAR cns2_255B
ENCODING 42560
SWIDTH 854 0
DWIDTH 16 0
BBX 16 18 0 -2
BITMAP
0000
0040
0020
0010
7802
4842
4A44
4A44
4A48
4A48
4C50
7862
4841
40C1
0145
0644
087C
0000
ENDCHAR

STARTCHAR cns2_255C
ENCODING 42561
SWIDTH 854 0
DWIDTH 16 0
BBX 16 18 0 -2
BITMAP
0000
0020
0020
0020
7BFE
4820
4820
4820
4FFF
4840
4840
7880
4888
4104
013C
07C2
0002
0000
ENDCHAR

STARTCHAR cns2_255D
ENCODING 42562
SWIDTH 854 0
DWIDTH 16 0
BBX 16 18 0 -2
BITMAP
0000
0084
0084
0084
7C84
4484
47FF
4484
4484
4484
44FC
7C84
4484
4084
0084
00FC
0084
0000
ENDCHAR

STARTCHAR cns2_255E
ENCODING 42563
SWIDTH 854 0
DWIDTH 16 0
BBX 16 18 0 -2
BITMAP
0000
0080
0080
0080
789F
4BE4
4884
4884
4884
48E4
4B84
7C84
4884
4084
0084
0084
018C
0000
ENDCHAR

STARTCHAR cns1_4C42
ENCODING 42564
SWIDTH 854 0
DWIDTH 16 0
BBX 16 18 0 -2
BITMAP
0000
0080
0080
0080
7880
4FEF
4929
4929
4929
4929
4929
4929
7A29
4A29
4229
022F
04C9
0000
ENDCHAR

STARTCHAR cns1_4C43
ENCODING 42565
SWIDTH 854 0
DWIDTH 16 0
BBX 16 18 0 -2
BITMAP
0000
0000
01FF
7C08
4410
4410
4420
4434
4452
4492
7D11
4411
4010
0010
0010
0000
03FF
0000
ENDCHAR

STARTCHAR cns1_4C44
ENCODING 42566
SWIDTH 854 0
DWIDTH 16 0
BBX 16 18 0 -2
BITMAP
0000
0020
0020
7820
4820
4FFF
4820
4820
4820
4820
4BFE
7A02
4A02
0202
0202
03FE
0202
0000
ENDCHAR

STARTCHAR cns1_4C50
ENCODING 42567
SWIDTH 854 0
DWIDTH 16 0
BBX 16 18 0 -2
BITMAP
0000
0040
0040
78FE
4882
4944
4A28
4810
4810
4828
7844
4883
4320
0018
0000
0060
001C
0000
ENDCHAR

STARTCHAR cns2_2563
ENCODING 42568
SWIDTH 854 0
DWIDTH 16 0
BBX 16 18 0 -2
BITMAP
0000
0000
01FC
0104
7904
4904
4904
49FC
4904
4904
4904
7904
49FC
4000
0000
07FF
0000
0000
ENDCHAR

STARTCHAR cns2_2564
ENCODING 42569
SWIDTH 854 0
DWIDTH 16 0
BBX 16 18 0 -2
BITMAP
0000
0020
0020
03FE
7A22
4A22
4A22
4BFE
4A22
4A22
4A22
7FFF
4A02
4202
0202
0402
0406
0000
ENDCHAR

STARTCHAR cns2_2565
ENCODING 42570
SWIDTH 854 0
DWIDTH 16 0
BBX 16 18 0 -2
BITMAP
0000
0000
0000
03FF
7A49
4A49
4A49
4A49
4A49
4A89
4A8F
7B01
4A01
4201
03FF
0201
0000
0000
ENDCHAR

STARTCHAR cns2_2566
ENCODING 42571
SWIDTH 854 0
DWIDTH 16 0
BBX 16 18 0 -2
BITMAP
0000
0040
0040
0080
78FF
4901
4A01
4801
48F9
4889
4889
7889
48F9
4089
0001
0001
0006
0000
ENDCHAR

STARTCHAR ccdc_A64C
ENCODING 42572
SWIDTH 854 0
DWIDTH 16 0
BBX 16 18 0 -2
BITMAP
0000
0000
03FE
7880
4880
4880
48F8
4888
4888
48C8
48A8
48A8
4888
7908
4169
0389
000F
0000
ENDCHAR

STARTCHAR cns2_256B
ENCODING 42573
SWIDTH 854 0
DWIDTH 16 0
BBX 16 18 0 -2
BITMAP
0000
0020
0020
0020
7820
49FC
4820
4860
4870
48A8
4924
7A22
4C21
41FC
0020
0020
0060
0000
ENDCHAR

STARTCHAR cns2_2562
ENCODING 42574
SWIDTH 854 0
DWIDTH 16 0
BBX 16 18 0 -2
BITMAP
0000
0000
01FC
0104
7904
4904
49FC
4800
4FFF
4840
4840
78FC
4904
4004
0004
0008
0030
0000
ENDCHAR

STARTCHAR cns2_256F
ENCODING 42575
SWIDTH 854 0
DWIDTH 16 0
BBX 16 18 0 -2
BITMAP
0000
0000
0040
00A0
7910
4908
4AF4
4C03
4800
4BFC
480C
7818
01B0
00E0
0070
0030
0000
0000
ENDCHAR

STARTCHAR cns3_2779
ENCODING 42576
SWIDTH 854 0
DWIDTH 16 0
BBX 16 18 0 -2
BITMAP
0000
0000
0006
01F8
7C10
4410
4410
4410
47FF
4430
4458
4494
4512
7E11
4410
4010
0010
0000
ENDCHAR

STARTCHAR ccdc_A651
ENCODING 42577
SWIDTH 854 0
DWIDTH 16 0
BBX 16 18 0 -2
BITMAP
0000
0010
0010
0010
3DFF
2501
2501
2541
2440
2446
2478
3C40
2440
2040
0040
0042
003E
0000
ENDCHAR

STARTCHAR ccdc_A652
ENCODING 42578
SWIDTH 854 0
DWIDTH 16 0
BBX 16 18 0 -2
BITMAP
0000
001E
00F8
0080
7880
4880
48FF
4888
4888
4898
488C
488A
488A
7908
4108
0208
0008
0000
ENDCHAR

STARTCHAR ccdc_A653
ENCODING 42579
SWIDTH 854 0
DWIDTH 16 0
BBX 16 18 0 -2
BITMAP
0000
0008
0048
0048
3C48
2448
2448
27CF
2448
2448
2448
3C48
2448
20C8
0109
0209
0007
0000
ENDCHAR

STARTCHAR cns2_2569
ENCODING 42580
SWIDTH 854 0
DWIDTH 16 0
BBX 16 18 0 -2
BITMAP
0000
0000
03FE
0020
7A22
4924
48A8
48A8
4820
4820
4BFF
7820
0020
0020
0020
0020
0020
0000
ENDCHAR

STARTCHAR cns3_2778
ENCODING 42581
SWIDTH 854 0
DWIDTH 16 0
BBX 16 18 0 -2
BITMAP
0000
0000
01FE
0102
7D02
4502
4502
4502
45FE
454A
4448
4448
7C48
4449
4089
0089
030E
0000
ENDCHAR

STARTCHAR cns2_256A
ENCODING 42582
SWIDTH 854 0
DWIDTH 16 0
BBX 16 18 0 -2
BITMAP
0000
0000
03FC
0204
7A04
4BFC
4A24
4A20
4A20
4BFE
4A10
7A10
4A08
4208
02E5
0703
0001
0000
ENDCHAR

STARTCHAR ccdc_A657
ENCODING 42583
SWIDTH 854 0
DWIDTH 16 0
BBX 16 18 0 -2
BITMAP
0000
0000
0020
0020
7BFF
4A01
4838
4808
4888
4888
4888
7904
4904
4102
0202
0401
0000
0000
ENDCHAR

STARTCHAR ccdc_A658
ENCODING 42584
SWIDTH 854 0
DWIDTH 16 0
BBX 16 18 0 -2
BITMAP
0000
0010
0010
0094
7892
4911
4911
4AFE
4810
4810
4810
79FF
4810
4010
0010
0010
0010
0000
ENDCHAR

STARTCHAR cns2_2946
ENCODING 42585
SWIDTH 854 0
DWIDTH 16 0
BBX 16 18 0 -2
BITMAP
0000
0006
03F8
0020
7820
4820
4BFF
4820
4820
4820
49FC
7904
4904
4104
0104
01FC
0104
0000
ENDCHAR

STARTCHAR cns2_2947
ENCODING 42586
SWIDTH 854 0
DWIDTH 16 0
BBX 16 18 0 -2
BITMAP
0000
0100
0100
01FF
7A01
4C01
4929
4AA9
4A49
4A49
4AA9
7B19
4A09
43F9
0209
0001
0006
0000
ENDCHAR

STARTCHAR cns3_2B61
ENCODING 42587
SWIDTH 854 0
DWIDTH 16 0
BBX 16 18 0 -2
BITMAP
0000
0000
0010
0020
7C40
45FF
4501
4501
457D
4545
4545
4545
457D
7D45
4501
0101
010E
0000
ENDCHAR

STARTCHAR cns3_2B5B
ENCODING 42588
SWIDTH 854 0
DWIDTH 16 0
BBX 16 18 0 -2
BITMAP
0000
0000
0000
0102
7884
4848
4830
48FC
4820
4820
4BFF
4820
7870
4850
0088
0104
0603
0000
ENDCHAR

STARTCHAR ccdc_A65D
ENCODING 42589
SWIDTH 854 0
DWIDTH 16 0
BBX 16 18 0 -2
BITMAP
0000
0208
0208
7228
5228
5228
577F
5229
522A
5228
5228
5228
52A9
7329
0621
0021
001E
0000
ENDCHAR

STARTCHAR cns3_2B5D
ENCODING 42590
SWIDTH 854 0
DWIDTH 16 0
BBX 16 18 0 -2
BITMAP
0000
0000
03FF
7C20
4420
4420
45FE
4502
4502
4502
45FE
7D02
4502
4102
0102
01FE
0102
0000
ENDCHAR

STARTCHAR ccdc_A65F
ENCODING 42591
SWIDTH 854 0
DWIDTH 16 0
BBX 16 18 0 -2
BITMAP
0000
0020
0020
7840
4840
49FC
4954
4954
4954
4954
4954
4954
4954
7954
0154
07FF
0000
0000
ENDCHAR

STARTCHAR ccdc_A660
ENCODING 42592
SWIDTH 854 0
DWIDTH 16 0
BBX 16 18 0 -2
BITMAP
0000
0020
0020
01FA
7824
4828
4BFF
4820
4840
48FC
4940
7E40
487E
4002
0002
0002
000C
0000
ENDCHAR

STARTCHAR cns3_2B5C
ENCODING 42593
SWIDTH 854 0
DWIDTH 16 0
BBX 16 18 0 -2
BITMAP
0000
0001
4BEF
7884
4884
4884
4884
4885
4BEF
4884
4884
7884
4884
4104
0104
0204
0404
0000
ENDCHAR

STARTCHAR cns1_503C
ENCODING 42594
SWIDTH 854 0
DWIDTH 16 0
BBX 16 18 0 -2
BITMAP
0000
0020
0020
03FF
7820
4BFE
4822
4BFE
4A22
4A20
7BFF
4A21
4051
004B
0084
0102
0601
0000
ENDCHAR

STARTCHAR cns1_5041
ENCODING 42595
SWIDTH 854 0
DWIDTH 16 0
BBX 16 18 0 -2
BITMAP
0000
0020
0020
0222
7A22
4924
48A8
4820
4BFE
48A8
78A8
4924
4124
0222
0222
0421
0020
0000
ENDCHAR

STARTCHAR cns1_5039
ENCODING 42596
SWIDTH 854 0
DWIDTH 16 0
BBX 16 18 0 -2
BITMAP
0000
0088
0088
7FFF
4888
4888
4800
4884
4908
4A88
7850
4820
4050
0088
0104
0602
0801
0000
ENDCHAR

STARTCHAR cns2_293E
ENCODING 42597
SWIDTH 854 0
DWIDTH 16 0
BBX 16 18 0 -2
BITMAP
0000
0020
0020
0020
7BFF
4820
4820
4820
49FE
4800
4800
79FC
4904
4104
0104
01FC
0104
0000
ENDCHAR

STARTCHAR cns2_2944
ENCODING 42598
SWIDTH 854 0
DWIDTH 16 0
BBX 16 18 0 -2
BITMAP
0000
0020
0120
0120
7BFE
4A20
4C20
4820
4FFF
4820
4870
78A8
4924
4222
0421
0020
0020
0000
ENDCHAR

STARTCHAR cns2_2945
ENCODING 42599
SWIDTH 854 0
DWIDTH 16 0
BBX 16 18 0 -2
BITMAP
0000
0040
0080
01FE
7A10
4810
4810
4BFE
4910
4910
4910
7910
4FFF
4010
0010
0010
0010
0000
ENDCHAR

STARTCHAR cns1_5049
ENCODING 42600
SWIDTH 854 0
DWIDTH 16 0
BBX 16 18 0 -2
BITMAP
0000
0104
0088
0050
7BFE
4820
4820
4820
49FC
4820
7820
4820
47FF
0020
0020
0020
0020
0000
ENDCHAR

STARTCHAR cns2_294D
ENCODING 42601
SWIDTH 854 0
DWIDTH 16 0
BBX 16 18 0 -2
BITMAP
0000
0000
0040
7842
4BF4
4848
4850
4FFF
4820
48C0
7880
4988
42FC
0480
1880
0082
00FE
0000
ENDCHAR

STARTCHAR cns2_2949
ENCODING 42602
SWIDTH 854 0
DWIDTH 16 0
BBX 16 18 0 -2
BITMAP
0000
0000
0FF8
0808
0808
0FF8
0000
7FFF
0808
0FF8
0808
0FF8
0808
087F
7F88
0008
0008
0000
ENDCHAR

STARTCHAR cns2_294A
ENCODING 42603
SWIDTH 854 0
DWIDTH 16 0
BBX 16 18 0 -2
BITMAP
0000
0420
1420
1424
17BE
1420
1421
15A1
1E3F
6000
0FF8
0808
0808
0808
0808
0FF8
0808
0000
ENDCHAR

STARTCHAR cns2_294B
ENCODING 42604
SWIDTH 854 0
DWIDTH 16 0
BBX 16 18 0 -2
BITMAP
0000
0000
0FF8
0808
0808
09F8
0908
0908
3FFE
2002
2002
27F2
2412
2412
27F2
2412
2006
0000
ENDCHAR

STARTCHAR cns2_2940
ENCODING 42605
SWIDTH 854 0
DWIDTH 16 0
BBX 16 18 0 -2
BITMAP
0000
0000
01FC
0104
7904
49FC
4904
4904
49FC
4904
4920
7912
4914
4108
0134
01C2
0601
0000
ENDCHAR

STARTCHAR cns2_2941
ENCODING 42606
SWIDTH 854 0
DWIDTH 16 0
BBX 16 18 0 -2
BITMAP
0000
0000
01FE
7902
4902
497A
4902
4902
497A
494A
494A
494A
497A
7942
4902
4102
020E
0000
ENDCHAR

STARTCHAR cns2_294F
ENCODING 42607
SWIDTH 854 0
DWIDTH 16 0
BBX 16 18 0 -2
BITMAP
0000
0020
0020
0048
7884
4BFE
4801
4890
4890
49FE
4A10
7810
4BFF
4010
0010
0010
0010
0000
ENDCHAR

STARTCHAR cns2_2E45
ENCODING 42608
SWIDTH 854 0
DWIDTH 16 0
BBX 16 18 0 -2
BITMAP
0000
000E
03F0
0002
7A42
4924
4800
4820
4840
4BFF
4884
7908
48C8
4030
002C
00C2
0701
0000
ENDCHAR

STARTCHAR cns3_2F77
ENCODING 42609
SWIDTH 854 0
DWIDTH 16 0
BBX 16 18 0 -2
BITMAP
0000
0000
01FE
7D02
4502
45FE
4502
4502
45FE
4502
4502
45FE
7C50
4451
0091
0091
010E
0000
ENDCHAR

STARTCHAR cns3_2F76
ENCODING 42610
SWIDTH 854 0
DWIDTH 16 0
BBX 16 18 0 -2
BITMAP
0000
0000
0010
7810
4BFF
4810
49FE
4912
49FE
4912
4912
49FE
7810
4BFF
0010
0010
0010
0000
ENDCHAR

STARTCHAR cns2_2E3F
ENCODING 42611
SWIDTH 854 0
DWIDTH 16 0
BBX 16 18 0 -2
BITMAP
0000
0020
0020
0124
7924
4924
4924
4AAA
4A6A
4C31
4820
7BFE
4820
4020
0020
0020
07FF
0000
ENDCHAR

STARTCHAR cns2_2E40
ENCODING 42612
SWIDTH 854 0
DWIDTH 16 0
BBX 16 18 0 -2
BITMAP
0000
0020
0050
0088
7904
4AFA
4C01
4800
49FC
4808
4808
7810
49FC
4104
0104
0104
01FC
0000
ENDCHAR

STARTCHAR cns2_2E33
ENCODING 42613
SWIDTH 854 0
DWIDTH 16 0
BBX 16 18 0 -2
BITMAP
0000
0208
0108
0008
780A
4A2A
4929
4829
4828
4848
4909
7919
4A02
4204
0208
0430
05C0
0000
ENDCHAR

STARTCHAR cns1_5464
ENCODING 42614
SWIDTH 854 0
DWIDTH 16 0
BBX 16 18 0 -2
BITMAP
0000
0000
3FFF
2000
2FFC
2000
3FFF
2440
242C
2590
4E0F
4000
0FFC
0804
0804
0804
0FFC
0000
ENDCHAR

STARTCHAR cns1_545B
ENCODING 42615
SWIDTH 854 0
DWIDTH 16 0
BBX 16 18 0 -2
BITMAP
0000
0000
01FE
7820
4820
49FC
4844
4844
4884
4BFF
7800
4800
41FE
0102
0102
01FE
0102
0000
ENDCHAR

STARTCHAR cns1_5461
ENCODING 42616
SWIDTH 854 0
DWIDTH 16 0
BBX 16 18 0 -2
BITMAP
0000
07EF
0129
7929
492A
4FEA
492C
492A
4929
4FE9
7929
4129
022E
0228
0428
0428
18C8
0000
ENDCHAR

STARTCHAR cns1_5455
ENCODING 42617
SWIDTH 854 0
DWIDTH 16 0
BBX 16 18 0 -2
BITMAP
0000
0020
0020
01FE
7C40
4442
449E
45E1
4400
44FE
4482
7CB2
449A
0082
009A
00A2
0086
0000
ENDCHAR

STARTCHAR cns2_2E34
ENCODING 42618
SWIDTH 854 0
DWIDTH 16 0
BBX 16 18 0 -2
BITMAP
0000
0000
03FE
7820
4820
49FC
4820
4820
4BFF
4800
4888
7888
4BFF
4088
0108
0208
0C08
0000
ENDCHAR

STARTCHAR cns2_2E35
ENCODING 42619
SWIDTH 854 0
DWIDTH 16 0
BBX 16 18 0 -2
BITMAP
0000
0020
0020
0020
7BFE
4820
4820
4FFF
4820
4820
4920
793C
4920
42A0
02A0
0460
081F
0000
ENDCHAR

STARTCHAR cns2_2E36
ENCODING 42620
SWIDTH 854 0
DWIDTH 16 0
BBX 16 18 0 -2
BITMAP
0000
03FF
0048
7848
4849
4BFF
4A49
4A49
4A49
4A47
4A81
4A01
7AFD
4A01
0201
03FF
0201
0000
ENDCHAR

STARTCHAR cns2_2E37
ENCODING 42621
SWIDTH 854 0
DWIDTH 16 0
BBX 16 18 0 -2
BITMAP
0000
0020
0020
0020
79FC
4820
4820
4BFF
4850
4952
4951
7A51
4A51
4090
0090
0110
0010
0000
ENDCHAR

STARTCHAR cns2_2E38
ENCODING 42622
SWIDTH 854 0
DWIDTH 16 0
BBX 16 18 0 -2
BITMAP
0000
0100
013E
0120
7920
4FE0
4920
493F
4924
49E4
4F24
7924
4924
4124
0124
0144
0304
0000
ENDCHAR

STARTCHAR cns2_2E29
ENCODING 42657
SWIDTH 854 0
DWIDTH 16 0
BBX 16 18 0 -2
BITMAP
0000
0201
1221
1229
1249
0509
0889
3069
0209
0229
1249
1289
1509
0501
0881
1041
6033
0000
ENDCHAR

STARTCHAR cns1_544A
ENCODING 42658
SWIDTH 854 0
DWIDTH 16 0
BBX 16 18 0 -2
BITMAP
0000
0000
1F82
1092
1F92
1092
1F92
0412
0812
1FD2
2552
4952
1252
2442
0842
7082
0306
0000
ENDCHAR

STARTCHAR cns1_5448
ENCODING 42659
SWIDTH 854 0
DWIDTH 16 0
BBX 16 18 0 -2
BITMAP
0000
0401
0401
7FD1
1111
1111
1111
1111
7FD1
0011
0011
3F91
2091
2091
2081
3F81
2083
0000
ENDCHAR

STARTCHAR cns3_2F65
ENCODING 42660
SWIDTH 854 0
DWIDTH 16 0
BBX 16 18 0 -2
BITMAP
0000
0000
1201
1101
0BE9
7D09
0A09
0449
1A49
6189
1209
7FE9
0909
0909
0621
1A21
61C6
0000
ENDCHAR

STARTCHAR cns1_544B
ENCODING 42661
SWIDTH 854 0
DWIDTH 16 0
BBX 16 18 0 -2
BITMAP
0000
0001
7FC1
4049
5149
5149
4A49
7FC9
4049
4449
4449
5549
5549
5549
5F41
4041
40C3
0000
ENDCHAR

STARTCHAR cns1_544C
ENCODING 42662
SWIDTH 854 0
DWIDTH 16 0
BBX 16 18 0 -2
BITMAP
0000
0802
0F02
1112
1112
1E12
2212
0212
7FD2
0412
2492
1512
0412
1502
2482
4442
0C06
0000
ENDCHAR

STARTCHAR cns1_5E37
ENCODING 42663
SWIDTH 854 0
DWIDTH 16 0
BBX 16 18 0 -2
BITMAP
0000
0382
3C02
0412
7FD2
0412
1512
75D2
1512
3512
55D2
0E12
1512
2482
4402
0402
0406
0000
ENDCHAR

STARTCHAR cns1_592A
ENCODING 42664
SWIDTH 854 0
DWIDTH 16 0
BBX 16 18 0 -2
BITMAP
0000
0810
0420
7FFF
0000
3F24
2124
2D24
2124
2D04
210C
0000
7FFE
0102
0202
0C02
700C
0000
ENDCHAR

STARTCHAR cns2_336F
ENCODING 42665
SWIDTH 854 0
DWIDTH 16 0
BBX 16 18 0 -2
BITMAP
0000
0001
1FC1
1049
1049
13C9
1249
1249
7FE9
4029
5FA9
50A9
50A9
5FA1
50A1
4021
40E3
0000
ENDCHAR

STARTCHAR cns1_592B
ENCODING 42666
SWIDTH 854 0
DWIDTH 16 0
BBX 16 18 0 -2
BITMAP
0000
0001
7FC9
0009
0009
3F89
2089
2089
3F89
0009
7FC9
4449
4449
7FC1
4441
4441
7FC3
0000
ENDCHAR

STARTCHAR cns1_5E34
ENCODING 42667
SWIDTH 854 0
DWIDTH 16 0
BBX 16 18 0 -2
BITMAP
0000
0401
0401
7FD1
4451
0411
3F91
0411
3F91
0411
7FD1
0011
0011
3F91
2081
2081
3F83
0000
ENDCHAR

STARTCHAR cns1_5E35
ENCODING 42668
SWIDTH 854 0
DWIDTH 16 0
BBX 16 18 0 -2
BITMAP
0000
0402
2482
2492
3F92
2092
0012
7FD2
0012
3F92
2092
2092
3F92
1102
0A02
03C2
7C0E
0000
ENDCHAR

STARTCHAR cns1_5E36
ENCODING 42669
SWIDTH 854 0
DWIDTH 16 0
BBX 16 18 0 -2
BITMAP
0000
0201
0501
0881
1051
3F91
4011
1FD1
1051
1FD1
1051
1FD1
2011
5FC1
1041
1041
1FC7
0000
ENDCHAR

STARTCHAR cns2_416C
ENCODING 42670
SWIDTH 854 0
DWIDTH 16 0
BBX 16 18 0 -2
BITMAP
0000
0201
3FE1
0209
1FC9
1249
1FC9
1249
1FC9
0229
3FE9
0089
7FE9
0081
0881
0481
0183
0000
ENDCHAR

STARTCHAR cns1_6338
ENCODING 42671
SWIDTH 854 0
DWIDTH 16 0
BBX 16 18 0 -2
BITMAP
0000
0001
7FE1
0909
3FC9
2949
2949
3FC9
0009
3FC9
0009
7FE9
0209
1281
2241
4221
0607
0000
ENDCHAR

STARTCHAR cns1_6336
ENCODING 42672
SWIDTH 854 0
DWIDTH 16 0
BBX 16 18 0 -2
BITMAP
0000
1242
2482
4912
2492
0012
3F92
2492
3F92
2492
3F92
0412
7FD2
0C02
1702
2482
440E
0000
ENDCHAR

STARTCHAR cns1_6823
ENCODING 42673
SWIDTH 854 0
DWIDTH 16 0
BBX 16 18 0 -2
BITMAP
0000
0001
3FE1
2049
2A49
2A89
3FE9
2559
2449
3549
3549
3549
3F49
24A1
24A1
4911
4A13
0000
ENDCHAR

STARTCHAR cns1_6822
ENCODING 42674
SWIDTH 854 0
DWIDTH 16 0
BBX 16 18 0 -2
BITMAP
0000
0402
3F82
0492
7FD2
0492
3F92
0412
7FD2
0012
3F92
2492
3F92
2482
3F82
0002
7FC6
0000
ENDCHAR

STARTCHAR ccdc_A6B3
ENCODING 42675
SWIDTH 854 0
DWIDTH 16 0
BBX 16 18 0 -2
BITMAP
0000
2101
2101
3DE1
5145
4A25
0605
0905
1085
2F45
4035
0005
1F85
1081
1081
1F87
1082
0000
ENDCHAR

STARTCHAR cns1_6C2A
ENCODING 42676
SWIDTH 854 0
DWIDTH 16 0
BBX 16 18 0 -2
BITMAP
0000
0401
07C1
0409
3FE9
2429
2FC9
2409
27C9
2009
2FE9
2109
2349
2D89
2349
2D21
4303
0000
ENDCHAR

STARTCHAR cns1_6C2B
ENCODING 42677
SWIDTH 854 0
DWIDTH 16 0
BBX 16 18 0 -2
BITMAP
0000
0008
3F7F
2122
3F14
207F
3F08
3108
513E
5F08
0008
3FFE
0102
0102
0202
0C02
700C
0000
ENDCHAR

STARTCHAR cns1_6C2C
ENCODING 42678
SWIDTH 854 0
DWIDTH 16 0
BBX 16 18 0 -2
BITMAP
0000
0802
33C2
2152
2952
3A52
42D2
0C12
1312
20D2
5F12
0412
3F92
0402
2502
17C2
7806
0000
ENDCHAR

STARTCHAR cns1_6C2E
ENCODING 42679
SWIDTH 854 0
DWIDTH 16 0
BBX 16 18 0 -2
BITMAP
0000
0201
0501
0889
1049
2FA9
0009
3FE9
2AA9
2229
3FE9
0009
1FC9
1041
1FC1
1041
1FC3
0000
ENDCHAR

STARTCHAR cns2_4F5B
ENCODING 42680
SWIDTH 854 0
DWIDTH 16 0
BBX 16 18 0 -2
BITMAP
0000
0101
09E1
0905
0905
3FF5
00A5
3FF5
2085
3F85
24A5
2DA5
3645
4441
48A1
3121
0613
0000
ENDCHAR

STARTCHAR cns1_6C2D
ENCODING 42681
SWIDTH 854 0
DWIDTH 16 0
BBX 16 18 0 -2
BITMAP
0000
0201
0501
0889
1049
6029
1F89
0009
3DE9
2529
2529
3DE9
0889
0881
1541
2121
4203
0000
ENDCHAR

STARTCHAR cns1_7038
ENCODING 42682
SWIDTH 854 0
DWIDTH 16 0
BBX 16 18 0 -2
BITMAP
0000
0201
7FF1
0885
0525
7AC5
2AA5
2A95
4AC5
0005
1045
1FC5
1045
1FC5
1041
2041
4047
0000
ENDCHAR

STARTCHAR cns1_7039
ENCODING 42683
SWIDTH 854 0
DWIDTH 16 0
BBX 16 18 0 -2
BITMAP
0000
0401
1FC1
1049
1FC9
1049
1FC9
1049
3FE9
2229
3FE9
2229
3FE9
0001
7FF1
0881
3083
0000
ENDCHAR

STARTCHAR cns2_6539
ENCODING 42684
SWIDTH 854 0
DWIDTH 16 0
BBX 16 18 0 -2
BITMAP
0000
0801
1F81
2109
5FC9
1049
1FC9
1509
19C9
0F29
12E9
3FC9
1249
1FC1
0541
1911
61F3
0000
ENDCHAR

STARTCHAR cns3_602C
ENCODING 42685
SWIDTH 854 0
DWIDTH 16 0
BBX 16 18 0 -2
BITMAP
0000
3FE0
2021
3FE1
2201
3249
2F89
2209
3FC9
3549
3FC9
2409
3FE9
3521
5F21
4521
7EE7
0000
ENDCHAR

STARTCHAR cns3_2B3F
ENCODING 42686
SWIDTH 854 0
DWIDTH 16 0
BBX 16 18 0 -2
BITMAP
0000
0000
0001
3FE9
0009
0009
1FC9
1049
1049
1049
1FC9
0049
1089
0881
0901
7FF1
000E
0000
ENDCHAR

STARTCHAR cns1_4430
ENCODING 42687
SWIDTH 854 0
DWIDTH 16 0
BBX 16 18 0 -2
BITMAP
0000
0100
0100
0100
0100
7FFE
0102
0102
0102
0102
0202
0202
0402
0402
0802
1004
6018
0000
ENDCHAR

STARTCHAR cns1_457C
ENCODING 42688
SWIDTH 854 0
DWIDTH 16 0
BBX 16 18 0 -2
BITMAP
0000
0020
0020
7E20
0820
09FF
0821
0821
0821
0821
0841
0841
0E81
7081
0101
0202
0C0C
0000
ENDCHAR

STARTCHAR cns1_457B
ENCODING 42689
SWIDTH 854 0
DWIDTH 16 0
BBX 16 18 0 -2
BITMAP
0000
0400
0400
0400
7F9F
0891
0891
0891
0891
0891
0891
1091
1091
1111
211F
2111
4600
0000
ENDCHAR

STARTCHAR cns1_4749
ENCODING 42690
SWIDTH 854 0
DWIDTH 16 0
BBX 16 18 0 -2
BITMAP
0000
0080
088C
1082
2091
41A0
00C0
0700
3840
0040
3FFE
0082
0082
0102
0202
0C02
301C
0000
ENDCHAR

STARTCHAR cns1_4937
ENCODING 42691
SWIDTH 854 0
DWIDTH 16 0
BBX 16 18 0 -2
BITMAP
0000
0010
0010
3E10
2210
22FF
2211
3E11
2211
2211
2211
3E11
2211
22A1
2721
3841
6086
0000
ENDCHAR

STARTCHAR cns1_4938
ENCODING 42692
SWIDTH 854 0
DWIDTH 16 0
BBX 16 18 0 -2
BITMAP
0000
1000
107E
7F02
2222
6214
1408
0C14
1263
6080
1FFC
0084
0104
0104
0204
0404
1838
0000
ENDCHAR

STARTCHAR cns1_4936
ENCODING 42693
SWIDTH 854 0
DWIDTH 16 0
BBX 16 18 0 -2
BITMAP
0000
0810
0810
0810
3F10
0810
087F
0811
7F91
0811
1021
1021
1221
2741
7941
0082
010C
0000
ENDCHAR

STARTCHAR cns1_4939
ENCODING 42694
SWIDTH 854 0
DWIDTH 16 0
BBX 16 18 0 -2
BITMAP
0000
0808
0808
1F88
1088
20BF
4089
3C89
2489
2489
2489
3C91
2511
2121
0121
0641
0086
0000
ENDCHAR

STARTCHAR cns2_2331
ENCODING 42695
SWIDTH 854 0
DWIDTH 16 0
BBX 16 18 0 -2
BITMAP
0000
0010
0010
7F90
0890
08FF
1091
1091
6311
0011
7F21
4121
4121
4141
7F41
4081
0306
0000
ENDCHAR

STARTCHAR cns3_2760
ENCODING 42696
SWIDTH 854 0
DWIDTH 16 0
BBX 16 18 0 -2
BITMAP
0000
0000
0408
0408
0408
7FC8
0A7F
1109
2089
4149
1109
0A09
0611
0511
08A1
30A1
404E
0000
ENDCHAR

STARTCHAR cns1_4C34
ENCODING 42697
SWIDTH 854 0
DWIDTH 16 0
BBX 16 18 0 -2
BITMAP
0000
0008
7FC8
4008
4008
5F3F
4409
4409
5F09
4409
4411
4411
5F11
4011
4021
7FA1
4046
0000
ENDCHAR

STARTCHAR cns1_4C33
ENCODING 42698
SWIDTH 854 0
DWIDTH 16 0
BBX 16 18 0 -2
BITMAP
0000
0410
0410
0410
7F90
087E
0912
5112
3212
1412
0892
1112
2222
4422
0A22
1142
608C
0000
ENDCHAR

STARTCHAR cns2_2555
ENCODING 42699
SWIDTH 854 0
DWIDTH 16 0
BBX 16 18 0 -2
BITMAP
0000
0810
0810
0810
7F90
0810
087F
7F11
0011
0011
3E21
2221
2221
2241
3E41
2081
0306
0000
ENDCHAR

STARTCHAR cns1_5030
ENCODING 42700
SWIDTH 854 0
DWIDTH 16 0
BBX 16 18 0 -2
BITMAP
0000
0008
7FE8
1248
2488
24BF
4909
2489
2489
1251
0011
7F91
0411
0421
05A1
0E41
7086
0000
ENDCHAR

STARTCHAR cns1_502F
ENCODING 42701
SWIDTH 854 0
DWIDTH 16 0
BBX 16 18 0 -2
BITMAP
0000
0810
0810
7F10
0810
087E
7F12
4112
4112
3C12
0412
0812
0F22
7822
0842
0882
190C
0000
ENDCHAR

STARTCHAR ccdc_A6CE
ENCODING 42702
SWIDTH 854 0
DWIDTH 16 0
BBX 16 18 0 -2
BITMAP
0000
0408
0408
7FC8
0408
043F
3F89
2489
2489
3F89
0411
0C11
1511
24A1
4421
0446
0480
0000
ENDCHAR

STARTCHAR cns1_502D
ENCODING 42703
SWIDTH 854 0
DWIDTH 16 0
BBX 16 18 0 -2
BITMAP
0000
3FFC
0008
0330
00C0
1FFC
1084
1FFC
1084
1FFC
1084
200C
0080
3FFE
0102
0602
180C
0000
ENDCHAR

STARTCHAR cns1_502E
ENCODING 42704
SWIDTH 854 0
DWIDTH 16 0
BBX 16 18 0 -2
BITMAP
0000
1010
3E10
2210
4410
08FF
7F11
4911
4911
4911
7F21
1421
1441
1486
2400
2401
47FF
0000
ENDCHAR

STARTCHAR cns2_2E30
ENCODING 42705
SWIDTH 854 0
DWIDTH 16 0
BBX 16 18 0 -2
BITMAP
0000
0408
0408
7FC8
0008
0008
3FBF
2089
2089
3F91
0411
0411
1511
24A1
4421
0441
0C86
0000
ENDCHAR

STARTCHAR cns1_592C
ENCODING 42706
SWIDTH 854 0
DWIDTH 16 0
BBX 16 18 0 -2
BITMAP
0000
1110
1110
7FD0
1110
117F
1F11
0411
3F91
2491
2491
3F91
0411
7FD1
0422
0422
044C
0000
ENDCHAR

STARTCHAR cns1_592F
ENCODING 42707
SWIDTH 854 0
DWIDTH 16 0
BBX 16 18 0 -2
BITMAP
0000
0310
7C10
0810
7F10
087F
7F11
4911
4911
7F11
4911
4911
7F11
0811
7F21
0821
7F46
0000
ENDCHAR

STARTCHAR cns2_3370
ENCODING 42708
SWIDTH 854 0
DWIDTH 16 0
BBX 16 18 0 -2
BITMAP
0000
0008
7FC8
4048
5F48
405F
1F09
0009
1F09
1109
1F09
1109
1F09
1111
1111
1F21
1146
0000
ENDCHAR

STARTCHAR cns1_592E
ENCODING 42709
SWIDTH 854 0
DWIDTH 16 0
BBX 16 18 0 -2
BITMAP
0000
1108
1108
7FC8
1108
1F7F
1109
1F09
1109
7FC9
2A09
2A09
2A89
3191
2011
3FA1
2046
0000
ENDCHAR

STARTCHAR cns1_592D
ENCODING 42710
SWIDTH 854 0
DWIDTH 16 0
BBX 16 18 0 -2
BITMAP
0000
0040
7F40
027E
2284
1424
0828
0418
7F67
0910
1910
1AFE
2812
4822
0822
0842
198C
0000
ENDCHAR

STARTCHAR cns1_5E39
ENCODING 42711
SWIDTH 854 0
DWIDTH 16 0
BBX 16 18 0 -2
BITMAP
0000
0092
3C92
2454
24FE
2410
3C10
25FF
2428
2454
3C92
257F
2412
2422
2422
4442
4D8C
0000
ENDCHAR

STARTCHAR cns1_5E38
ENCODING 42712
SWIDTH 854 0
DWIDTH 16 0
BBX 16 18 0 -2
BITMAP
0000
0408
152A
162C
2448
0A14
1122
7FFF
4081
4081
1FF8
0108
0108
0208
0208
0408
1830
0000
ENDCHAR

STARTCHAR cns3_4045
ENCODING 42713
SWIDTH 854 0
DWIDTH 16 0
BBX 16 18 0 -2
BITMAP
0000
0000
7BC8
0848
6B48
18C8
295F
4A49
18C9
0409
0A09
1509
68D1
1411
0A21
1421
084E
0000
ENDCHAR

STARTCHAR cns1_6339
ENCODING 42714
SWIDTH 854 0
DWIDTH 16 0
BBX 16 18 0 -2
BITMAP
0000
0410
7FFF
0410
1FFC
1004
1FFC
1004
1FFC
0400
7FFF
0908
17F4
6113
0210
0410
1860
0000
ENDCHAR

STARTCHAR cns1_633C
ENCODING 42715
SWIDTH 854 0
DWIDTH 16 0
BBX 16 18 0 -2
BITMAP
0000
0820
3E20
087C
3E24
1424
2724
4875
3E25
08C7
3E00
0080
1FFE
0082
0102
0204
1C38
0000
ENDCHAR

STARTCHAR cns1_633D
ENCODING 42716
SWIDTH 854 0
DWIDTH 16 0
BBX 16 18 0 -2
BITMAP
0000
0408
3F88
0408
1F08
0408
7FBF
0009
3F11
2111
3F11
2111
3F21
2121
3F21
1241
6186
0000
ENDCHAR

STARTCHAR cns1_633B
ENCODING 42717
SWIDTH 854 0
DWIDTH 16 0
BBX 16 18 0 -2
BITMAP
0000
2410
7F90
2410
2410
7F7F
4911
4911
7F11
0811
7F11
0811
7F11
0811
0F21
7821
00C6
0000
ENDCHAR

STARTCHAR cns1_633A
ENCODING 42718
SWIDTH 854 0
DWIDTH 16 0
BBX 16 18 0 -2
BITMAP
0000
2488
4908
2488
0008
3FBF
2489
3F89
2491
3F91
0411
7FD1
0411
0E21
1521
2441
4486
0000
ENDCHAR

STARTCHAR cns2_492A
ENCODING 42719
SWIDTH 854 0
DWIDTH 16 0
BBX 16 18 0 -2
BITMAP
0000
2908
7FC8
2908
2F08
203F
3F89
0009
3F11
2111
3F11
2111
3F21
2121
3F21
1241
6186
0000
ENDCHAR

STARTCHAR cns1_6C2F
ENCODING 42720
SWIDTH 854 0
DWIDTH 16 0
BBX 16 18 0 -2
BITMAP
0000
0800
087F
3F49
0949
097F
0949
3149
027F
2200
7F94
2AB4
2AD5
2A91
2C90
4891
331F
0000
ENDCHAR

STARTCHAR cns1_703A
ENCODING 42721
SWIDTH 854 0
DWIDTH 16 0
BBX 16 18 0 -2
BITMAP
0000
0008
3F88
0408
7FC8
043F
3F89
2489
3F89
2489
3F89
0409
3F89
0409
7F91
2951
44A6
0000
ENDCHAR

STARTCHAR cns2_4F5C
ENCODING 42722
SWIDTH 854 0
DWIDTH 16 0
BBX 16 18 0 -2
BITMAP
0000
1108
7FC8
1108
0008
3F88
24BF
3F89
2489
3F89
0409
7FC9
4449
4551
5F51
4061
00C6
0000
ENDCHAR

STARTCHAR cns1_7344
ENCODING 42723
SWIDTH 854 0
DWIDTH 16 0
BBX 16 18 0 -2
BITMAP
0000
0008
3FE8
2008
2508
3FC8
253F
2F89
2A89
2F89
2A89
2F89
2209
5FD1
5251
5761
5046
0000
ENDCHAR

STARTCHAR cns2_653A
ENCODING 42724
SWIDTH 854 0
DWIDTH 16 0
BBX 16 18 0 -2
BITMAP
0000
0408
7FC8
0008
3B88
2A88
3BBF
1109
7FC9
1109
3F89
1111
7FD1
1211
3151
5691
1866
0000
ENDCHAR

STARTCHAR cns1_7961
ENCODING 42725
SWIDTH 854 0
DWIDTH 16 0
BBX 16 18 0 -2
BITMAP
0000
1108
7FC8
1108
0008
3F88
24BF
3F89
1209
2411
3FD1
5211
1F91
1211
1FA1
1221
1FC6
0000
ENDCHAR

STARTCHAR cns1_2734
ENCODING 42727
SWIDTH 854 0
DWIDTH 16 0
BBX 16 18 0 -2
BITMAP
0000
0800
0800
0800
1FFE
1002
2002
4002
0002
0002
0002
0002
0002
0002
0002
0002
003C
0000
ENDCHAR

STARTCHAR cns1_4444
ENCODING 42728
SWIDTH 854 0
DWIDTH 16 0
BBX 16 18 0 -2
BITMAP
0000
0400
0800
0800
1FFE
1002
2002
2002
4202
0102
0082
0082
0002
0002
0004
0004
0038
0000
ENDCHAR

STARTCHAR cns1_4524
ENCODING 42729
SWIDTH 854 0
DWIDTH 16 0
BBX 16 18 0 -2
BITMAP
0000
0800
0800
0800
1FFF
1001
1001
2001
43F1
0001
0001
0001
07F9
0001
0002
0002
000C
0000
ENDCHAR

STARTCHAR cns1_4526
ENCODING 42730
SWIDTH 854 0
DWIDTH 16 0
BBX 16 18 0 -2
BITMAP
0000
0400
0400
0800
0FFE
1122
2122
4222
0222
0422
0842
3042
0082
0102
0604
3804
0018
0000
ENDCHAR

STARTCHAR ccdc_A6EB
ENCODING 42731
SWIDTH 854 0
DWIDTH 16 0
BBX 16 18 0 -2
BITMAP
0000
0800
0800
0FFF
1001
1001
2081
4081
0881
0941
0921
0A11
0801
0FF9
0801
0002
000C
0000
ENDCHAR

STARTCHAR cns1_457D
ENCODING 42732
SWIDTH 854 0
DWIDTH 16 0
BBX 16 18 0 -2
BITMAP
0000
0800
0800
1FFC
1004
2004
4004
0FC4
0844
0844
0844
0FC4
0804
0818
0801
0801
07FF
0000
ENDCHAR

STARTCHAR cns1_474A
ENCODING 42733
SWIDTH 854 0
DWIDTH 16 0
BBX 16 18 0 -2
BITMAP
0000
0800
0800
0FFF
1001
1001
2001
4451
1291
1111
1291
1451
1011
1FF1
1011
0002
000C
0000
ENDCHAR

STARTCHAR cns2_2556
ENCODING 42734
SWIDTH 854 0
DWIDTH 16 0
BBX 16 18 0 -2
BITMAP
0000
0800
0800
0FFF
1001
1081
2491
42A1
0081
0FF9
0081
02A1
0491
0889
0081
0082
000C
0000
ENDCHAR

STARTCHAR cns1_5031
ENCODING 42735
SWIDTH 854 0
DWIDTH 16 0
BBX 16 18 0 -2
BITMAP
0000
0800
0800
0FFF
1021
2111
5FF9
0101
1FF1
1111
1FF1
1111
1FF1
1111
1111
1111
1136
0000
ENDCHAR

STARTCHAR cns1_5931
ENCODING 42736
SWIDTH 854 0
DWIDTH 16 0
BBX 16 18 0 -2
BITMAP
0000
0820
0820
7F7F
0841
1481
2201
4179
3E49
0049
7F49
1079
104A
3E40
0240
0241
1C7F
0000
ENDCHAR

STARTCHAR cns1_5930
ENCODING 42737
SWIDTH 854 0
DWIDTH 16 0
BBX 16 18 0 -2
BITMAP
0000
0800
0800
0FFF
1001
2FF1
4001
0FE1
0821
0FE1
0001
1FF1
1111
1FF1
1111
1FF2
000C
0000
ENDCHAR

STARTCHAR cns1_4525
ENCODING 42738
SWIDTH 854 0
DWIDTH 16 0
BBX 16 18 0 -2
BITMAP
0000
0400
0400
0800
0FFE
1002
2202
4202
0202
0402
0442
0822
08F2
3F12
0002
0004
0018
0000
ENDCHAR

ENDFONT
